<?xml version="1.0" encoding="UTF-8" standalone="no"?>
<svg
   xmlns:dc="http://purl.org/dc/elements/1.1/"
   xmlns:cc="http://creativecommons.org/ns#"
   xmlns:rdf="http://www.w3.org/1999/02/22-rdf-syntax-ns#"
   xmlns:svg="http://www.w3.org/2000/svg"
   xmlns="http://www.w3.org/2000/svg"
   xmlns:xlink="http://www.w3.org/1999/xlink"
   xmlns:sodipodi="http://sodipodi.sourceforge.net/DTD/sodipodi-0.dtd"
   xmlns:inkscape="http://www.inkscape.org/namespaces/inkscape"
   id="Layer_1"
   data-name="Layer 1"
   width="600"
   height="450"
   viewBox="0 0 600 450.00001"
   version="1.1"
   sodipodi:docname="pointing.svg"
   inkscape:version="0.92.4 (5da689c313, 2019-01-14)">
  <metadata
     id="metadata2909">
    <rdf:RDF>
      <cc:Work
         rdf:about="">
        <dc:format>image/svg+xml</dc:format>
        <dc:type
           rdf:resource="http://purl.org/dc/dcmitype/StillImage" />
        <dc:title>Data Center</dc:title>
      </cc:Work>
    </rdf:RDF>
  </metadata>
  <sodipodi:namedview
     pagecolor="#ffffff"
     bordercolor="#666666"
     borderopacity="1"
     objecttolerance="10"
     gridtolerance="10"
     guidetolerance="10"
     inkscape:pageopacity="0"
     inkscape:pageshadow="2"
     inkscape:window-width="1920"
     inkscape:window-height="1017"
     id="namedview2907"
     showgrid="false"
     inkscape:zoom="0.49074652"
     inkscape:cx="-95.134871"
     inkscape:cy="240.45"
     inkscape:window-x="-8"
     inkscape:window-y="-8"
     inkscape:window-maximized="1"
     inkscape:current-layer="Layer_1" />
  <defs
     id="defs2798">
    <linearGradient
       id="linear-gradient"
       x1="254.00999"
       y1="304.13"
       x2="226.78"
       y2="268.19"
       gradientUnits="userSpaceOnUse">
      <stop
         offset="0"
         stop-opacity="0"
         id="stop2770" />
      <stop
         offset="0.99"
         id="stop2772" />
    </linearGradient>
    <linearGradient
       id="linear-gradient-2"
       x1="243.75"
       y1="329.23001"
       x2="305.38"
       y2="335.59"
       xlink:href="#linear-gradient" />
    <linearGradient
       id="linear-gradient-3"
       x1="121.74"
       y1="108.66"
       x2="461.85001"
       y2="108.66"
       xlink:href="#linear-gradient" />
    <linearGradient
       id="linear-gradient-4"
       x1="288.59"
       y1="-46.130001"
       x2="314.01999"
       y2="415.98999"
       xlink:href="#linear-gradient" />
    <linearGradient
       id="linear-gradient-5"
       x1="133.89999"
       y1="403.66"
       x2="133.89999"
       y2="440.51001"
       gradientUnits="userSpaceOnUse">
      <stop
         offset="0"
         stop-opacity="0"
         id="stop2778" />
      <stop
         offset="0.41"
         stop-opacity="0.41"
         id="stop2780" />
      <stop
         offset="0.99"
         id="stop2782" />
    </linearGradient>
    <linearGradient
       id="linear-gradient-6"
       x1="310.64001"
       y1="392.64001"
       x2="311.75"
       y2="413.10001"
       xlink:href="#linear-gradient-5" />
    <linearGradient
       id="linear-gradient-7"
       x1="209.45"
       y1="234.78"
       x2="208.09"
       y2="196"
       xlink:href="#linear-gradient" />
    <linearGradient
       id="linear-gradient-8"
       x1="241.07001"
       y1="323.5"
       x2="270.67001"
       y2="323.5"
       gradientUnits="userSpaceOnUse">
      <stop
         offset="0"
         stop-color="#ecc4d7"
         id="stop2787" />
      <stop
         offset="0.42"
         stop-color="#efd4d1"
         id="stop2789" />
      <stop
         offset="1"
         stop-color="#f2eac9"
         id="stop2791" />
    </linearGradient>
    <linearGradient
       id="linear-gradient-9"
       x1="268.51999"
       y1="330.48999"
       x2="253.32001"
       y2="213.3"
       xlink:href="#linear-gradient" />
    <linearGradient
       id="linear-gradient-10"
       x1="236.72"
       y1="274.73001"
       x2="248.97"
       y2="274.73001"
       xlink:href="#linear-gradient-8" />
    <linearGradient
       id="linear-gradient-11"
       x1="255.75"
       y1="294.67999"
       x2="262.35999"
       y2="294.67999"
       xlink:href="#linear-gradient-8" />
    <linearGradient
       id="linear-gradient-12"
       x1="254.41"
       y1="283.76001"
       x2="266.78"
       y2="283.76001"
       xlink:href="#linear-gradient-8" />
    <linearGradient
       id="linear-gradient-1"
       x1="219.03999"
       y1="101.03"
       x2="230.3"
       y2="546.97998"
       gradientUnits="userSpaceOnUse">
      <stop
         offset="0"
         stop-opacity="0"
         id="stop4455" />
      <stop
         offset="0.95"
         id="stop4457" />
    </linearGradient>
    <linearGradient
       gradientTransform="matrix(1.1731082,0,0,1.1265306,223.72902,81.086051)"
       id="linear-gradient-2-0"
       x1="77.370003"
       y1="104.91"
       x2="63.110001"
       y2="143.39"
       xlink:href="#linear-gradient-1" />
    <linearGradient
       gradientTransform="matrix(1.1731082,0,0,1.1265306,223.72902,81.086051)"
       id="linear-gradient-3-6"
       x1="86.57"
       y1="104.91"
       x2="72.309998"
       y2="143.39"
       xlink:href="#linear-gradient-1" />
    <linearGradient
       gradientTransform="matrix(1.1731082,0,0,1.1265306,223.72902,81.086051)"
       id="linear-gradient-4-1"
       x1="95.769997"
       y1="104.91"
       x2="81.5"
       y2="143.39"
       xlink:href="#linear-gradient-1" />
    <linearGradient
       gradientTransform="matrix(1.1731082,0,0,1.1265306,223.72902,81.086051)"
       id="linear-gradient-5-8"
       x1="124.67"
       y1="104.91"
       x2="110.41"
       y2="143.39"
       xlink:href="#linear-gradient-1" />
    <linearGradient
       gradientTransform="matrix(1.1731082,0,0,1.1265306,223.72902,81.086051)"
       id="linear-gradient-6-1"
       x1="133.87"
       y1="104.91"
       x2="119.61"
       y2="143.39"
       xlink:href="#linear-gradient-1" />
    <linearGradient
       gradientTransform="matrix(1.1731082,0,0,1.1265306,223.72902,81.086051)"
       id="linear-gradient-7-1"
       x1="143.07001"
       y1="104.91"
       x2="128.8"
       y2="143.39"
       xlink:href="#linear-gradient-1" />
    <linearGradient
       gradientTransform="matrix(1.1731082,0,0,1.1265306,223.72902,81.086051)"
       id="linear-gradient-8-1"
       x1="188.58"
       y1="104.91"
       x2="174.32001"
       y2="143.39"
       xlink:href="#linear-gradient-1" />
    <linearGradient
       gradientTransform="matrix(1.1731082,0,0,1.1265306,223.72902,81.086051)"
       id="linear-gradient-9-3"
       x1="197.78"
       y1="104.91"
       x2="183.50999"
       y2="143.39"
       xlink:href="#linear-gradient-1" />
    <linearGradient
       gradientTransform="matrix(1.1731082,0,0,1.1265306,223.72902,81.086051)"
       id="linear-gradient-10-7"
       x1="206.98"
       y1="104.91"
       x2="192.71001"
       y2="143.39"
       xlink:href="#linear-gradient-1" />
    <linearGradient
       gradientTransform="matrix(1.1731082,0,0,1.1265306,223.72902,81.086051)"
       id="linear-gradient-11-0"
       x1="235.88"
       y1="104.91"
       x2="221.62"
       y2="143.39"
       xlink:href="#linear-gradient-1" />
    <linearGradient
       gradientTransform="matrix(1.1731082,0,0,1.1265306,223.72902,81.086051)"
       id="linear-gradient-12-2"
       x1="245.08"
       y1="104.91"
       x2="230.81"
       y2="143.39"
       xlink:href="#linear-gradient-1" />
    <linearGradient
       gradientTransform="matrix(1.1731082,0,0,1.1265306,223.72902,81.086051)"
       id="linear-gradient-13"
       x1="254.28"
       y1="104.91"
       x2="240.00999"
       y2="143.39"
       xlink:href="#linear-gradient-1" />
    <linearGradient
       gradientTransform="matrix(1.1731082,0,0,1.1265306,223.72902,81.086051)"
       id="linear-gradient-14"
       x1="77.370003"
       y1="231.42"
       x2="63.110001"
       y2="269.89001"
       xlink:href="#linear-gradient-1" />
    <linearGradient
       gradientTransform="matrix(1.1731082,0,0,1.1265306,223.72902,81.086051)"
       id="linear-gradient-15"
       x1="86.57"
       y1="231.42"
       x2="72.309998"
       y2="269.89001"
       xlink:href="#linear-gradient-1" />
    <linearGradient
       gradientTransform="matrix(1.1731082,0,0,1.1265306,223.72902,81.086051)"
       id="linear-gradient-16"
       x1="95.769997"
       y1="231.42"
       x2="81.5"
       y2="269.89001"
       xlink:href="#linear-gradient-1" />
    <linearGradient
       gradientTransform="matrix(1.1731082,0,0,1.1265306,223.72902,81.086051)"
       id="linear-gradient-17"
       x1="124.67"
       y1="231.42"
       x2="110.41"
       y2="269.89001"
       xlink:href="#linear-gradient-1" />
    <linearGradient
       gradientTransform="matrix(1.1731082,0,0,1.1265306,223.72902,81.086051)"
       id="linear-gradient-18"
       x1="133.87"
       y1="231.42"
       x2="119.61"
       y2="269.89001"
       xlink:href="#linear-gradient-1" />
    <linearGradient
       gradientTransform="matrix(1.1731082,0,0,1.1265306,223.72902,81.086051)"
       id="linear-gradient-19"
       x1="143.07001"
       y1="231.42"
       x2="128.8"
       y2="269.89001"
       xlink:href="#linear-gradient-1" />
    <linearGradient
       gradientTransform="matrix(1.1731082,0,0,1.1265306,223.72902,81.086051)"
       id="linear-gradient-20"
       x1="188.58"
       y1="231.42"
       x2="174.32001"
       y2="269.89001"
       xlink:href="#linear-gradient-1" />
    <linearGradient
       gradientTransform="matrix(1.1731082,0,0,1.1265306,223.72902,81.086051)"
       id="linear-gradient-21"
       x1="197.78"
       y1="231.42"
       x2="183.50999"
       y2="269.89001"
       xlink:href="#linear-gradient-1" />
    <linearGradient
       gradientTransform="matrix(1.1731082,0,0,1.1265306,223.72902,81.086051)"
       id="linear-gradient-22"
       x1="206.98"
       y1="231.42"
       x2="192.71001"
       y2="269.89001"
       xlink:href="#linear-gradient-1" />
    <linearGradient
       gradientTransform="matrix(1.1731082,0,0,1.1265306,223.72902,81.086051)"
       id="linear-gradient-23"
       x1="235.88"
       y1="231.42"
       x2="221.62"
       y2="269.89001"
       xlink:href="#linear-gradient-1" />
    <linearGradient
       gradientTransform="matrix(1.1731082,0,0,1.1265306,223.72902,81.086051)"
       id="linear-gradient-24"
       x1="245.08"
       y1="231.42"
       x2="230.81"
       y2="269.89001"
       xlink:href="#linear-gradient-1" />
    <linearGradient
       gradientTransform="matrix(1.1731082,0,0,1.1265306,223.72902,81.086051)"
       id="linear-gradient-25"
       x1="254.28"
       y1="231.42"
       x2="240.00999"
       y2="269.89001"
       xlink:href="#linear-gradient-1" />
    <linearGradient
       gradientTransform="matrix(1.1731082,0,0,1.1265306,150.66785,81.119847)"
       id="linear-gradient-26"
       x1="240.06"
       y1="36.52"
       x2="124.25"
       y2="97.519997"
       xlink:href="#linear-gradient-1" />
    <linearGradient
       gradientTransform="matrix(1.1731082,0,0,1.1265306,150.66785,81.119847)"
       id="linear-gradient-27"
       x1="174.17999"
       y1="55.740002"
       x2="76.57"
       y2="107.16"
       xlink:href="#linear-gradient-1" />
    <linearGradient
       gradientTransform="matrix(1.1731082,0,0,1.1265306,223.72902,81.086051)"
       id="linear-gradient-28"
       x1="101.63"
       y1="524.89001"
       x2="108.39"
       y2="-149.12"
       xlink:href="#linear-gradient-1" />
    <linearGradient
       gradientTransform="matrix(1.1731082,0,0,1.1265306,223.72902,81.086051)"
       id="linear-gradient-29"
       x1="102.04"
       y1="524.89001"
       x2="108.8"
       y2="-149.12"
       xlink:href="#linear-gradient-1" />
    <linearGradient
       gradientTransform="matrix(1.1731082,0,0,1.1265306,223.72902,81.086051)"
       id="linear-gradient-30"
       x1="102.45"
       y1="524.89001"
       x2="109.21"
       y2="-149.11"
       xlink:href="#linear-gradient-1" />
    <linearGradient
       gradientTransform="matrix(1.1731082,0,0,1.1265306,223.72902,81.086051)"
       id="linear-gradient-31"
       x1="210.85001"
       y1="525.97998"
       x2="217.61"
       y2="-148.03"
       xlink:href="#linear-gradient-1" />
    <linearGradient
       gradientTransform="matrix(1.1731082,0,0,1.1265306,223.72902,81.086051)"
       id="linear-gradient-32"
       x1="211.27"
       y1="525.97998"
       x2="218.03"
       y2="-148.02"
       xlink:href="#linear-gradient-1" />
    <linearGradient
       gradientTransform="matrix(1.1731082,0,0,1.1265306,223.72902,81.086051)"
       id="linear-gradient-33"
       x1="211.67999"
       y1="525.98999"
       x2="218.44"
       y2="-148.02"
       xlink:href="#linear-gradient-1" />
    <linearGradient
       gradientTransform="matrix(1.1731082,0,0,1.1265306,150.66785,81.119847)"
       id="linear-gradient-34"
       x1="167.49001"
       y1="91.559998"
       x2="166.92999"
       y2="310.04001"
       xlink:href="#linear-gradient-1" />
    <linearGradient
       gradientTransform="matrix(1.1731082,0,0,1.1265306,150.66785,81.119847)"
       id="linear-gradient-35"
       x1="276.73001"
       y1="91.559998"
       x2="276.17001"
       y2="310.04001"
       xlink:href="#linear-gradient-1" />
    <linearGradient
       gradientTransform="matrix(1.1731082,0,0,1.1265306,150.66785,81.119847)"
       id="linear-gradient-36"
       x1="167.49001"
       y1="132.85001"
       x2="166.92999"
       y2="351.32999"
       xlink:href="#linear-gradient-1" />
    <linearGradient
       gradientTransform="matrix(1.1731082,0,0,1.1265306,150.66785,81.119847)"
       id="linear-gradient-37"
       x1="276.73001"
       y1="132.85001"
       x2="276.17001"
       y2="351.32999"
       xlink:href="#linear-gradient-1" />
    <linearGradient
       gradientTransform="matrix(1.1731082,0,0,1.1265306,150.66785,81.119847)"
       id="linear-gradient-38"
       x1="167.49001"
       y1="174.14999"
       x2="166.92999"
       y2="392.62"
       xlink:href="#linear-gradient-1" />
    <linearGradient
       gradientTransform="matrix(1.1731082,0,0,1.1265306,150.66785,81.119847)"
       id="linear-gradient-39"
       x1="276.73001"
       y1="174.14999"
       x2="276.17001"
       y2="392.62"
       xlink:href="#linear-gradient-1" />
    <linearGradient
       gradientTransform="matrix(1.1731082,0,0,1.1265306,150.66785,81.119847)"
       y2="546.97998"
       x2="230.3"
       y1="101.03"
       x1="219.03999"
       gradientUnits="userSpaceOnUse"
       id="linearGradient5543"
       xlink:href="#linear-gradient-1"
       inkscape:collect="always" />
  </defs>
  <title
     id="title2800">Data Center</title>
  <path
     inkscape:connector-curvature="0"
     d="m 534.02781,146.45862 c -2.2641,-29.36866 -26.00775,-56.044902 -55.87508,-62.759024 -26.98149,-6.072 -55.13608,2.962776 -82.77451,0.935021 C 384.64427,83.83478 374.0863,81.378943 363.3289,81.119841 a 77.120133,74.058119 0 0 0 -61.6703,27.892899 c -17.19777,21.05486 -28.9875,47.1453 -31.96719,73.76522 -8.96256,81.67347 -40.64821,102.0862 -44.46081,125.38285 -14.73424,89.91967 81.46064,131.8942 157.82998,135.60048 69.67089,3.3796 162.78043,-38.93289 174.47632,-53.29616 16.93968,-20.78448 12.01263,-72.94285 4.42262,-98.30105 -6.0767,-20.27755 -15.49676,-40.5551 -17.29161,-61.824 -1.48985,-17.6302 0.24635,-28.02808 -6.98,-45.4893 -5.04436,-12.18906 -2.67468,-25.6511 -3.6601,-38.39216 z"
     style="opacity:0.23999999;isolation:isolate;fill:#fd6868;stroke-width:1.14958358"
     id="path4502" />
  <path
     inkscape:connector-curvature="0"
     style="fill:#fd6868;stroke-width:1.14958358"
     d="m 540.58549,216.65273 a 46.103152,44.272651 0 0 1 -46.11482,44.29519 H 322.02376 a 46.103152,44.272651 0 0 1 -2.2641,-88.50024 44.413876,42.650447 0 0 1 43.69828,-35.29421 h 5.9242 a 44.578111,42.808161 0 0 1 28.26017,9.73323 53.34123,51.223344 0 0 1 102.98717,18.72293 38.982385,37.43461 0 0 1 -0.62174,7.11968 46.091421,44.261386 0 0 1 40.57775,43.92342 z"
     id="path4504" />
  <path
     inkscape:connector-curvature="0"
     style="fill:url(#linearGradient5543);stroke-width:1.14958358"
     d="m 540.58549,216.65273 a 46.103152,44.272651 0 0 1 -46.11482,44.29519 H 322.02376 a 46.103152,44.272651 0 0 1 -2.2641,-88.50024 44.413876,42.650447 0 0 1 43.69828,-35.29421 h 5.9242 a 44.578111,42.808161 0 0 1 28.26017,9.73323 53.34123,51.223344 0 0 1 102.98717,18.72293 38.982385,37.43461 0 0 1 -0.62174,7.11968 46.091421,44.261386 0 0 1 40.57775,43.92342 z"
     id="path4506" />
  <path
     inkscape:connector-curvature="0"
     style="fill:#ffffff;stroke-width:1.14958358"
     d="m 539.92855,203.91167 a 43.193844,41.478855 0 0 1 -13.40862,30.02204 46.51374,44.666937 0 0 1 -32.38947,12.39184 H 322.85667 c -25.32741,0 -45.86854,-18.95951 -45.86854,-42.44767 a 43.322886,41.602773 0 0 1 13.40863,-30.02204 46.361236,44.520488 0 0 1 30.21927,-12.39184 41.668803,40.014365 0 0 1 12.28245,-21.76457 44.695423,42.920814 0 0 1 31.14601,-11.99755 h 5.86555 a 45.188128,43.393957 0 0 1 28.04901,9.33894 c 7.67213,-18.23853 26.80553,-31.1711 49.27055,-31.1711 29.3277,0 53.00103,21.97861 53.00103,49.128 a 35.932304,34.505631 0 0 1 -0.62175,6.82677 c 22.73478,2.51217 40.31967,20.39021 40.31967,42.08718 z"
     id="path4508" />
  <rect
     style="fill:url(#linear-gradient-2-0);stroke-width:1.14958358"
     x="304.32156"
     y="207.98975"
     width="5.2789869"
     height="21.561794"
     rx="2.6394935"
     id="rect4510" />
  <rect
     style="fill:url(#linear-gradient-3-6);stroke-width:1.14958358"
     x="315.11417"
     y="207.98975"
     width="5.2789869"
     height="21.561794"
     rx="2.6394935"
     id="rect4512" />
  <rect
     style="fill:url(#linear-gradient-4-1);stroke-width:1.14958358"
     x="325.90671"
     y="207.98975"
     width="5.2789869"
     height="21.561794"
     rx="2.6394935"
     id="rect4514" />
  <rect
     style="fill:url(#linear-gradient-5-8);stroke-width:1.14958358"
     x="359.80957"
     y="207.98975"
     width="5.2789869"
     height="21.561794"
     rx="2.6394935"
     id="rect4516" />
  <rect
     style="fill:url(#linear-gradient-6-1);stroke-width:1.14958358"
     x="370.60217"
     y="207.98975"
     width="5.2789869"
     height="21.561794"
     rx="2.6394935"
     id="rect4518" />
  <rect
     style="fill:url(#linear-gradient-7-1);stroke-width:1.14958358"
     x="381.39478"
     y="207.98975"
     width="5.2789869"
     height="21.561794"
     rx="2.6394935"
     id="rect4520" />
  <rect
     style="fill:url(#linear-gradient-8-1);stroke-width:1.14958358"
     x="434.78296"
     y="207.98975"
     width="5.2789869"
     height="21.561794"
     rx="2.6394935"
     id="rect4522" />
  <rect
     style="fill:url(#linear-gradient-9-3);stroke-width:1.14958358"
     x="445.5755"
     y="207.98975"
     width="5.2789869"
     height="21.561794"
     rx="2.6394935"
     id="rect4524" />
  <rect
     style="fill:url(#linear-gradient-10-7);stroke-width:1.14958358"
     x="456.3681"
     y="207.98975"
     width="5.2789869"
     height="21.561794"
     rx="2.6394935"
     id="rect4526" />
  <rect
     style="fill:url(#linear-gradient-11-0);stroke-width:1.14958358"
     x="490.27094"
     y="207.98975"
     width="5.2789869"
     height="21.561794"
     rx="2.6394935"
     id="rect4528" />
  <rect
     style="fill:url(#linear-gradient-12-2);stroke-width:1.14958358"
     x="501.06354"
     y="207.98975"
     width="5.2789869"
     height="21.561794"
     rx="2.6394935"
     id="rect4530" />
  <rect
     style="fill:url(#linear-gradient-13);stroke-width:1.14958358"
     x="511.85611"
     y="207.98975"
     width="5.2789869"
     height="21.561794"
     rx="2.6394935"
     id="rect4532" />
  <rect
     style="fill:url(#linear-gradient-14);stroke-width:1.14958358"
     x="304.32156"
     y="350.49582"
     width="5.2789869"
     height="21.561794"
     rx="2.6394935"
     id="rect4534" />
  <rect
     style="fill:url(#linear-gradient-15);stroke-width:1.14958358"
     x="315.11417"
     y="350.49582"
     width="5.2789869"
     height="21.561794"
     rx="2.6394935"
     id="rect4536" />
  <rect
     style="fill:url(#linear-gradient-16);stroke-width:1.14958358"
     x="325.90671"
     y="350.49582"
     width="5.2789869"
     height="21.561794"
     rx="2.6394935"
     id="rect4538" />
  <rect
     style="fill:url(#linear-gradient-17);stroke-width:1.14958358"
     x="359.80957"
     y="350.49582"
     width="5.2789869"
     height="21.561794"
     rx="2.6394935"
     id="rect4540" />
  <rect
     style="fill:url(#linear-gradient-18);stroke-width:1.14958358"
     x="370.60217"
     y="350.49582"
     width="5.2789869"
     height="21.561794"
     rx="2.6394935"
     id="rect4542" />
  <rect
     style="fill:url(#linear-gradient-19);stroke-width:1.14958358"
     x="381.39478"
     y="350.49582"
     width="5.2789869"
     height="21.561794"
     rx="2.6394935"
     id="rect4544" />
  <rect
     style="fill:url(#linear-gradient-20);stroke-width:1.14958358"
     x="434.78296"
     y="350.49582"
     width="5.2789869"
     height="21.561794"
     rx="2.6394935"
     id="rect4546" />
  <rect
     style="fill:url(#linear-gradient-21);stroke-width:1.14958358"
     x="445.5755"
     y="350.49582"
     width="5.2789869"
     height="21.561794"
     rx="2.6394935"
     id="rect4548" />
  <rect
     style="fill:url(#linear-gradient-22);stroke-width:1.14958358"
     x="456.3681"
     y="350.49582"
     width="5.2789869"
     height="21.561794"
     rx="2.6394935"
     id="rect4550" />
  <rect
     style="fill:url(#linear-gradient-23);stroke-width:1.14958358"
     x="490.27094"
     y="350.49582"
     width="5.2789869"
     height="21.561794"
     rx="2.6394935"
     id="rect4552" />
  <rect
     style="fill:url(#linear-gradient-24);stroke-width:1.14958358"
     x="501.06354"
     y="350.49582"
     width="5.2789869"
     height="21.561794"
     rx="2.6394935"
     id="rect4554" />
  <rect
     style="fill:url(#linear-gradient-25);stroke-width:1.14958358"
     x="511.85611"
     y="350.49582"
     width="5.2789869"
     height="21.561794"
     rx="2.6394935"
     id="rect4556" />
  <path
     inkscape:connector-curvature="0"
     style="fill:url(#linear-gradient-26);stroke-width:1.14958358"
     d="m 397.98251,137.04082 12.0361,11.95249 c 0,0 7.48443,-43.08979 54.60819,-40.17208 0,0 -44.3435,-15.02792 -66.64429,28.21959 z"
     id="path4558" />
  <path
     inkscape:connector-curvature="0"
     style="fill:url(#linear-gradient-27);stroke-width:1.14958358"
     d="m 320.65123,161.53159 c 0,0 8.56368,-0.90122 16.70506,8.6067 0,0 1.75966,-38.48229 35.7798,-39.11314 0,0 -13.93653,-8.55037 -33.35147,3.49224 -17.39719,10.81469 -19.13339,27.0142 -19.13339,27.0142 z"
     id="path4560" />
  <rect
     style="fill:#fd6868;stroke-width:1.14958358"
     x="288.24997"
     y="229.39378"
     width="118.23758"
     height="38.572407"
     rx="12.986306"
     id="rect4562" />
  <rect
     style="fill:#fd6868;stroke-width:1.14958358"
     x="288.24997"
     y="275.97583"
     width="118.23758"
     height="38.572407"
     rx="12.986306"
     id="rect4564" />
  <rect
     style="fill:#fd6868;stroke-width:1.14958358"
     x="288.24997"
     y="322.07346"
     width="118.23758"
     height="38.572407"
     rx="12.986306"
     id="rect4566" />
  <rect
     style="fill:#fd6868;stroke-width:1.14958358"
     x="416.4003"
     y="229.39378"
     width="118.23758"
     height="38.572407"
     rx="12.986306"
     id="rect4568" />
  <rect
     style="fill:#fd6868;stroke-width:1.14958358"
     x="416.4003"
     y="275.97583"
     width="118.23758"
     height="38.572407"
     rx="12.986306"
     id="rect4570" />
  <rect
     style="fill:#fd6868;stroke-width:1.14958358"
     x="416.4003"
     y="322.07346"
     width="118.23758"
     height="38.572407"
     rx="12.986306"
     id="rect4572" />
  <rect
     style="fill:url(#linear-gradient-28);stroke-width:1.14958358"
     x="288.24997"
     y="229.39378"
     width="118.23758"
     height="38.572407"
     rx="12.986306"
     id="rect4574" />
  <rect
     style="fill:url(#linear-gradient-29);stroke-width:1.14958358"
     x="288.24997"
     y="275.97583"
     width="118.23758"
     height="38.572407"
     rx="12.986306"
     id="rect4576" />
  <rect
     style="fill:url(#linear-gradient-30);stroke-width:1.14958358"
     x="288.24997"
     y="322.07346"
     width="118.23758"
     height="38.572407"
     rx="12.986306"
     id="rect4578" />
  <rect
     style="fill:url(#linear-gradient-31);stroke-width:1.14958358"
     x="416.4003"
     y="229.39378"
     width="118.23758"
     height="38.572407"
     rx="12.986306"
     id="rect4580" />
  <rect
     style="fill:url(#linear-gradient-32);stroke-width:1.14958358"
     x="416.4003"
     y="275.97583"
     width="118.23758"
     height="38.572407"
     rx="12.986306"
     id="rect4582" />
  <rect
     style="fill:url(#linear-gradient-33);stroke-width:1.14958358"
     x="416.4003"
     y="322.07346"
     width="118.23758"
     height="38.572407"
     rx="12.986306"
     id="rect4584" />
  <rect
     style="fill:#fd6868;stroke-width:1.14958358"
     x="288.53149"
     y="221.67708"
     width="118.23758"
     height="38.572407"
     rx="12.986306"
     id="rect4586" />
  <rect
     style="fill:#fd6868;stroke-width:1.14958358"
     x="288.53149"
     y="268.25906"
     width="118.23758"
     height="38.572407"
     rx="12.986306"
     id="rect4588" />
  <rect
     style="fill:#fd6868;stroke-width:1.14958358"
     x="288.53149"
     y="314.35672"
     width="118.23758"
     height="38.572407"
     rx="12.986306"
     id="rect4590" />
  <rect
     style="fill:#fd6868;stroke-width:1.14958358"
     x="416.68182"
     y="221.67708"
     width="118.23758"
     height="38.572407"
     rx="12.986306"
     id="rect4592" />
  <rect
     style="fill:#fd6868;stroke-width:1.14958358"
     x="416.68182"
     y="268.25906"
     width="118.23758"
     height="38.572407"
     rx="12.986306"
     id="rect4594" />
  <rect
     style="fill:#fd6868;stroke-width:1.14958358"
     x="416.68182"
     y="314.35672"
     width="118.23758"
     height="38.572407"
     rx="12.986306"
     id="rect4596" />
  <path
     inkscape:connector-curvature="0"
     style="fill:url(#linear-gradient-34);stroke-width:1.14958358"
     d="m 288.26171,241.86449 h 117.9091 V 231.568 c 0,0 -0.65694,-8.67429 -12.38802,-9.89094 h -94.29444 c 0,0 -14.20634,3.22188 -11.22664,20.18743 z"
     id="path4598" />
  <path
     inkscape:connector-curvature="0"
     style="fill:url(#linear-gradient-35);stroke-width:1.14958358"
     d="M 416.40031,241.86449 H 534.27416 V 231.568 c 0,0 -0.6452,-8.67429 -12.37629,-9.89094 h -94.25918 c 0,0 -14.19461,3.22188 -11.23838,20.18743 z"
     id="path4600" />
  <path
     inkscape:connector-curvature="0"
     style="fill:url(#linear-gradient-36);stroke-width:1.14958358"
     d="m 288.26171,288.40147 h 117.9091 v -10.30776 c 0,0 -0.65694,-8.67428 -12.38802,-9.89094 h -94.29444 c 0,0 -14.20634,3.21061 -11.22664,20.1987 z"
     id="path4602" />
  <path
     inkscape:connector-curvature="0"
     style="fill:url(#linear-gradient-37);stroke-width:1.14958358"
     d="m 416.40031,288.40147 h 117.87385 v -10.30776 c 0,0 -0.6452,-8.67428 -12.37629,-9.89094 h -94.25918 c 0,0 -14.19461,3.21061 -11.23838,20.1987 z"
     id="path4604" />
  <path
     inkscape:connector-curvature="0"
     style="fill:url(#linear-gradient-38);stroke-width:1.14958358"
     d="m 288.26171,334.90465 h 117.9091 v -10.30776 c 0,0 -0.65694,-8.67428 -12.38802,-9.87967 h -94.29444 c 0,0 -14.20634,3.21061 -11.22664,20.18743 z"
     id="path4606" />
  <path
     inkscape:connector-curvature="0"
     style="fill:url(#linear-gradient-39);stroke-width:1.14958358"
     d="m 416.40031,334.90465 h 117.87385 v -10.30776 c 0,0 -0.6452,-8.67428 -12.37629,-9.87967 h -94.25918 c 0,0 -14.19461,3.21061 -11.23838,20.18743 z"
     id="path4608" />
  <ellipse
     style="fill:#ffffff;stroke-width:1.14958358"
     cx="355.79755"
     cy="241.23363"
     id="circle4610"
     rx="4.1293406"
     ry="3.9653876" />
  <ellipse
     style="fill:#ffffff;stroke-width:1.14958358"
     cx="367.47"
     cy="241.23363"
     id="circle4612"
     rx="4.1293406"
     ry="3.9653876" />
  <ellipse
     style="fill:#ffffff;stroke-width:1.14958358"
     cx="379.13068"
     cy="241.23363"
     id="circle4614"
     rx="4.1293406"
     ry="3.9653876" />
  <ellipse
     style="fill:#ffffff;stroke-width:1.14958358"
     cx="493.62601"
     cy="241.23363"
     id="circle4616"
     rx="4.1293406"
     ry="3.9653876" />
  <ellipse
     style="fill:#ffffff;stroke-width:1.14958358"
     cx="505.29846"
     cy="241.23363"
     id="circle4618"
     rx="4.1293406"
     ry="3.9653876" />
  <ellipse
     style="fill:#ffffff;stroke-width:1.14958358"
     cx="516.97089"
     cy="241.23363"
     id="circle4620"
     rx="4.1293406"
     ry="3.9653876" />
  <ellipse
     style="fill:#ffffff;stroke-width:1.14958358"
     cx="355.79755"
     cy="288.54791"
     id="circle4622"
     rx="4.1293406"
     ry="3.9653876" />
  <ellipse
     style="fill:#ffffff;stroke-width:1.14958358"
     cx="367.47"
     cy="288.54791"
     id="circle4624"
     rx="4.1293406"
     ry="3.9653876" />
  <ellipse
     style="fill:#ffffff;stroke-width:1.14958358"
     cx="379.13068"
     cy="288.54791"
     id="circle4626"
     rx="4.1293406"
     ry="3.9653876" />
  <ellipse
     style="fill:#ffffff;stroke-width:1.14958358"
     cx="493.62601"
     cy="288.54791"
     id="circle4628"
     rx="4.1293406"
     ry="3.9653876" />
  <ellipse
     style="fill:#ffffff;stroke-width:1.14958358"
     cx="505.29846"
     cy="288.54791"
     id="circle4630"
     rx="4.1293406"
     ry="3.9653876" />
  <ellipse
     style="fill:#ffffff;stroke-width:1.14958358"
     cx="516.97089"
     cy="288.54791"
     id="circle4632"
     rx="4.1293406"
     ry="3.9653876" />
  <ellipse
     style="fill:#ffffff;stroke-width:1.14958358"
     cx="355.79755"
     cy="335.86218"
     id="circle4634"
     rx="4.1293406"
     ry="3.9653876" />
  <ellipse
     style="fill:#ffffff;stroke-width:1.14958358"
     cx="367.47"
     cy="335.86218"
     id="circle4636"
     rx="4.1293406"
     ry="3.9653876" />
  <ellipse
     style="fill:#ffffff;stroke-width:1.14958358"
     cx="379.13068"
     cy="335.86218"
     id="circle4638"
     rx="4.1293406"
     ry="3.9653876" />
  <ellipse
     style="fill:#ffffff;stroke-width:1.14958358"
     cx="493.62601"
     cy="335.86218"
     id="circle4640"
     rx="4.1293406"
     ry="3.9653876" />
  <ellipse
     style="fill:#ffffff;stroke-width:1.14958358"
     cx="505.29846"
     cy="335.86218"
     id="circle4642"
     rx="4.1293406"
     ry="3.9653876" />
  <ellipse
     style="fill:#ffffff;stroke-width:1.14958358"
     cx="516.97089"
     cy="335.86218"
     id="circle4644"
     rx="4.1293406"
     ry="3.9653876" />
</svg>
