<?xml version="1.0" encoding="UTF-8" standalone="no"?>
<svg
   xmlns:dc="http://purl.org/dc/elements/1.1/"
   xmlns:cc="http://creativecommons.org/ns#"
   xmlns:rdf="http://www.w3.org/1999/02/22-rdf-syntax-ns#"
   xmlns:svg="http://www.w3.org/2000/svg"
   xmlns="http://www.w3.org/2000/svg"
   xmlns:xlink="http://www.w3.org/1999/xlink"
   xmlns:sodipodi="http://sodipodi.sourceforge.net/DTD/sodipodi-0.dtd"
   xmlns:inkscape="http://www.inkscape.org/namespaces/inkscape"
   id="Layer_1"
   data-name="Layer 1"
   width="600"
   height="450"
   viewBox="0 0 600 450.00001"
   version="1.1"
   sodipodi:docname="pointing.svg"
   inkscape:version="0.92.4 (5da689c313, 2019-01-14)">
  <metadata
     id="metadata2909">
    <rdf:RDF>
      <cc:Work
         rdf:about="">
        <dc:format>image/svg+xml</dc:format>
        <dc:type
           rdf:resource="http://purl.org/dc/dcmitype/StillImage" />
        <dc:title>Data Center</dc:title>
      </cc:Work>
    </rdf:RDF>
  </metadata>
  <sodipodi:namedview
     pagecolor="#ffffff"
     bordercolor="#666666"
     borderopacity="1"
     objecttolerance="10"
     gridtolerance="10"
     guidetolerance="10"
     inkscape:pageopacity="0"
     inkscape:pageshadow="2"
     inkscape:window-width="1920"
     inkscape:window-height="1017"
     id="namedview2907"
     showgrid="false"
     inkscape:zoom="0.49074652"
     inkscape:cx="252.295"
     inkscape:cy="240.45"
     inkscape:window-x="-8"
     inkscape:window-y="-8"
     inkscape:window-maximized="1"
     inkscape:current-layer="Layer_1" />
  <defs
     id="defs2798">
    <linearGradient
       id="linear-gradient"
       x1="254.00999"
       y1="304.13"
       x2="226.78"
       y2="268.19"
       gradientUnits="userSpaceOnUse">
      <stop
         offset="0"
         stop-opacity="0"
         id="stop2770" />
      <stop
         offset="0.99"
         id="stop2772" />
    </linearGradient>
    <linearGradient
       id="linear-gradient-2"
       x1="243.75"
       y1="329.23001"
       x2="305.38"
       y2="335.59"
       xlink:href="#linear-gradient" />
    <linearGradient
       id="linear-gradient-3"
       x1="121.74"
       y1="108.66"
       x2="461.85001"
       y2="108.66"
       xlink:href="#linear-gradient" />
    <linearGradient
       id="linear-gradient-4"
       x1="288.59"
       y1="-46.130001"
       x2="314.01999"
       y2="415.98999"
       xlink:href="#linear-gradient" />
    <linearGradient
       id="linear-gradient-5"
       x1="133.89999"
       y1="403.66"
       x2="133.89999"
       y2="440.51001"
       gradientUnits="userSpaceOnUse">
      <stop
         offset="0"
         stop-opacity="0"
         id="stop2778" />
      <stop
         offset="0.41"
         stop-opacity="0.41"
         id="stop2780" />
      <stop
         offset="0.99"
         id="stop2782" />
    </linearGradient>
    <linearGradient
       id="linear-gradient-6"
       x1="310.64001"
       y1="392.64001"
       x2="311.75"
       y2="413.10001"
       xlink:href="#linear-gradient-5" />
    <linearGradient
       id="linear-gradient-7"
       x1="209.45"
       y1="234.78"
       x2="208.09"
       y2="196"
       xlink:href="#linear-gradient" />
    <linearGradient
       id="linear-gradient-8"
       x1="241.07001"
       y1="323.5"
       x2="270.67001"
       y2="323.5"
       gradientUnits="userSpaceOnUse">
      <stop
         offset="0"
         stop-color="#ecc4d7"
         id="stop2787" />
      <stop
         offset="0.42"
         stop-color="#efd4d1"
         id="stop2789" />
      <stop
         offset="1"
         stop-color="#f2eac9"
         id="stop2791" />
    </linearGradient>
    <linearGradient
       id="linear-gradient-9"
       x1="268.51999"
       y1="330.48999"
       x2="253.32001"
       y2="213.3"
       xlink:href="#linear-gradient" />
    <linearGradient
       id="linear-gradient-10"
       x1="236.72"
       y1="274.73001"
       x2="248.97"
       y2="274.73001"
       xlink:href="#linear-gradient-8" />
    <linearGradient
       id="linear-gradient-11"
       x1="255.75"
       y1="294.67999"
       x2="262.35999"
       y2="294.67999"
       xlink:href="#linear-gradient-8" />
    <linearGradient
       id="linear-gradient-12"
       x1="254.41"
       y1="283.76001"
       x2="266.78"
       y2="283.76001"
       xlink:href="#linear-gradient-8" />
    <linearGradient
       id="linear-gradient-1"
       x1="219.03999"
       y1="101.03"
       x2="230.3"
       y2="546.97998"
       gradientUnits="userSpaceOnUse">
      <stop
         offset="0"
         stop-opacity="0"
         id="stop4455" />
      <stop
         offset="0.95"
         id="stop4457" />
    </linearGradient>
    <linearGradient
       gradientTransform="matrix(1.422384,0,0,1.1265306,150.37288,81.086051)"
       id="linear-gradient-2-0"
       x1="77.370003"
       y1="104.91"
       x2="63.110001"
       y2="143.39"
       xlink:href="#linear-gradient-1" />
    <linearGradient
       gradientTransform="matrix(1.422384,0,0,1.1265306,150.37288,81.086051)"
       id="linear-gradient-3-6"
       x1="86.57"
       y1="104.91"
       x2="72.309998"
       y2="143.39"
       xlink:href="#linear-gradient-1" />
    <linearGradient
       gradientTransform="matrix(1.422384,0,0,1.1265306,150.37288,81.086051)"
       id="linear-gradient-4-1"
       x1="95.769997"
       y1="104.91"
       x2="81.5"
       y2="143.39"
       xlink:href="#linear-gradient-1" />
    <linearGradient
       gradientTransform="matrix(1.422384,0,0,1.1265306,150.37288,81.086051)"
       id="linear-gradient-5-8"
       x1="124.67"
       y1="104.91"
       x2="110.41"
       y2="143.39"
       xlink:href="#linear-gradient-1" />
    <linearGradient
       gradientTransform="matrix(1.422384,0,0,1.1265306,150.37288,81.086051)"
       id="linear-gradient-6-1"
       x1="133.87"
       y1="104.91"
       x2="119.61"
       y2="143.39"
       xlink:href="#linear-gradient-1" />
    <linearGradient
       gradientTransform="matrix(1.422384,0,0,1.1265306,150.37288,81.086051)"
       id="linear-gradient-7-1"
       x1="143.07001"
       y1="104.91"
       x2="128.8"
       y2="143.39"
       xlink:href="#linear-gradient-1" />
    <linearGradient
       gradientTransform="matrix(1.422384,0,0,1.1265306,150.37288,81.086051)"
       id="linear-gradient-8-1"
       x1="188.58"
       y1="104.91"
       x2="174.32001"
       y2="143.39"
       xlink:href="#linear-gradient-1" />
    <linearGradient
       gradientTransform="matrix(1.422384,0,0,1.1265306,150.37288,81.086051)"
       id="linear-gradient-9-3"
       x1="197.78"
       y1="104.91"
       x2="183.50999"
       y2="143.39"
       xlink:href="#linear-gradient-1" />
    <linearGradient
       gradientTransform="matrix(1.422384,0,0,1.1265306,150.37288,81.086051)"
       id="linear-gradient-10-7"
       x1="206.98"
       y1="104.91"
       x2="192.71001"
       y2="143.39"
       xlink:href="#linear-gradient-1" />
    <linearGradient
       gradientTransform="matrix(1.422384,0,0,1.1265306,150.37288,81.086051)"
       id="linear-gradient-11-0"
       x1="235.88"
       y1="104.91"
       x2="221.62"
       y2="143.39"
       xlink:href="#linear-gradient-1" />
    <linearGradient
       gradientTransform="matrix(1.422384,0,0,1.1265306,150.37288,81.086051)"
       id="linear-gradient-12-2"
       x1="245.08"
       y1="104.91"
       x2="230.81"
       y2="143.39"
       xlink:href="#linear-gradient-1" />
    <linearGradient
       gradientTransform="matrix(1.422384,0,0,1.1265306,150.37288,81.086051)"
       id="linear-gradient-13"
       x1="254.28"
       y1="104.91"
       x2="240.00999"
       y2="143.39"
       xlink:href="#linear-gradient-1" />
    <linearGradient
       gradientTransform="matrix(1.422384,0,0,1.1265306,150.37288,81.086051)"
       id="linear-gradient-14"
       x1="77.370003"
       y1="231.42"
       x2="63.110001"
       y2="269.89001"
       xlink:href="#linear-gradient-1" />
    <linearGradient
       gradientTransform="matrix(1.422384,0,0,1.1265306,150.37288,81.086051)"
       id="linear-gradient-15"
       x1="86.57"
       y1="231.42"
       x2="72.309998"
       y2="269.89001"
       xlink:href="#linear-gradient-1" />
    <linearGradient
       gradientTransform="matrix(1.422384,0,0,1.1265306,150.37288,81.086051)"
       id="linear-gradient-16"
       x1="95.769997"
       y1="231.42"
       x2="81.5"
       y2="269.89001"
       xlink:href="#linear-gradient-1" />
    <linearGradient
       gradientTransform="matrix(1.422384,0,0,1.1265306,150.37288,81.086051)"
       id="linear-gradient-17"
       x1="124.67"
       y1="231.42"
       x2="110.41"
       y2="269.89001"
       xlink:href="#linear-gradient-1" />
    <linearGradient
       gradientTransform="matrix(1.422384,0,0,1.1265306,150.37288,81.086051)"
       id="linear-gradient-18"
       x1="133.87"
       y1="231.42"
       x2="119.61"
       y2="269.89001"
       xlink:href="#linear-gradient-1" />
    <linearGradient
       gradientTransform="matrix(1.422384,0,0,1.1265306,150.37288,81.086051)"
       id="linear-gradient-19"
       x1="143.07001"
       y1="231.42"
       x2="128.8"
       y2="269.89001"
       xlink:href="#linear-gradient-1" />
    <linearGradient
       gradientTransform="matrix(1.422384,0,0,1.1265306,150.37288,81.086051)"
       id="linear-gradient-20"
       x1="188.58"
       y1="231.42"
       x2="174.32001"
       y2="269.89001"
       xlink:href="#linear-gradient-1" />
    <linearGradient
       gradientTransform="matrix(1.422384,0,0,1.1265306,150.37288,81.086051)"
       id="linear-gradient-21"
       x1="197.78"
       y1="231.42"
       x2="183.50999"
       y2="269.89001"
       xlink:href="#linear-gradient-1" />
    <linearGradient
       gradientTransform="matrix(1.422384,0,0,1.1265306,150.37288,81.086051)"
       id="linear-gradient-22"
       x1="206.98"
       y1="231.42"
       x2="192.71001"
       y2="269.89001"
       xlink:href="#linear-gradient-1" />
    <linearGradient
       gradientTransform="matrix(1.422384,0,0,1.1265306,150.37288,81.086051)"
       id="linear-gradient-23"
       x1="235.88"
       y1="231.42"
       x2="221.62"
       y2="269.89001"
       xlink:href="#linear-gradient-1" />
    <linearGradient
       gradientTransform="matrix(1.422384,0,0,1.1265306,150.37288,81.086051)"
       id="linear-gradient-24"
       x1="245.08"
       y1="231.42"
       x2="230.81"
       y2="269.89001"
       xlink:href="#linear-gradient-1" />
    <linearGradient
       gradientTransform="matrix(1.422384,0,0,1.1265306,150.37288,81.086051)"
       id="linear-gradient-25"
       x1="254.28"
       y1="231.42"
       x2="240.00999"
       y2="269.89001"
       xlink:href="#linear-gradient-1" />
    <linearGradient
       gradientTransform="matrix(1.422384,0,0,1.1265306,61.786806,81.119847)"
       id="linear-gradient-26"
       x1="240.06"
       y1="36.52"
       x2="124.25"
       y2="97.519997"
       xlink:href="#linear-gradient-1" />
    <linearGradient
       gradientTransform="matrix(1.422384,0,0,1.1265306,61.786806,81.119847)"
       id="linear-gradient-27"
       x1="174.17999"
       y1="55.740002"
       x2="76.57"
       y2="107.16"
       xlink:href="#linear-gradient-1" />
    <linearGradient
       gradientTransform="matrix(1.422384,0,0,1.1265306,150.37288,81.086051)"
       id="linear-gradient-28"
       x1="101.63"
       y1="524.89001"
       x2="108.39"
       y2="-149.12"
       xlink:href="#linear-gradient-1" />
    <linearGradient
       gradientTransform="matrix(1.422384,0,0,1.1265306,150.37288,81.086051)"
       id="linear-gradient-29"
       x1="102.04"
       y1="524.89001"
       x2="108.8"
       y2="-149.12"
       xlink:href="#linear-gradient-1" />
    <linearGradient
       gradientTransform="matrix(1.422384,0,0,1.1265306,150.37288,81.086051)"
       id="linear-gradient-30"
       x1="102.45"
       y1="524.89001"
       x2="109.21"
       y2="-149.11"
       xlink:href="#linear-gradient-1" />
    <linearGradient
       gradientTransform="matrix(1.422384,0,0,1.1265306,150.37288,81.086051)"
       id="linear-gradient-31"
       x1="210.85001"
       y1="525.97998"
       x2="217.61"
       y2="-148.03"
       xlink:href="#linear-gradient-1" />
    <linearGradient
       gradientTransform="matrix(1.422384,0,0,1.1265306,150.37288,81.086051)"
       id="linear-gradient-32"
       x1="211.27"
       y1="525.97998"
       x2="218.03"
       y2="-148.02"
       xlink:href="#linear-gradient-1" />
    <linearGradient
       gradientTransform="matrix(1.422384,0,0,1.1265306,150.37288,81.086051)"
       id="linear-gradient-33"
       x1="211.67999"
       y1="525.98999"
       x2="218.44"
       y2="-148.02"
       xlink:href="#linear-gradient-1" />
    <linearGradient
       gradientTransform="matrix(1.422384,0,0,1.1265306,61.786806,81.119847)"
       id="linear-gradient-34"
       x1="167.49001"
       y1="91.559998"
       x2="166.92999"
       y2="310.04001"
       xlink:href="#linear-gradient-1" />
    <linearGradient
       gradientTransform="matrix(1.422384,0,0,1.1265306,61.786806,81.119847)"
       id="linear-gradient-35"
       x1="276.73001"
       y1="91.559998"
       x2="276.17001"
       y2="310.04001"
       xlink:href="#linear-gradient-1" />
    <linearGradient
       gradientTransform="matrix(1.422384,0,0,1.1265306,61.786806,81.119847)"
       id="linear-gradient-36"
       x1="167.49001"
       y1="132.85001"
       x2="166.92999"
       y2="351.32999"
       xlink:href="#linear-gradient-1" />
    <linearGradient
       gradientTransform="matrix(1.422384,0,0,1.1265306,61.786806,81.119847)"
       id="linear-gradient-37"
       x1="276.73001"
       y1="132.85001"
       x2="276.17001"
       y2="351.32999"
       xlink:href="#linear-gradient-1" />
    <linearGradient
       gradientTransform="matrix(1.422384,0,0,1.1265306,61.786806,81.119847)"
       id="linear-gradient-38"
       x1="167.49001"
       y1="174.14999"
       x2="166.92999"
       y2="392.62"
       xlink:href="#linear-gradient-1" />
    <linearGradient
       gradientTransform="matrix(1.422384,0,0,1.1265306,61.786806,81.119847)"
       id="linear-gradient-39"
       x1="276.73001"
       y1="174.14999"
       x2="276.17001"
       y2="392.62"
       xlink:href="#linear-gradient-1" />
    <linearGradient
       gradientTransform="matrix(1.422384,0,0,1.1265306,61.786806,81.119847)"
       y2="546.97998"
       x2="230.3"
       y1="101.03"
       x1="219.03999"
       gradientUnits="userSpaceOnUse"
       id="linearGradient5543"
       xlink:href="#linear-gradient-1"
       inkscape:collect="always" />
  </defs>
  <title
     id="title2800">Data Center</title>
  <path
     inkscape:connector-curvature="0"
     d="m 526.6076,146.45862 c -2.7452,-29.36866 -31.53418,-56.044902 -67.74808,-62.759024 -32.71483,-6.072 -66.85204,2.962776 -100.36341,0.935021 -13.01482,-0.799837 -25.81627,-3.255674 -38.85953,-3.514776 a 93.507524,74.058119 0 0 0 -74.77473,27.892899 c -20.85215,21.05486 -35.14711,47.1453 -38.75996,73.76522 -10.86702,81.67347 -49.28561,102.0862 -53.90836,125.38285 -17.86514,89.91967 98.77035,131.8942 191.36755,135.60048 84.47538,3.3796 197.36993,-38.93289 211.5511,-53.29616 20.53922,-20.78448 14.56521,-72.94285 5.36239,-98.30105 -7.36795,-20.27755 -18.7897,-40.5551 -20.96594,-61.824 -1.80643,-17.6302 0.2987,-28.02808 -8.46319,-45.4893 -6.11625,-12.18906 -3.24303,-25.6511 -4.43784,-38.39216 z"
     style="opacity:0.23999999;isolation:isolate;fill:#fd6868;stroke-width:1.26584327"
     id="path4502" />
  <path
     inkscape:connector-curvature="0"
     style="fill:#fd6868;stroke-width:1.26584327"
     d="m 534.55873,216.65273 a 55.899691,44.272651 0 0 1 -55.91384,44.29519 H 269.55444 a 55.899691,44.272651 0 0 1 -2.7452,-88.50024 53.851458,42.650447 0 0 1 52.9838,-35.29421 h 7.18304 a 54.050592,42.808161 0 0 1 34.26523,9.73323 64.675801,51.223344 0 0 1 124.87109,18.72293 47.26582,37.43461 0 0 1 -0.75386,7.11968 55.885468,44.261386 0 0 1 49.20019,43.92342 z"
     id="path4504" />
  <path
     inkscape:connector-curvature="0"
     style="fill:url(#linearGradient5543);stroke-width:1.26584327"
     d="m 534.55873,216.65273 a 55.899691,44.272651 0 0 1 -55.91384,44.29519 H 269.55444 a 55.899691,44.272651 0 0 1 -2.7452,-88.50024 53.851458,42.650447 0 0 1 52.9838,-35.29421 h 7.18304 a 54.050592,42.808161 0 0 1 34.26523,9.73323 64.675801,51.223344 0 0 1 124.87109,18.72293 47.26582,37.43461 0 0 1 -0.75386,7.11968 55.885468,44.261386 0 0 1 49.20019,43.92342 z"
     id="path4506" />
  <path
     inkscape:connector-curvature="0"
     style="fill:#ffffff;stroke-width:1.26584327"
     d="m 533.76219,203.91167 a 52.372179,41.478855 0 0 1 -16.25784,30.02204 56.397526,44.666937 0 0 1 -39.27196,12.39184 H 270.56433 c -30.70927,0 -55.61522,-18.95951 -55.61522,-42.44767 a 52.528641,41.602773 0 0 1 16.25785,-30.02204 56.212616,44.520488 0 0 1 36.64062,-12.39184 50.52308,40.014365 0 0 1 14.89236,-21.76457 54.192831,42.920814 0 0 1 37.76429,-11.99755 h 7.11192 a 54.790232,43.393957 0 0 1 34.0092,9.33894 c 9.30239,-18.23853 32.50148,-31.1711 59.74013,-31.1711 35.5596,0 64.26331,21.97861 64.26331,49.128 a 43.567622,34.505631 0 0 1 -0.75386,6.82677 c 27.56573,2.51217 48.88726,20.39021 48.88726,42.08718 z"
     id="path4508" />
  <rect
     style="fill:url(#linear-gradient-2-0);stroke-width:1.26584327"
     x="248.09068"
     y="207.98975"
     width="6.4007282"
     height="21.561794"
     rx="3.2003641"
     id="rect4510" />
  <rect
     style="fill:url(#linear-gradient-3-6);stroke-width:1.26584327"
     x="261.17661"
     y="207.98975"
     width="6.4007282"
     height="21.561794"
     rx="3.2003641"
     id="rect4512" />
  <rect
     style="fill:url(#linear-gradient-4-1);stroke-width:1.26584327"
     x="274.26248"
     y="207.98975"
     width="6.4007282"
     height="21.561794"
     rx="3.2003641"
     id="rect4514" />
  <rect
     style="fill:url(#linear-gradient-5-8);stroke-width:1.26584327"
     x="315.36942"
     y="207.98975"
     width="6.4007282"
     height="21.561794"
     rx="3.2003641"
     id="rect4516" />
  <rect
     style="fill:url(#linear-gradient-6-1);stroke-width:1.26584327"
     x="328.45535"
     y="207.98975"
     width="6.4007282"
     height="21.561794"
     rx="3.2003641"
     id="rect4518" />
  <rect
     style="fill:url(#linear-gradient-7-1);stroke-width:1.26584327"
     x="341.54132"
     y="207.98975"
     width="6.4007282"
     height="21.561794"
     rx="3.2003641"
     id="rect4520" />
  <rect
     style="fill:url(#linear-gradient-8-1);stroke-width:1.26584327"
     x="406.27402"
     y="207.98975"
     width="6.4007282"
     height="21.561794"
     rx="3.2003641"
     id="rect4522" />
  <rect
     style="fill:url(#linear-gradient-9-3);stroke-width:1.26584327"
     x="419.35989"
     y="207.98975"
     width="6.4007282"
     height="21.561794"
     rx="3.2003641"
     id="rect4524" />
  <rect
     style="fill:url(#linear-gradient-10-7);stroke-width:1.26584327"
     x="432.44583"
     y="207.98975"
     width="6.4007282"
     height="21.561794"
     rx="3.2003641"
     id="rect4526" />
  <rect
     style="fill:url(#linear-gradient-11-0);stroke-width:1.26584327"
     x="473.55276"
     y="207.98975"
     width="6.4007282"
     height="21.561794"
     rx="3.2003641"
     id="rect4528" />
  <rect
     style="fill:url(#linear-gradient-12-2);stroke-width:1.26584327"
     x="486.6387"
     y="207.98975"
     width="6.4007282"
     height="21.561794"
     rx="3.2003641"
     id="rect4530" />
  <rect
     style="fill:url(#linear-gradient-13);stroke-width:1.26584327"
     x="499.72458"
     y="207.98975"
     width="6.4007282"
     height="21.561794"
     rx="3.2003641"
     id="rect4532" />
  <rect
     style="fill:url(#linear-gradient-14);stroke-width:1.26584327"
     x="248.09068"
     y="350.49582"
     width="6.4007282"
     height="21.561794"
     rx="3.2003641"
     id="rect4534" />
  <rect
     style="fill:url(#linear-gradient-15);stroke-width:1.26584327"
     x="261.17661"
     y="350.49582"
     width="6.4007282"
     height="21.561794"
     rx="3.2003641"
     id="rect4536" />
  <rect
     style="fill:url(#linear-gradient-16);stroke-width:1.26584327"
     x="274.26248"
     y="350.49582"
     width="6.4007282"
     height="21.561794"
     rx="3.2003641"
     id="rect4538" />
  <rect
     style="fill:url(#linear-gradient-17);stroke-width:1.26584327"
     x="315.36942"
     y="350.49582"
     width="6.4007282"
     height="21.561794"
     rx="3.2003641"
     id="rect4540" />
  <rect
     style="fill:url(#linear-gradient-18);stroke-width:1.26584327"
     x="328.45535"
     y="350.49582"
     width="6.4007282"
     height="21.561794"
     rx="3.2003641"
     id="rect4542" />
  <rect
     style="fill:url(#linear-gradient-19);stroke-width:1.26584327"
     x="341.54132"
     y="350.49582"
     width="6.4007282"
     height="21.561794"
     rx="3.2003641"
     id="rect4544" />
  <rect
     style="fill:url(#linear-gradient-20);stroke-width:1.26584327"
     x="406.27402"
     y="350.49582"
     width="6.4007282"
     height="21.561794"
     rx="3.2003641"
     id="rect4546" />
  <rect
     style="fill:url(#linear-gradient-21);stroke-width:1.26584327"
     x="419.35989"
     y="350.49582"
     width="6.4007282"
     height="21.561794"
     rx="3.2003641"
     id="rect4548" />
  <rect
     style="fill:url(#linear-gradient-22);stroke-width:1.26584327"
     x="432.44583"
     y="350.49582"
     width="6.4007282"
     height="21.561794"
     rx="3.2003641"
     id="rect4550" />
  <rect
     style="fill:url(#linear-gradient-23);stroke-width:1.26584327"
     x="473.55276"
     y="350.49582"
     width="6.4007282"
     height="21.561794"
     rx="3.2003641"
     id="rect4552" />
  <rect
     style="fill:url(#linear-gradient-24);stroke-width:1.26584327"
     x="486.6387"
     y="350.49582"
     width="6.4007282"
     height="21.561794"
     rx="3.2003641"
     id="rect4554" />
  <rect
     style="fill:url(#linear-gradient-25);stroke-width:1.26584327"
     x="499.72458"
     y="350.49582"
     width="6.4007282"
     height="21.561794"
     rx="3.2003641"
     id="rect4556" />
  <path
     inkscape:connector-curvature="0"
     style="fill:url(#linear-gradient-26);stroke-width:1.26584327"
     d="m 361.6538,137.04082 14.59366,11.95249 c 0,0 9.07481,-43.08979 66.21198,-40.17208 0,0 -53.76612,-15.02792 -80.80564,28.21959 z"
     id="path4558" />
  <path
     inkscape:connector-curvature="0"
     style="fill:url(#linear-gradient-27);stroke-width:1.26584327"
     d="m 267.89025,161.53159 c 0,0 10.3834,-0.90122 20.25475,8.6067 0,0 2.13357,-38.48229 43.38271,-39.11314 0,0 -16.89792,-8.55037 -40.43838,3.49224 -21.09395,10.81469 -23.19908,27.0142 -23.19908,27.0142 z"
     id="path4560" />
  <rect
     style="fill:#fd6868;stroke-width:1.26584327"
     x="228.604"
     y="229.39378"
     width="143.36209"
     height="38.572407"
     rx="15.74579"
     id="rect4562" />
  <rect
     style="fill:#fd6868;stroke-width:1.26584327"
     x="228.604"
     y="275.97583"
     width="143.36209"
     height="38.572407"
     rx="15.74579"
     id="rect4564" />
  <rect
     style="fill:#fd6868;stroke-width:1.26584327"
     x="228.604"
     y="322.07346"
     width="143.36209"
     height="38.572407"
     rx="15.74579"
     id="rect4566" />
  <rect
     style="fill:#fd6868;stroke-width:1.26584327"
     x="383.9852"
     y="229.39378"
     width="143.36209"
     height="38.572407"
     rx="15.74579"
     id="rect4568" />
  <rect
     style="fill:#fd6868;stroke-width:1.26584327"
     x="383.9852"
     y="275.97583"
     width="143.36209"
     height="38.572407"
     rx="15.74579"
     id="rect4570" />
  <rect
     style="fill:#fd6868;stroke-width:1.26584327"
     x="383.9852"
     y="322.07346"
     width="143.36209"
     height="38.572407"
     rx="15.74579"
     id="rect4572" />
  <rect
     style="fill:url(#linear-gradient-28);stroke-width:1.26584327"
     x="228.604"
     y="229.39378"
     width="143.36209"
     height="38.572407"
     rx="15.74579"
     id="rect4574" />
  <rect
     style="fill:url(#linear-gradient-29);stroke-width:1.26584327"
     x="228.604"
     y="275.97583"
     width="143.36209"
     height="38.572407"
     rx="15.74579"
     id="rect4576" />
  <rect
     style="fill:url(#linear-gradient-30);stroke-width:1.26584327"
     x="228.604"
     y="322.07346"
     width="143.36209"
     height="38.572407"
     rx="15.74579"
     id="rect4578" />
  <rect
     style="fill:url(#linear-gradient-31);stroke-width:1.26584327"
     x="383.9852"
     y="229.39378"
     width="143.36209"
     height="38.572407"
     rx="15.74579"
     id="rect4580" />
  <rect
     style="fill:url(#linear-gradient-32);stroke-width:1.26584327"
     x="383.9852"
     y="275.97583"
     width="143.36209"
     height="38.572407"
     rx="15.74579"
     id="rect4582" />
  <rect
     style="fill:url(#linear-gradient-33);stroke-width:1.26584327"
     x="383.9852"
     y="322.07346"
     width="143.36209"
     height="38.572407"
     rx="15.74579"
     id="rect4584" />
  <rect
     style="fill:#fd6868;stroke-width:1.26584327"
     x="228.94536"
     y="221.67708"
     width="143.36209"
     height="38.572407"
     rx="15.74579"
     id="rect4586" />
  <rect
     style="fill:#fd6868;stroke-width:1.26584327"
     x="228.94536"
     y="268.25906"
     width="143.36209"
     height="38.572407"
     rx="15.74579"
     id="rect4588" />
  <rect
     style="fill:#fd6868;stroke-width:1.26584327"
     x="228.94536"
     y="314.35672"
     width="143.36209"
     height="38.572407"
     rx="15.74579"
     id="rect4590" />
  <rect
     style="fill:#fd6868;stroke-width:1.26584327"
     x="384.32657"
     y="221.67708"
     width="143.36209"
     height="38.572407"
     rx="15.74579"
     id="rect4592" />
  <rect
     style="fill:#fd6868;stroke-width:1.26584327"
     x="384.32657"
     y="268.25906"
     width="143.36209"
     height="38.572407"
     rx="15.74579"
     id="rect4594" />
  <rect
     style="fill:#fd6868;stroke-width:1.26584327"
     x="384.32657"
     y="314.35672"
     width="143.36209"
     height="38.572407"
     rx="15.74579"
     id="rect4596" />
  <path
     inkscape:connector-curvature="0"
     style="fill:url(#linear-gradient-34);stroke-width:1.26584327"
     d="M 228.61823,241.86449 H 371.58204 V 231.568 c 0,0 -0.79653,-8.67429 -15.02037,-9.89094 H 242.23044 c 0,0 -17.22507,3.22188 -13.61221,20.18743 z"
     id="path4598" />
  <path
     inkscape:connector-curvature="0"
     style="fill:url(#linear-gradient-35);stroke-width:1.26584327"
     d="M 383.98523,241.86449 H 526.9063 V 231.568 c 0,0 -0.78231,-8.67429 -15.00615,-9.89094 H 397.61167 c 0,0 -17.21085,3.22188 -13.62644,20.18743 z"
     id="path4600" />
  <path
     inkscape:connector-curvature="0"
     style="fill:url(#linear-gradient-36);stroke-width:1.26584327"
     d="m 228.61823,288.40147 h 142.96381 v -10.30776 c 0,0 -0.79653,-8.67428 -15.02037,-9.89094 H 242.23044 c 0,0 -17.22507,3.21061 -13.61221,20.1987 z"
     id="path4602" />
  <path
     inkscape:connector-curvature="0"
     style="fill:url(#linear-gradient-37);stroke-width:1.26584327"
     d="M 383.98523,288.40147 H 526.9063 v -10.30776 c 0,0 -0.78231,-8.67428 -15.00615,-9.89094 H 397.61167 c 0,0 -17.21085,3.21061 -13.62644,20.1987 z"
     id="path4604" />
  <path
     inkscape:connector-curvature="0"
     style="fill:url(#linear-gradient-38);stroke-width:1.26584327"
     d="m 228.61823,334.90465 h 142.96381 v -10.30776 c 0,0 -0.79653,-8.67428 -15.02037,-9.87967 H 242.23044 c 0,0 -17.22507,3.21061 -13.61221,20.18743 z"
     id="path4606" />
  <path
     inkscape:connector-curvature="0"
     style="fill:url(#linear-gradient-39);stroke-width:1.26584327"
     d="M 383.98523,334.90465 H 526.9063 v -10.30776 c 0,0 -0.78231,-8.67428 -15.00615,-9.87967 H 397.61167 c 0,0 -17.21085,3.21061 -13.62644,20.18743 z"
     id="path4608" />
  <ellipse
     style="fill:#ffffff;stroke-width:1.26584327"
     cx="310.50488"
     cy="241.23363"
     id="circle4610"
     rx="5.0067916"
     ry="3.9653876" />
  <ellipse
     style="fill:#ffffff;stroke-width:1.26584327"
     cx="324.65762"
     cy="241.23363"
     id="circle4612"
     rx="5.0067916"
     ry="3.9653876" />
  <ellipse
     style="fill:#ffffff;stroke-width:1.26584327"
     cx="338.79611"
     cy="241.23363"
     id="circle4614"
     rx="5.0067916"
     ry="3.9653876" />
  <ellipse
     style="fill:#ffffff;stroke-width:1.26584327"
     cx="477.62076"
     cy="241.23363"
     id="circle4616"
     rx="5.0067916"
     ry="3.9653876" />
  <ellipse
     style="fill:#ffffff;stroke-width:1.26584327"
     cx="491.7735"
     cy="241.23363"
     id="circle4618"
     rx="5.0067916"
     ry="3.9653876" />
  <ellipse
     style="fill:#ffffff;stroke-width:1.26584327"
     cx="505.92624"
     cy="241.23363"
     id="circle4620"
     rx="5.0067916"
     ry="3.9653876" />
  <ellipse
     style="fill:#ffffff;stroke-width:1.26584327"
     cx="310.50488"
     cy="288.54791"
     id="circle4622"
     rx="5.0067916"
     ry="3.9653876" />
  <ellipse
     style="fill:#ffffff;stroke-width:1.26584327"
     cx="324.65762"
     cy="288.54791"
     id="circle4624"
     rx="5.0067916"
     ry="3.9653876" />
  <ellipse
     style="fill:#ffffff;stroke-width:1.26584327"
     cx="338.79611"
     cy="288.54791"
     id="circle4626"
     rx="5.0067916"
     ry="3.9653876" />
  <ellipse
     style="fill:#ffffff;stroke-width:1.26584327"
     cx="477.62076"
     cy="288.54791"
     id="circle4628"
     rx="5.0067916"
     ry="3.9653876" />
  <ellipse
     style="fill:#ffffff;stroke-width:1.26584327"
     cx="491.7735"
     cy="288.54791"
     id="circle4630"
     rx="5.0067916"
     ry="3.9653876" />
  <ellipse
     style="fill:#ffffff;stroke-width:1.26584327"
     cx="505.92624"
     cy="288.54791"
     id="circle4632"
     rx="5.0067916"
     ry="3.9653876" />
  <ellipse
     style="fill:#ffffff;stroke-width:1.26584327"
     cx="310.50488"
     cy="335.86218"
     id="circle4634"
     rx="5.0067916"
     ry="3.9653876" />
  <ellipse
     style="fill:#ffffff;stroke-width:1.26584327"
     cx="324.65762"
     cy="335.86218"
     id="circle4636"
     rx="5.0067916"
     ry="3.9653876" />
  <ellipse
     style="fill:#ffffff;stroke-width:1.26584327"
     cx="338.79611"
     cy="335.86218"
     id="circle4638"
     rx="5.0067916"
     ry="3.9653876" />
  <ellipse
     style="fill:#ffffff;stroke-width:1.26584327"
     cx="477.62076"
     cy="335.86218"
     id="circle4640"
     rx="5.0067916"
     ry="3.9653876" />
  <ellipse
     style="fill:#ffffff;stroke-width:1.26584327"
     cx="491.7735"
     cy="335.86218"
     id="circle4642"
     rx="5.0067916"
     ry="3.9653876" />
  <ellipse
     style="fill:#ffffff;stroke-width:1.26584327"
     cx="505.92624"
     cy="335.86218"
     id="circle4644"
     rx="5.0067916"
     ry="3.9653876" />
</svg>
