<?xml version="1.0" encoding="UTF-8" standalone="no"?>
<svg
   xmlns:dc="http://purl.org/dc/elements/1.1/"
   xmlns:cc="http://creativecommons.org/ns#"
   xmlns:rdf="http://www.w3.org/1999/02/22-rdf-syntax-ns#"
   xmlns:svg="http://www.w3.org/2000/svg"
   xmlns="http://www.w3.org/2000/svg"
   xmlns:xlink="http://www.w3.org/1999/xlink"
   xmlns:sodipodi="http://sodipodi.sourceforge.net/DTD/sodipodi-0.dtd"
   xmlns:inkscape="http://www.inkscape.org/namespaces/inkscape"
   id="Layer_1"
   data-name="Layer 1"
   width="600"
   height="450"
   viewBox="0 0 600 450.00001"
   version="1.1"
   sodipodi:docname="pointing.svg"
   inkscape:version="0.92.4 (5da689c313, 2019-01-14)">
  <metadata
     id="metadata2909">
    <rdf:RDF>
      <cc:Work
         rdf:about="">
        <dc:format>image/svg+xml</dc:format>
        <dc:type
           rdf:resource="http://purl.org/dc/dcmitype/StillImage" />
        <dc:title>Data Center</dc:title>
      </cc:Work>
    </rdf:RDF>
  </metadata>
  <sodipodi:namedview
     pagecolor="#ffffff"
     bordercolor="#666666"
     borderopacity="1"
     objecttolerance="10"
     gridtolerance="10"
     guidetolerance="10"
     inkscape:pageopacity="0"
     inkscape:pageshadow="2"
     inkscape:window-width="1920"
     inkscape:window-height="1017"
     id="namedview2907"
     showgrid="false"
     inkscape:zoom="0.49074652"
     inkscape:cx="252.295"
     inkscape:cy="240.45"
     inkscape:window-x="-8"
     inkscape:window-y="-8"
     inkscape:window-maximized="1"
     inkscape:current-layer="Layer_1" />
  <defs
     id="defs2798">
    <linearGradient
       id="linear-gradient"
       x1="254.00999"
       y1="304.13"
       x2="226.78"
       y2="268.19"
       gradientUnits="userSpaceOnUse">
      <stop
         offset="0"
         stop-opacity="0"
         id="stop2770" />
      <stop
         offset="0.99"
         id="stop2772" />
    </linearGradient>
    <linearGradient
       id="linear-gradient-2"
       x1="243.75"
       y1="329.23001"
       x2="305.38"
       y2="335.59"
       xlink:href="#linear-gradient" />
    <linearGradient
       id="linear-gradient-3"
       x1="121.74"
       y1="108.66"
       x2="461.85001"
       y2="108.66"
       xlink:href="#linear-gradient" />
    <linearGradient
       id="linear-gradient-4"
       x1="288.59"
       y1="-46.130001"
       x2="314.01999"
       y2="415.98999"
       xlink:href="#linear-gradient" />
    <linearGradient
       id="linear-gradient-5"
       x1="133.89999"
       y1="403.66"
       x2="133.89999"
       y2="440.51001"
       gradientUnits="userSpaceOnUse">
      <stop
         offset="0"
         stop-opacity="0"
         id="stop2778" />
      <stop
         offset="0.41"
         stop-opacity="0.41"
         id="stop2780" />
      <stop
         offset="0.99"
         id="stop2782" />
    </linearGradient>
    <linearGradient
       id="linear-gradient-6"
       x1="310.64001"
       y1="392.64001"
       x2="311.75"
       y2="413.10001"
       xlink:href="#linear-gradient-5" />
    <linearGradient
       id="linear-gradient-7"
       x1="209.45"
       y1="234.78"
       x2="208.09"
       y2="196"
       xlink:href="#linear-gradient" />
    <linearGradient
       id="linear-gradient-8"
       x1="241.07001"
       y1="323.5"
       x2="270.67001"
       y2="323.5"
       gradientUnits="userSpaceOnUse">
      <stop
         offset="0"
         stop-color="#ecc4d7"
         id="stop2787" />
      <stop
         offset="0.42"
         stop-color="#efd4d1"
         id="stop2789" />
      <stop
         offset="1"
         stop-color="#f2eac9"
         id="stop2791" />
    </linearGradient>
    <linearGradient
       id="linear-gradient-9"
       x1="268.51999"
       y1="330.48999"
       x2="253.32001"
       y2="213.3"
       xlink:href="#linear-gradient" />
    <linearGradient
       id="linear-gradient-10"
       x1="236.72"
       y1="274.73001"
       x2="248.97"
       y2="274.73001"
       xlink:href="#linear-gradient-8" />
    <linearGradient
       id="linear-gradient-11"
       x1="255.75"
       y1="294.67999"
       x2="262.35999"
       y2="294.67999"
       xlink:href="#linear-gradient-8" />
    <linearGradient
       id="linear-gradient-12"
       x1="254.41"
       y1="283.76001"
       x2="266.78"
       y2="283.76001"
       xlink:href="#linear-gradient-8" />
    <linearGradient
       inkscape:collect="always"
       xlink:href="#linear-gradient"
       id="linearGradient3454"
       gradientUnits="userSpaceOnUse"
       x1="254.00999"
       y1="304.13"
       x2="226.78"
       y2="268.19" />
    <linearGradient
       inkscape:collect="always"
       xlink:href="#linear-gradient-5"
       id="linearGradient3456"
       gradientUnits="userSpaceOnUse"
       x1="133.89999"
       y1="403.66"
       x2="133.89999"
       y2="440.51001" />
    <linearGradient
       inkscape:collect="always"
       xlink:href="#linear-gradient-8"
       id="linearGradient3458"
       gradientUnits="userSpaceOnUse"
       x1="241.07001"
       y1="323.5"
       x2="270.67001"
       y2="323.5" />
  </defs>
  <title
     id="title2800">Data Center</title>
  <g
     id="g2904"
     transform="matrix(0.88288858,0,0,0.84323344,120.2246,13.923754)">
    <path
       d="m 56.51,142.24 c -49.12,122.23 -6.28,194 -2.17,212.61 6.22,28.25 45.75,154.83 193.74,121.32 30.59,-6.93 76.47,-29.23 107.76,-31.41 26.43,-1.85 52.42,6.33 78.75,9.27 26.33,2.94 56.17,-0.89 73.3,-21.09 15.05,-17.76 16.24,-43.44 12.86,-66.48 -3.38,-23.04 -10.56,-45.77 -9.51,-69 1,-21.16 8.69,-41.33 14.36,-61.74 8.46,-30.45 12.41,-62.88 5.28,-93.66 -7.13,-30.78 -26.57,-59.75 -55.27,-73 C 420,43.4 351,82.11 294.41,58.55 c -31,-12.9 -191.74,-31.2 -237.9,83.69 z"
       transform="translate(-33.12,-0.87)"
       style="opacity:0.18000004;isolation:isolate;fill:#fd6868"
       id="path2802"
       inkscape:connector-curvature="0" />
    <path
       d="m 267.22,271.7 a 3.85,3.85 0 0 0 -0.66,-2.3 1.75,1.75 0 0 0 -2.16,-0.54 c -0.39,0.23 -0.65,0.66 -1.06,0.87 -0.41,0.21 -1.09,-0.08 -0.95,-0.52 -1.87,0.29 -3.18,1.92 -4.78,2.92 -1.27,0.78 -2.75,1.18 -4,1.94 -1.25,0.76 -2.42,2.11 -2.26,3.59 a 5.34,5.34 0 0 1 0.16,1.42 4.83,4.83 0 0 1 -0.38,0.95 4.27,4.27 0 0 0 0.37,3.32 c 0.5,1 1.19,2 1.6,3 a 23.68,23.68 0 0 0 1.1,3.2 c 0.56,1 1.79,1.74 2.81,1.25 -0.85,-1.3 -0.32,-3 0.29,-4.47 1,-2.3 2.15,-4.68 4.28,-6 a 8.15,8.15 0 0 0 2.32,-1.62 19.57,19.57 0 0 0 1.16,-1.92 c 1.11,-1.68 2.2,-2.85 2.16,-5.09 z"
       transform="translate(-33.12,-0.87)"
       id="path2804"
       inkscape:connector-curvature="0"
       style="fill:#3f3d56" />
    <path
       d="m 248.05,287.13 a 3.63,3.63 0 0 0 -1,-1 c -1.23,-0.71 -2.74,0.22 -3.82,1.14 a 52.16,52.16 0 0 0 -4.22,4.06 3.59,3.59 0 0 0 -1.01,1.67 3.4,3.4 0 0 0 0.29,1.8 25.47,25.47 0 0 0 7.06,10.24 3.28,3.28 0 0 0 1.75,0.94 3.4,3.4 0 0 0 1.84,-0.54 l 7.83,-4 c 1.42,-0.73 3.11,-1.83 2.49,-3.7 -0.41,-1.21 -1.7,-1.62 -2.67,-2.31 a 41.64,41.64 0 0 1 -8.54,-8.3 z"
       transform="translate(-33.12,-0.87)"
       id="path2806"
       inkscape:connector-curvature="0"
       style="fill:#fd6868" />
    <path
       d="m 248.05,287.22 a 3.6,3.6 0 0 0 -1,-1 c -1.23,-0.71 -2.74,0.21 -3.82,1.13 a 52.16,52.16 0 0 0 -4.23,4.05 3.63,3.63 0 0 0 -1.05,1.7 3.45,3.45 0 0 0 0.29,1.81 25.51,25.51 0 0 0 7.06,10.23 3.3,3.3 0 0 0 1.75,0.95 3.5,3.5 0 0 0 1.84,-0.55 l 7.83,-4 c 1.42,-0.73 3.11,-1.83 2.49,-3.7 -0.41,-1.2 -1.7,-1.61 -2.67,-2.31 a 41.39,41.39 0 0 1 -8.49,-8.31 z"
       transform="translate(-33.12,-0.87)"
       id="path2808"
       inkscape:connector-curvature="0"
       style="fill:url(#linearGradient3454)" />
    <path
       d="m 266.61,306.11 c 0.95,3.95 0.66,8.07 0.36,12.12 -0.89,12.3 -1.81,24.74 -5.66,36.45 -1,3.11 -2.38,6.32 -5,8.22 -4.33,3.09 -10.84,1.39 -14.27,-2.67 -3.43,-4.06 -4.27,-9.76 -3.82,-15.06 0.45,-5.3 2,-10.43 2.93,-15.67 1.49,-8.82 0,-22.68 6.07,-30 6.48,-7.88 17.39,-1.79 19.39,6.61 z"
       transform="translate(-33.12,-0.87)"
       id="path2810"
       inkscape:connector-curvature="0"
       style="fill:#fd6868" />
    <path
       d="m 266.61,306.11 c 0.95,3.95 0.66,8.07 0.36,12.12 -0.89,12.3 -1.81,24.74 -5.66,36.45 -1,3.11 -2.38,6.32 -5,8.22 -4.33,3.09 -10.84,1.39 -14.27,-2.67 -3.43,-4.06 -4.27,-9.76 -3.82,-15.06 0.45,-5.3 2,-10.43 2.93,-15.67 1.49,-8.82 0,-22.68 6.07,-30 6.48,-7.88 17.39,-1.79 19.39,6.61 z"
       transform="translate(-33.12,-0.87)"
       id="path2812"
       inkscape:connector-curvature="0"
       style="fill:url(#linear-gradient-2)" />
    <path
       d="m 260.55,356.72 a 35.06,35.06 0 0 0 -0.48,3.5 99.15,99.15 0 0 1 -7.49,21.7 c -1.55,3.24 -3.3,6.43 -4.24,9.9 -1.31,4.79 -1,9.88 -0.37,14.81 0.87,6.79 2.77,11.39 4.22,18.08 -1.18,0.82 -11.41,7.15 -12.85,7.33 -2.9,-1.94 5,-7.84 4.91,-8.85 -0.42,-5.18 -1,-6.47 -2.55,-10.93 -1.3,-3.85 -2.62,-7.7 -3.7,-11.61 a 38.38,38.38 0 0 1 -1.77,-11.91 46,46 0 0 1 1.39,-8.22 l 3.21,-13.92 -13,10 a 5.18,5.18 0 0 0 -1.51,1.55 5,5 0 0 0 -0.3,2.91 82.91,82.91 0 0 0 6.27,24.14 l -7.29,7.32 a 11.46,11.46 0 0 1 -4.47,3.17 c -1.2,-1.16 -0.63,-3.21 0.32,-4.58 0.95,-1.37 3.88,-3.39 4,-5.05 0.06,-0.73 -2.72,-4.83 -2.9,-5.53 -2.1,-8.44 -3.35,-12.77 -4.26,-21.42 a 22.66,22.66 0 0 1 0,-6.21 c 0.85,-4.71 4.23,-8.51 7.48,-12 4.9,-5.33 8.63,-9.6 12.8,-14.43 2,2.45 4.58,6.88 14.1,9.33 3.78,0.93 6.21,0.4 8.48,0.92 z"
       transform="translate(-33.12,-0.87)"
       id="path2814"
       inkscape:connector-curvature="0"
       style="fill:#3f3d56" />
    <path
       d="m 461.85,162.27 a 44.25,44.25 0 0 1 -44.23,44.23 h -91.48 a 40.53,40.53 0 0 1 -6,-0.43 59.6,59.6 0 0 1 -7.23,0.43 H 184.07 a 62.33,62.33 0 1 1 0,-124.65 h 25.38 A 81.3,81.3 0 0 1 369.78,76 h 7.88 a 40.85,40.85 0 0 1 40.86,40.84 c 0,0.41 0,0.82 0,1.21 a 44.21,44.21 0 0 1 43.33,44.22 z"
       transform="translate(-33.12,-0.87)"
       id="path2816"
       inkscape:connector-curvature="0"
       style="fill:url(#linear-gradient-3)" />
    <path
       d="m 451.9,152.32 a 44.25,44.25 0 0 1 -44.23,44.23 H 316.2 a 40.67,40.67 0 0 1 -6,-0.43 59.56,59.56 0 0 1 -7.22,0.43 H 174.12 a 62.33,62.33 0 1 1 0,-124.65 h 25.38 a 81.29,81.29 0 0 1 160.33,-5.85 h 7.88 a 40.85,40.85 0 0 1 40.86,40.83 c 0,0.42 0,0.83 0,1.22 a 44.22,44.22 0 0 1 43.33,44.22 z"
       transform="translate(-33.12,-0.87)"
       id="path2818"
       inkscape:connector-curvature="0"
       style="fill:#fd6868" />
    <path
       d="m 451.9,152.32 a 44.25,44.25 0 0 1 -44.23,44.23 H 316.2 a 40.67,40.67 0 0 1 -6,-0.43 59.56,59.56 0 0 1 -7.22,0.43 H 177.85 A 62.33,62.33 0 0 1 208.94,80.19 h 25.39 A 81.31,81.31 0 0 1 315,9.16 h 1 a 81.39,81.39 0 0 1 43.86,56.88 h 7.88 a 40.85,40.85 0 0 1 40.86,40.83 c 0,0.42 0,0.83 0,1.22 a 44.22,44.22 0 0 1 43.3,44.23 z"
       transform="translate(-33.12,-0.87)"
       id="path2820"
       inkscape:connector-curvature="0"
       style="fill:url(#linear-gradient-4)" />
    <path
       d="M 98.21,365.7 H 93.3 V 175.5 a 17.91,17.91 0 0 1 17.89,-17.88 h 31 v 4.91 h -31 a 13,13 0 0 0 -13,13 z"
       transform="translate(-33.12,-0.87)"
       id="path2822"
       inkscape:connector-curvature="0"
       style="fill:#fd6868" />
    <path
       d="m 500.63,365.7 h -4.9 V 175.5 a 13,13 0 0 0 -13,-13 h -31 v -4.91 h 31 a 17.9,17.9 0 0 1 17.88,17.88 z"
       transform="translate(-33.12,-0.87)"
       id="path2824"
       inkscape:connector-curvature="0"
       style="fill:#fd6868" />
    <rect
       x="419.45999"
       y="274.17999"
       width="85.129997"
       height="137.09"
       rx="19.41"
       id="rect2826"
       style="fill:#fd6868" />
    <path
       d="m 531.88,294.24 v 86.62 a 12.46,12.46 0 0 1 -12.46,12.46 H 470.57 A 12.46,12.46 0 0 1 458.1,380.86 v -86.62 a 12.48,12.48 0 0 1 12.47,-12.48 h 48.85 a 12.47,12.47 0 0 1 12.46,12.48 z"
       transform="translate(-33.12,-0.87)"
       id="path2828"
       inkscape:connector-curvature="0"
       style="fill:#ffffff" />
    <rect
       x="449.03"
       y="398.19"
       width="28.01"
       height="8.29"
       rx="4.1500001"
       id="rect2830"
       style="fill:#ffffff" />
    <rect
       x="17.040001"
       y="311.22"
       width="167.49001"
       height="96.18"
       rx="13.45"
       id="rect2832"
       style="fill:#fd6868" />
    <rect
       x="22.690001"
       y="315.92999"
       width="156.58"
       height="86.220001"
       rx="12.31"
       id="rect2834"
       style="fill:#ffffff" />
    <path
       d="m 217.64,414.59 a 6.3,6.3 0 0 1 -6.32,6.32 H 56.48 a 6.32,6.32 0 1 1 0,-12.64 h 154.84 a 6.34,6.34 0 0 1 6.32,6.32 z"
       transform="translate(-33.12,-0.87)"
       id="path2836"
       inkscape:connector-curvature="0"
       style="fill:#fd6868" />
    <path
       d="m 216.45,410.91 a 5.38,5.38 0 0 1 -0.65,0.78 6.31,6.31 0 0 1 -4.48,1.86 H 56.48 a 6.31,6.31 0 0 1 -5.14,-2.64 6.22,6.22 0 0 1 5.14,-2.64 h 154.84 a 6.28,6.28 0 0 1 5.13,2.64 z"
       transform="translate(-33.12,-0.87)"
       id="path2838"
       inkscape:connector-curvature="0"
       style="fill:url(#linearGradient3456)" />
    <path
       d="m 400.71,344.94 h -80.16 c -1.35,0 -3.4,-1.1 -3.4,-2.45 0,-1.35 2.05,-2.46 3.4,-2.46 h 80.16 a 17.64,17.64 0 0 0 17.63,-17.62 v -72.68 a 12.59,12.59 0 0 0 -12.58,-12.58 h -56.5 a 15.52,15.52 0 0 1 -15.5,-15.5 v -18.46 a 2.46,2.46 0 1 1 4.91,0 v 18.46 a 10.6,10.6 0 0 0 10.59,10.59 h 56.5 a 17.51,17.51 0 0 1 17.49,17.49 v 72.68 a 22.56,22.56 0 0 1 -22.54,22.53 z"
       transform="translate(-33.12,-0.87)"
       id="path2840"
       inkscape:connector-curvature="0"
       style="fill:#fd6868" />
    <rect
       x="435.76999"
       y="310.29999"
       width="54.169998"
       height="6.6300001"
       rx="3.3199999"
       style="opacity:0.18000004;isolation:isolate;fill:#fd6868"
       id="rect2842" />
    <rect
       x="435.76999"
       y="323.38"
       width="54.169998"
       height="6.6300001"
       rx="3.3199999"
       style="opacity:0.18000004;isolation:isolate;fill:#fd6868"
       id="rect2844" />
    <rect
       x="435.76999"
       y="336.45999"
       width="54.169998"
       height="6.6300001"
       rx="3.3199999"
       style="opacity:0.18000004;isolation:isolate;fill:#fd6868"
       id="rect2846" />
    <rect
       x="435.76999"
       y="349.54001"
       width="54.169998"
       height="6.6300001"
       rx="3.3199999"
       style="opacity:0.18000004;isolation:isolate;fill:#fd6868"
       id="rect2848" />
    <rect
       x="41.91"
       y="336"
       width="54.169998"
       height="6.6300001"
       rx="3.3199999"
       style="opacity:0.18000004;isolation:isolate;fill:#fd6868"
       id="rect2850" />
    <rect
       x="41.91"
       y="349.07999"
       width="54.169998"
       height="6.6300001"
       rx="3.3199999"
       style="opacity:0.18000004;isolation:isolate;fill:#fd6868"
       id="rect2852" />
    <rect
       x="41.91"
       y="362.17001"
       width="54.169998"
       height="6.6300001"
       rx="3.3199999"
       style="opacity:0.18000004;isolation:isolate;fill:#fd6868"
       id="rect2854" />
    <rect
       x="41.91"
       y="375.25"
       width="54.169998"
       height="6.6300001"
       rx="3.3199999"
       style="opacity:0.18000004;isolation:isolate;fill:#fd6868"
       id="rect2856" />
    <path
       d="M 207.58,319.36 55.81,373.45 V 329.12 A 12.32,12.32 0 0 1 68.13,316.8 h 131.94 a 12.21,12.21 0 0 1 7.51,2.56 z"
       transform="translate(-33.12,-0.87)"
       style="opacity:0.18000004;isolation:isolate;fill:#fd6868"
       id="path2858"
       inkscape:connector-curvature="0" />
    <path
       d="M 212.39,366.06 V 390.7 A 12.31,12.31 0 0 1 200.07,403 h -79.88 z"
       transform="translate(-33.12,-0.87)"
       style="opacity:0.18000004;isolation:isolate;fill:#fd6868"
       id="path2860"
       inkscape:connector-curvature="0" />
    <g
       id="g2882">
      <rect
         x="256.29999"
         y="275.29001"
         width="107.24"
         height="127.14"
         rx="10.91"
         id="rect2862"
         style="fill:#fd6868" />
      <path
         d="M 391.63,290.73 V 386 a 9.85,9.85 0 0 1 -9.86,9.86 H 304.53 A 9.86,9.86 0 0 1 294.66,386 v -95.27 a 9.87,9.87 0 0 1 9.87,-9.86 h 77.24 a 9.86,9.86 0 0 1 9.86,9.86 z"
         transform="translate(-33.12,-0.87)"
         id="path2864"
         inkscape:connector-curvature="0"
         style="fill:#ffffff" />
      <polygon
         points="340.32,334.62 340.32,351.43 275.4,351.43 274.72,325.04 288.73,318.77 305.68,333.14 323,310.3 "
         style="opacity:0.18000004;isolation:isolate;fill:#fd6868"
         id="polygon2866" />
      <rect
         x="305.35999"
         y="396.81"
         width="11.2"
         height="3.3099999"
         rx="1.66"
         id="rect2868"
         style="fill:url(#linear-gradient-6)" />
      <polygon
         points="345.66,351.08 345.66,352.06 274.42,352.06 274.42,304.77 275.4,304.77 275.4,351.08 "
         id="polygon2870"
         style="fill:#fd6868" />
      <rect
         x="285.45999"
         y="316.47"
         width="5.6700001"
         height="34.959999"
         id="rect2872"
         style="fill:#fd6868" />
      <rect
         x="320.82999"
         y="307.89001"
         width="5.6700001"
         height="43.549999"
         id="rect2874"
         style="fill:#fd6868" />
      <rect
         x="302.87"
         y="330.20001"
         width="5.6700001"
         height="21.23"
         id="rect2876"
         style="fill:#fd6868" />
      <rect
         x="336.76999"
         y="330.20001"
         width="5.6700001"
         height="21.23"
         id="rect2878"
         style="fill:#fd6868" />
      <path
         d="m 391.63,290.73 v 8.67 l -97,52.89 v -61.56 a 9.87,9.87 0 0 1 9.87,-9.86 h 77.24 a 9.86,9.86 0 0 1 9.89,9.86 z"
         transform="translate(-33.12,-0.87)"
         style="opacity:0.18000004;isolation:isolate;fill:#fd6868"
         id="path2880"
         inkscape:connector-curvature="0" />
    </g>
    <path
       d="m 531.88,329.64 v 51.22 a 12.46,12.46 0 0 1 -12.46,12.46 H 470.57 A 12.46,12.46 0 0 1 458.1,380.86 V 370 l 73.75,-45.25 z"
       transform="translate(-33.12,-0.87)"
       style="opacity:0.18000004;isolation:isolate;fill:#fd6868"
       id="path2884"
       inkscape:connector-curvature="0" />
    <polygon
       points="214.96,195.48 214.96,475.3 211.03,476.11 211.03,195.48 "
       id="polygon2886"
       style="fill:#fd6868" />
    <polygon
       points="214.96,195.48 214.96,475.3 211.03,476.11 211.03,195.48 "
       id="polygon2888"
       style="fill:url(#linear-gradient-7)" />
    <path
       d="m 245,308.25 a 2.75,2.75 0 0 0 -1.93,-1 c -1.14,0.08 -1.71,1.42 -1.87,2.56 a 12.48,12.48 0 0 0 0,3.81 c 0.59,3.61 2.69,6.77 4.75,9.81 a 111.46,111.46 0 0 0 8.61,11.57 15.64,15.64 0 0 0 4.91,4 6.49,6.49 0 0 0 6.13,-0.12 c 2.24,-1.44 2.92,-4.35 3.42,-7 l 1.5,-8.05 a 3.55,3.55 0 0 0 0,-2.14 3.36,3.36 0 0 0 -1.24,-1.27 4.88,4.88 0 0 0 -2.14,-1 c -2.15,-0.23 -3.71,2 -4.26,4.11 -0.55,2.11 -0.73,4.44 -2.24,6 L 252,319.52 a 5.78,5.78 0 0 1 -1.76,-3.36 16.67,16.67 0 0 1 0.52,-2.77 c 0.13,-0.93 -0.21,-2.08 -1.12,-2.31 a 3.07,3.07 0 0 1 -0.87,1.24 c -1.35,-1.13 -2.44,-2.81 -3.77,-4.07 z"
       transform="translate(-33.12,-0.87)"
       id="path2890"
       inkscape:connector-curvature="0"
       style="fill:url(#linearGradient3458)" />
    <path
       d="m 262,309.76 -0.95,12.7 a 1.91,1.91 0 0 0 1.24,2.32 l 8.43,4.78 c 2.17,-3.51 2.35,-7.86 2.3,-12 a 42.75,42.75 0 0 0 -0.84,-9 13.24,13.24 0 0 0 -1.54,-4 9.26,9.26 0 0 0 -3.1,-3.06 c -0.87,-0.52 -6,-4 -6.88,-3.26 -1,0.9 2.19,5.38 1.92,6.66 a 37.24,37.24 0 0 0 -0.58,4.86 z"
       transform="translate(-33.12,-0.87)"
       id="path2892"
       inkscape:connector-curvature="0"
       style="fill:#fd6868" />
    <path
       d="m 262,309.76 -0.95,12.7 a 1.91,1.91 0 0 0 1.24,2.32 l 8.43,4.78 c 2.17,-3.51 2.35,-7.86 2.3,-12 a 42.75,42.75 0 0 0 -0.84,-9 13.24,13.24 0 0 0 -1.54,-4 9.26,9.26 0 0 0 -3.1,-3.06 c -0.87,-0.52 -6,-4 -6.88,-3.26 -1,0.9 2.19,5.38 1.92,6.66 a 37.24,37.24 0 0 0 -0.58,4.86 z"
       transform="translate(-33.12,-0.87)"
       id="path2894"
       inkscape:connector-curvature="0"
       style="fill:url(#linear-gradient-9)" />
    <path
       d="m 249,265.63 a 8.81,8.81 0 0 1 -2.18,5.65 21.45,21.45 0 0 0 -2.32,2.25 c -1.2,1.63 -1.07,3.84 -0.9,5.86 0.22,2.61 0.45,5.22 0.67,7.84 a 27,27 0 0 0 -4,2.74 41.24,41.24 0 0 1 -2.27,-5.12 13.32,13.32 0 0 1 -1.22,-3.92 11,11 0 0 1 0.13,-2.56 28.75,28.75 0 0 1 6.41,-14.15 0.87,0.87 0 0 1 -0.19,-0.46 10.53,10.53 0 0 1 0.17,-3.67 0.69,0.69 0 0 1 0.37,-0.57 c 0.26,-0.09 0.52,0.15 0.66,0.39 a 5.82,5.82 0 0 1 0.74,2.39 28,28 0 0 1 3.27,-2.79 26.91,26.91 0 0 1 0.66,6.12 z"
       transform="translate(-33.12,-0.87)"
       id="path2896"
       inkscape:connector-curvature="0"
       style="fill:url(#linear-gradient-10)" />
    <path
       d="m 256.17,299.57 a 2.22,2.22 0 0 0 2.64,0.61 9.51,9.51 0 0 0 2.7,-1.69 1.73,1.73 0 0 0 0.49,-0.49 1.68,1.68 0 0 0 0.15,-0.67 c 0.1,-1.3 0.17,-2.61 0.2,-3.92 0.03,-1.31 -0.05,-3.12 -1.16,-4.07 a 1.05,1.05 0 0 0 -0.49,-0.28 1.6,1.6 0 0 0 -0.65,0.06 6.53,6.53 0 0 0 -2.41,1 c -1.36,1 -1.68,3 -1.74,4.57 -0.05,1.31 -0.43,3.7 0.27,4.88 z"
       transform="translate(-33.12,-0.87)"
       id="path2898"
       inkscape:connector-curvature="0"
       style="fill:url(#linear-gradient-11)" />
    <path
       d="m 266.75,281 c 0,0 0.28,7.74 -0.92,10.22 -1.2,2.48 -6.27,2.49 -8.2,0.46 -1.93,-2.03 -4,-7.73 -2.95,-12.62 1.05,-4.89 10.32,-8.43 12.07,1.94 z"
       transform="translate(-33.12,-0.87)"
       id="path2900"
       inkscape:connector-curvature="0"
       style="fill:url(#linear-gradient-12)" />
    <path
       d="m 260.34,275.64 a 5.71,5.71 0 0 0 -2.61,3.52 16.75,16.75 0 0 0 -0.49,4.47 l -0.05,2.28 a 4.77,4.77 0 0 0 -1.95,-1.58 4.38,4.38 0 0 0 0.28,3.33 3.74,3.74 0 0 1 0.47,1 0.87,0.87 0 0 1 -0.37,1 c -0.55,0.26 -1.08,-0.39 -1.35,-0.94 -1.07,-2.19 -2.18,-4.57 -1.74,-7 a 10.08,10.08 0 0 1 0.91,-2.53 12.64,12.64 0 0 1 4.21,-5.4 6,6 0 0 1 5.2,-0.7 c 2.97,1.13 -1.56,2.04 -2.51,2.55 z"
       transform="translate(-33.12,-0.87)"
       id="path2902"
       inkscape:connector-curvature="0"
       style="fill:#3f3d56" />
  </g>
</svg>
