<?xml version="1.0" encoding="UTF-8" standalone="no"?>
<svg
   xmlns:dc="http://purl.org/dc/elements/1.1/"
   xmlns:cc="http://creativecommons.org/ns#"
   xmlns:rdf="http://www.w3.org/1999/02/22-rdf-syntax-ns#"
   xmlns:svg="http://www.w3.org/2000/svg"
   xmlns="http://www.w3.org/2000/svg"
   xmlns:xlink="http://www.w3.org/1999/xlink"
   xmlns:sodipodi="http://sodipodi.sourceforge.net/DTD/sodipodi-0.dtd"
   xmlns:inkscape="http://www.inkscape.org/namespaces/inkscape"
   id="Layer_1"
   data-name="Layer 1"
   viewBox="0 0 1545 1052"
   version="1.1"
   sodipodi:docname="services.svg"
   width="1545"
   height="1052"
   inkscape:version="0.92.4 (5da689c313, 2019-01-14)">
  <metadata
     id="metadata8124">
    <rdf:RDF>
      <cc:Work
         rdf:about="">
        <dc:format>image/svg+xml</dc:format>
        <dc:type
           rdf:resource="http://purl.org/dc/dcmitype/StillImage" />
        <dc:title>20</dc:title>
      </cc:Work>
    </rdf:RDF>
  </metadata>
  <sodipodi:namedview
     pagecolor="#ffffff"
     bordercolor="#666666"
     borderopacity="1"
     objecttolerance="10"
     gridtolerance="10"
     guidetolerance="10"
     inkscape:pageopacity="0"
     inkscape:pageshadow="2"
     inkscape:window-width="1920"
     inkscape:window-height="1017"
     id="namedview8122"
     showgrid="false"
     inkscape:zoom="0.50963943"
     inkscape:cx="222.77036"
     inkscape:cy="663.64364"
     inkscape:window-x="-8"
     inkscape:window-y="-8"
     inkscape:window-maximized="1"
     inkscape:current-layer="Layer_1" />
  <defs
     id="defs8017">
    <linearGradient
       id="linear-gradient"
       x1="275.88"
       y1="138.00999"
       x2="103.76"
       y2="299.32001"
       gradientUnits="userSpaceOnUse">
      <stop
         offset="0"
         id="stop7998" />
      <stop
         offset="1"
         stop-opacity="0"
         id="stop8000" />
    </linearGradient>
    <linearGradient
       id="linear-gradient-2"
       x1="172.95"
       y1="135.05"
       x2="150.81"
       y2="235.46001"
       xlink:href="#linear-gradient"
       gradientTransform="translate(0,302.04001)" />
    <linearGradient
       id="linear-gradient-3"
       x1="201.34"
       y1="141.41"
       x2="138.56"
       y2="243.69"
       xlink:href="#linear-gradient"
       gradientTransform="translate(-5.86,283.53001)" />
    <linearGradient
       id="linear-gradient-4"
       x1="172.95"
       y1="95.989998"
       x2="150.81"
       y2="196.39999"
       xlink:href="#linear-gradient"
       gradientTransform="translate(0,302.04001)" />
    <linearGradient
       id="linear-gradient-5"
       x1="275.89001"
       y1="59.900002"
       x2="103.76"
       y2="221.21001"
       xlink:href="#linear-gradient"
       gradientTransform="translate(-5.86,283.53001)" />
    <linearGradient
       id="linear-gradient-6"
       x1="172.95"
       y1="56.950001"
       x2="150.81"
       y2="157.36"
       xlink:href="#linear-gradient"
       gradientTransform="translate(0,302.04001)" />
    <linearGradient
       id="linear-gradient-7"
       x1="250.92"
       y1="115.43"
       x2="163.83"
       y2="196.89"
       xlink:href="#linear-gradient"
       gradientTransform="translate(-5.86,283.53001)" />
    <linearGradient
       id="linear-gradient-8"
       x1="161.94"
       y1="19.5"
       x2="218.49001"
       y2="118.04"
       xlink:href="#linear-gradient"
       gradientTransform="translate(-5.86,283.53001)" />
    <linearGradient
       id="linear-gradient-9"
       x1="228.67999"
       y1="183.88"
       x2="231.17"
       y2="212.14999"
       xlink:href="#linear-gradient"
       gradientTransform="translate(-5.86,283.53001)" />
    <linearGradient
       id="linear-gradient-10"
       x1="150.35001"
       y1="130.58"
       x2="180.49001"
       y2="115.92"
       xlink:href="#linear-gradient"
       gradientTransform="translate(-5.86,283.53001)" />
    <linearGradient
       id="linear-gradient-11"
       x1="155.10001"
       y1="85.389999"
       x2="186.7"
       y2="137.57001"
       xlink:href="#linear-gradient"
       gradientTransform="translate(-5.86,283.53001)" />
    <linearGradient
       id="linear-gradient-12"
       x1="177.97"
       y1="100.29"
       x2="184.10001"
       y2="79.709999"
       xlink:href="#linear-gradient"
       gradientTransform="translate(-5.86,283.53001)" />
    <linearGradient
       id="linear-gradient-13"
       x1="197"
       y1="95.639999"
       x2="186.82001"
       y2="80.260002"
       xlink:href="#linear-gradient"
       gradientTransform="translate(-5.86,283.53001)" />
    <linearGradient
       id="linear-gradient-14"
       x1="173.19"
       y1="207.75"
       x2="221.62"
       y2="143.56"
       xlink:href="#linear-gradient"
       gradientTransform="translate(-5.86,283.53001)" />
    <linearGradient
       id="linear-gradient-15"
       x1="169.08"
       y1="80.290001"
       x2="182.56"
       y2="97.769997"
       xlink:href="#linear-gradient"
       gradientTransform="translate(-5.86,283.53001)" />
    <linearGradient
       gradientUnits="userSpaceOnUse"
       gradientTransform="matrix(1,0,0,-1,-85.91,596)"
       y2="175.86"
       x2="311.94"
       y1="175.86"
       x1="236.31"
       id="linear-gradient-77">
      <stop
         id="stop8837"
         stop-opacity="0"
         offset="0" />
      <stop
         id="stop8839"
         stop-opacity="0.8"
         offset="0.91" />
      <stop
         id="stop8841"
         offset="1" />
    </linearGradient>
    <linearGradient
       xlink:href="#linear-gradient-77"
       y2="121.26"
       x2="252.55"
       y1="223.05"
       x1="341.62"
       id="linear-gradient-2-5" />
    <linearGradient
       xlink:href="#linear-gradient-77"
       y2="235.75"
       x2="645.34003"
       y1="268.85999"
       x1="501.73001"
       id="linear-gradient-3-8" />
    <linearGradient
       gradientUnits="userSpaceOnUse"
       gradientTransform="matrix(1,0,0,-1,-85.91,596)"
       y2="320.98999"
       x2="557.65002"
       y1="285.85999"
       x1="618"
       id="linear-gradient-4-6">
      <stop
         id="stop8846"
         stop-color="#00272e"
         offset="0.36" />
      <stop
         id="stop8848"
         stop-opacity="0"
         stop-color="#69b9eb"
         offset="1" />
    </linearGradient>
    <linearGradient
       gradientUnits="userSpaceOnUse"
       gradientTransform="matrix(1,0,0,-1,-85.91,596)"
       y2="376.59"
       x2="616.03998"
       y1="376.59"
       x1="594.28003"
       id="linear-gradient-5-6">
      <stop
         id="stop8851"
         stop-color="#ecc4d7"
         offset="0" />
      <stop
         id="stop8853"
         stop-color="#efd4d1"
         offset="0.42" />
      <stop
         id="stop8855"
         stop-color="#f2eac9"
         offset="1" />
    </linearGradient>
    <linearGradient
       xlink:href="#linear-gradient-5-6"
       y2="328.51999"
       x2="570.21997"
       y1="392.35999"
       x1="608.59003"
       id="linear-gradient-6-9" />
    <linearGradient
       xlink:href="#linear-gradient-5-6"
       y2="406.81"
       x2="620.78003"
       y1="406.81"
       x1="574.69"
       id="linear-gradient-7-8" />
    <linearGradient
       xlink:href="#linear-gradient-5-6"
       y2="295.42999"
       x2="517.27002"
       y1="295.42999"
       x1="469.29001"
       id="linear-gradient-8-2" />
    <linearGradient
       xlink:href="#linear-gradient-77"
       y2="204.60001"
       x2="685"
       y1="248.39"
       x1="593.34003"
       id="linear-gradient-9-3" />
    <linearGradient
       xlink:href="#linear-gradient-5-6"
       gradientTransform="matrix(1,0,0,-1,-0.01,595.99)"
       y2="218.82001"
       x2="603.28003"
       y1="218.82001"
       x1="592.54999"
       id="linear-gradient-10-3" />
    <linearGradient
       xlink:href="#linear-gradient-5-6"
       y2="195.3"
       x2="588.12"
       y1="195.3"
       x1="572.21002"
       id="linear-gradient-11-5" />
    <linearGradient
       xlink:href="#linear-gradient-4-6"
       y2="312.67999"
       x2="578.94"
       y1="255.39"
       x1="689.70001"
       id="linear-gradient-12-7" />
    <linearGradient
       xlink:href="#linear-gradient-5-6"
       y2="241.02"
       x2="559.44"
       y1="241.02"
       x1="510.35999"
       id="linear-gradient-13-6" />
    <linearGradient
       xlink:href="#linear-gradient-5-6"
       y2="189.41"
       x2="408.04999"
       y1="189.41"
       x1="372.60001"
       id="linear-gradient-14-2" />
    <linearGradient
       xlink:href="#linear-gradient-4-6"
       y2="226.95"
       x2="270.92001"
       y1="236.88"
       x1="188.42"
       id="linear-gradient-15-6" />
    <linearGradient
       xlink:href="#linear-gradient-5-6"
       y2="333.48999"
       x2="302.60001"
       y1="333.48999"
       x1="252.52"
       id="linear-gradient-16" />
    <linearGradient
       xlink:href="#linear-gradient-4-6"
       y2="232.92999"
       x2="328.29999"
       y1="160.62"
       x1="224.92"
       id="linear-gradient-17" />
    <linearGradient
       xlink:href="#linear-gradient-5-6"
       y2="109.91"
       x2="270.92001"
       y1="109.91"
       x1="251.27"
       id="linear-gradient-18" />
    <linearGradient
       xlink:href="#linear-gradient-77"
       y2="353.10001"
       x2="352.70999"
       y1="350.89999"
       x1="413.14999"
       id="linear-gradient-19" />
    <linearGradient
       gradientUnits="userSpaceOnUse"
       gradientTransform="matrix(1,0,0,-1,-85.91,596)"
       y2="278.53"
       x2="413.35999"
       y1="378.35001"
       x1="406.57001"
       id="linear-gradient-20">
      <stop
         id="stop8872"
         stop-opacity="0"
         stop-color="#68e1fd"
         offset="0" />
      <stop
         id="stop8874"
         stop-opacity="0.04"
         stop-color="#66daf6"
         offset="0.02" />
      <stop
         id="stop8876"
         stop-opacity="0.39"
         stop-color="#58a1bc"
         offset="0.18" />
      <stop
         id="stop8878"
         stop-opacity="0.66"
         stop-color="#4d758f"
         offset="0.35" />
      <stop
         id="stop8880"
         stop-opacity="0.85"
         stop-color="#45566f"
         offset="0.53" />
      <stop
         id="stop8882"
         stop-opacity="0.96"
         stop-color="#40435c"
         offset="0.73" />
      <stop
         id="stop8884"
         stop-color="#3f3d56"
         offset="0.99" />
    </linearGradient>
    <linearGradient
       xlink:href="#linear-gradient-20"
       y2="278.66"
       x2="415.23999"
       y1="378.47"
       x1="408.45001"
       id="linear-gradient-21" />
    <linearGradient
       inkscape:collect="always"
       xlink:href="#linear-gradient-77"
       id="linearGradient9094"
       gradientUnits="userSpaceOnUse"
       gradientTransform="matrix(1,0,0,-1,-85.91,596)"
       x1="236.31"
       y1="175.86"
       x2="311.94"
       y2="175.86" />
    <linearGradient
       inkscape:collect="always"
       xlink:href="#linear-gradient-4-6"
       id="linearGradient9096"
       gradientUnits="userSpaceOnUse"
       gradientTransform="matrix(1,0,0,-1,-85.91,596)"
       x1="618"
       y1="285.85999"
       x2="557.65002"
       y2="320.98999" />
    <linearGradient
       inkscape:collect="always"
       xlink:href="#linear-gradient-5-6"
       id="linearGradient9098"
       gradientUnits="userSpaceOnUse"
       gradientTransform="matrix(1,0,0,-1,-85.91,596)"
       x1="594.28003"
       y1="376.59"
       x2="616.03998"
       y2="376.59" />
    <linearGradient
       inkscape:collect="always"
       xlink:href="#linear-gradient-20"
       id="linearGradient9100"
       gradientUnits="userSpaceOnUse"
       gradientTransform="matrix(1,0,0,-1,-85.91,596)"
       x1="406.57001"
       y1="378.35001"
       x2="413.35999"
       y2="278.53" />
  </defs>
  <title
     id="title8019">20</title>
  <g
     id="g9092"
     transform="matrix(1.3901475,0,0,1.3193978,574.66216,226.92867)">
    <path
       id="path8892"
       style="opacity:0.18000004;isolation:isolate;fill:#ff0004"
       transform="translate(-0.01,-0.01)"
       d="m 652.18,360.77 a 173.49,173.49 0 0 1 -4.21,38 C 623.09,510.29 490.47,595.4 330.64,595.4 264.7,595.4 203.4,580.91 152.39,556.07 117.19,538.93 86.88,516.86 63.33,491.2 A 169.14,169.14 0 0 1 37.09,459.36 C -30.54,354.41 -5.18,167.14 109.24,168.7 a 288.94,288.94 0 0 0 40.85,-2.09 c 32.15,-4.15 51.65,-13.87 63.46,-24.41 a 60.07,60.07 0 0 0 7.89,-8.52 106.13,106.13 0 0 1 67.65,-40.93 c 238.66,-38.23 325.57,80.75 352.51,181 a 302.48,302.48 0 0 1 10.49,82.95 c 0.07,1.35 0.09,2.71 0.09,4.07 z"
       inkscape:connector-curvature="0" />
    <path
       id="path8894"
       style="opacity:0.05;isolation:isolate;fill:#000405"
       transform="translate(-0.01,-0.01)"
       d="M 171.78,513 44.44,470 c 0,0 -46.86,-58.13 -44.25,-155.89 l 189.5,77.57 c 0,0 82.4,-23.68 131.49,-26.05 49.09,-2.37 266.72,-25.22 266.72,-25.22 0,0 42,48.15 23.32,62.88 -18.68,14.73 -153.13,17.21 -153.13,17.21 L 364.59,365.7 286,426.46 226,483 Z"
       inkscape:connector-curvature="0" />
    <path
       id="path8896"
       transform="translate(-0.01,-0.01)"
       d="m 380.54,297.14 -2,5.08 c 0,0 6,5.31 2,7.59 0,0 20.82,-1.29 0,-12.67 z"
       inkscape:connector-curvature="0"
       style="fill:#3f3d56" />
    <path
       id="path8898"
       transform="translate(-0.01,-0.01)"
       d="m 142.58,461.65 -2.42,6.86 19.84,9.29 c 0,0 18.44,2.32 24.11,-2.54 a 24.33,24.33 0 0 0 7.25,-11.37 z"
       inkscape:connector-curvature="0"
       style="fill:#333333" />
    <path
       id="path8900"
       transform="translate(-0.01,-0.01)"
       d="m 194.61,397.29 c 0,0 23.38,-0.41 30.22,8.08 6.84,8.49 -17.74,33.63 -17.74,33.63 l -56.69,4 z"
       inkscape:connector-curvature="0"
       style="fill:#ff0004" />
    <path
       style="fill:url(#linearGradient9094)"
       id="path8902"
       transform="translate(-0.01,-0.01)"
       d="m 194.61,397.29 c 0,0 23.38,-0.41 30.22,8.08 6.84,8.49 -17.74,33.63 -17.74,33.63 l -56.69,4 z"
       inkscape:connector-curvature="0" />
    <path
       id="path8904"
       transform="translate(-0.01,-0.01)"
       d="m 193.77,433.74 c 0,0 49.12,4.43 57.66,7.58 16.14,6.07 11.34,28.75 4,31.17 -6.09,2.05 -52.41,19 -67.22,24.43 a 5.1,5.1 0 0 1 -6.43,-2.81 L 176.7,482 a 5.13,5.13 0 0 1 3.25,-6.9 l 29.14,-8.67 c 0,0 -43.26,4.36 -52,2.42 -19.35,-4.24 -38.43,-29 -28.27,-50.62 10.16,-21.62 64.95,15.51 64.95,15.51 z"
       inkscape:connector-curvature="0"
       style="fill:#ff0004" />
    <path
       style="fill:url(#linear-gradient-2-5)"
       id="path8906"
       transform="translate(-0.01,-0.01)"
       d="m 193.77,433.74 c 0,0 49.12,4.43 57.66,7.58 16.14,6.07 11.34,28.75 4,31.17 -6.09,2.05 -52.41,19 -67.22,24.43 a 5.1,5.1 0 0 1 -6.43,-2.81 L 176.7,482 a 5.13,5.13 0 0 1 3.25,-6.9 l 29.14,-8.67 c 0,0 -43.26,4.36 -52,2.42 -19.35,-4.24 -38.43,-29 -28.27,-50.62 10.16,-21.62 64.95,15.51 64.95,15.51 z"
       inkscape:connector-curvature="0" />
    <path
       id="path8908"
       transform="translate(-0.01,-0.01)"
       d="m 322.09,311.51 -2.27,8.88 11.64,10.31 c 0,0 -3.33,0 -6,5.2 l -1.06,11.37 c 0,0 7.82,16.92 29.4,2.13 l 35,30.94 77.63,-27.34 1.66,-10.58 z"
       inkscape:connector-curvature="0"
       style="fill:#3f3d56" />
    <path
       id="path8910"
       transform="translate(-0.01,-0.01)"
       d="m 532.55,320 -38.62,-15.17 a 16.94,16.94 0 0 0 -15.68,-0.46 13.21,13.21 0 0 0 -7.55,11.38 c -1.33,14.6 6.53,81.8 6.53,81.8 a 39.43,39.43 0 0 0 9,2.31 18.86,18.86 0 0 0 15.49,-3.79 l 0.75,-50.55 c 0,0 43.53,26.89 59.06,24.65 17.38,-2.5 45.34,-16.76 26.45,-49.83 C 569.09,287.27 532.55,320 532.55,320 Z"
       inkscape:connector-curvature="0"
       style="fill:#ff0004" />
    <path
       style="fill:url(#linear-gradient-3-8)"
       id="path8912"
       transform="translate(-0.01,-0.01)"
       d="m 532.55,320 -38.62,-15.17 a 16.94,16.94 0 0 0 -15.68,-0.46 13.21,13.21 0 0 0 -7.55,11.38 c -1.33,14.6 6.53,81.8 6.53,81.8 a 39.43,39.43 0 0 0 9,2.31 18.86,18.86 0 0 0 15.49,-3.79 l 0.75,-50.55 c 0,0 43.53,26.89 59.06,24.65 17.38,-2.5 45.34,-16.76 26.45,-49.83 C 569.09,287.27 532.55,320 532.55,320 Z"
       inkscape:connector-curvature="0" />
    <path
       id="path8914"
       transform="translate(-0.01,-0.01)"
       d="m 500.55,231.08 c 0,0 -11.34,36.1 -14.4,43.84 -3.06,7.74 -56.68,14.18 -56.68,14.18 l 2,23.17 61.06,-7.58 18.36,-26.55 z"
       inkscape:connector-curvature="0"
       style="fill:#ff0004" />
    <path
       id="path8916"
       style="opacity:0.61000001;isolation:isolate;fill:url(#linearGradient9096)"
       transform="translate(-0.01,-0.01)"
       d="m 500.55,231.08 c 0,0 -11.34,36.1 -14.4,43.84 -3.06,7.74 -56.68,14.18 -56.68,14.18 l 2,23.17 61.06,-7.58 18.36,-26.55 z"
       inkscape:connector-curvature="0" />
    <path
       id="path8918"
       transform="translate(-0.01,-0.01)"
       d="m 531.09,219.1 12.43,6.9 c 23.09,10.31 31.48,33.26 44.48,94.5 0,0 -10.92,24.42 -51.12,8 0,0 -27.28,-39.86 -31.78,-54.8 -4.5,-14.94 -15.83,-40.65 5,-50.48 20.83,-9.83 20.99,-4.12 20.99,-4.12 z"
       inkscape:connector-curvature="0"
       style="fill:#ff0004" />
    <path
       id="path8920"
       style="opacity:0.05;isolation:isolate;fill:#000405"
       transform="translate(-0.01,-0.01)"
       d="m 557.74,271.68 15.14,57.13 c 0,0 -15.45,9.42 -36.1,-0.34 -20.65,-9.76 -13.34,-19.47 -20,-31.33 l 20.23,-11 z"
       inkscape:connector-curvature="0" />
    <path
       id="path8922"
       transform="translate(-0.01,-0.01)"
       d="m 529.34,216.63 a 14.1,14.1 0 0 1 -18.73,6.88 l -0.58,-0.28 c 0,0 -11.68,20.37 5,17.94 8.84,-1.29 16.58,-14.45 18.06,-21.12 z"
       inkscape:connector-curvature="0"
       style="fill:#333333" />
    <path
       style="fill:url(#linearGradient9098)"
       id="path8924"
       transform="translate(-0.01,-0.01)"
       d="m 530.09,200.29 c 0,0.23 -0.53,10.28 -0.94,17.52 a 22.26,22.26 0 0 1 -6.73,14.79 24.74,24.74 0 0 1 -8.24,5.65 4.33,4.33 0 0 1 -4.44,-0.87 4.38,4.38 0 0 1 -1.26,-4.37 c 0.4,-1.51 0.8,-3.25 1.12,-5.07 0.66,-3.78 1,-7.87 -0.07,-10.76 a 3,3 0 0 0 -0.11,-0.32 c -0.6,-1.49 0,-3.12 1.41,-4.76 1.94,-2.3 5.34,-4.63 8.74,-6.6 a 106,106 0 0 1 10.52,-5.21 z"
       inkscape:connector-curvature="0" />
    <path
       style="fill:url(#linear-gradient-6-9)"
       id="path8926"
       transform="translate(-0.01,-0.01)"
       d="m 511.83,227.17 a 8.91,8.91 0 0 1 -2.19,0.77 c 0.66,-3.78 1,-7.87 -0.07,-10.76 l 1.3,-5.08 1,-3.78 7.78,-2.82 7.87,-2.85 c -1.96,13.98 -9.43,21.59 -15.69,24.52 z"
       inkscape:connector-curvature="0" />
    <path
       style="fill:url(#linear-gradient-7-8)"
       id="path8928"
       transform="translate(-0.01,-0.01)"
       d="m 509.84,160.47 a 22.37,22.37 0 0 0 -21,23.62 c 0,0.57 0.09,1.14 0.17,1.71 a 75.7,75.7 0 0 0 6.88,26.2 c 7.29,12.44 25.69,2.2 28.6,-2.92 2.91,-5.12 13.91,-28.29 9.3,-34.88 -3.05,-4.48 -12.01,-14.2 -23.95,-13.73 z"
       inkscape:connector-curvature="0" />
    <path
       id="path8930"
       transform="translate(-0.01,-0.01)"
       d="m 490.42,151.67 3.78,1.94 a 14.22,14.22 0 0 0 -11.68,5.65 18.72,18.72 0 0 0 -5.48,13 l 6.43,-3 c 0,0 -0.49,7.92 11.67,8.53 12.16,0.61 25.05,1.1 25.05,1.1 l -4.1,-5.72 c 0,0 7.55,3 8.88,5.84 a 93.13,93.13 0 0 1 2.56,13.66 c 0,0 3,-7.82 4.27,-6.11 1.27,1.71 -1.32,8.8 -2.91,10.35 -1.59,1.55 -1.32,6.22 -1.47,6.6 -0.15,0.38 7.56,-6 7.9,-8.19 0.34,-2.19 8,-24.38 3,-29 l 3,-0.22 a 14.2,14.2 0 0 0 -6,-2.32 c 0,0 -19.89,-26.29 -44.9,-12.11 z"
       inkscape:connector-curvature="0"
       style="fill:#333333" />
    <path
       style="fill:url(#linear-gradient-8-2)"
       id="path8932"
       transform="translate(-0.01,-0.01)"
       d="m 429.4,292 a 68.05,68.05 0 0 1 -11.31,-3 92,92 0 0 0 -18,-2.81 c 0,0 -1.17,4 2,4.82 3.17,0.82 6.8,2.16 6.8,2.16 l -13.22,1.33 -12.24,1.67 c 0,0 1.17,4 4.46,4 a 15,15 0 0 0 3.77,4.47 60.42,60.42 0 0 1 6.46,6.83 37.2,37.2 0 0 0 5.29,3.49 c 0.68,0 26.45,-3 28,-5.46 z"
       inkscape:connector-curvature="0" />
    <path
       id="path8934"
       transform="translate(-0.01,-0.01)"
       d="m 536.9,328.5 c 0,0 4,19.91 9.93,24.92 0,0 -38.88,30.34 -40.69,52.29 -2.53,30.34 93.14,-16.71 93.14,-16.71 l -6.62,-16.76 -41.48,18.39 c 0,0 25.24,-17.06 37.82,-34.13 9.86,-13.54 4.5,-26 -1,-35.68 -0.1,-0.32 -23.91,19.36 -51.1,7.68 z"
       inkscape:connector-curvature="0"
       style="fill:#ff0004" />
    <path
       style="fill:url(#linear-gradient-9-3)"
       id="path8936"
       transform="translate(-0.01,-0.01)"
       d="m 536.9,328.5 c 0,0 4,19.91 9.93,24.92 0,0 -38.88,30.34 -40.69,52.29 -2.53,30.34 93.14,-16.71 93.14,-16.71 l -6.62,-16.76 -41.48,18.39 c 0,0 25.24,-17.06 37.82,-34.13 9.86,-13.54 4.5,-26 -1,-35.68 -0.1,-0.32 -23.91,19.36 -51.1,7.68 z"
       inkscape:connector-curvature="0" />
    <polygon
       style="fill:url(#linear-gradient-10-3)"
       id="polygon8938"
       points="595.34,384.58 592.54,372.22 599.72,369.75 603.27,379.16 " />
    <path
       style="fill:url(#linear-gradient-11-5)"
       id="path8940"
       transform="translate(-0.01,-0.01)"
       d="m 487,404 -0.68,-4.17 A 20.47,20.47 0 0 0 501.79,396 l 0.42,6.83 A 16.42,16.42 0 0 1 487,404 Z"
       inkscape:connector-curvature="0" />
    <path
       id="path8942"
       transform="translate(-0.01,-0.01)"
       d="m 486.83,402.72 -17,6.14 c 0,0 -9.45,-2.31 -11.34,3 a 11.44,11.44 0 0 0 -0.34,8.64 c 0,0 4.46,4 15.57,1.67 11.11,-2.33 29.28,-8 29.28,-8 l -0.68,-11.11 a 17.83,17.83 0 0 1 -15.49,-0.34 z"
       inkscape:connector-curvature="0"
       style="fill:#333333" />
    <path
       id="path8944"
       transform="translate(-0.01,-0.01)"
       d="m 601.09,367.6 c 0,0 -4.27,1.75 -3.78,2.88 0.49,1.13 2,-1.36 5.82,8.73 l -2.45,1.79 5.32,11.37 a 10.42,10.42 0 0 0 -4.11,9.14 c 0.53,2.77 5.44,3.15 9.37,1.79 3.93,-1.36 5.63,-10.09 5.63,-10.09 0,0 -2.57,-20.93 -7.86,-24.42 -5.29,-3.49 -7.94,-1.19 -7.94,-1.19 z"
       inkscape:connector-curvature="0"
       style="fill:#333333" />
    <path
       id="path8946"
       transform="translate(-0.01,-0.01)"
       d="m 472.89,346.33 -80.26,25.29 -36.8,-30.56 C 341,356.22 323.15,344.85 325.6,336 c 2.45,-8.85 18.9,-5.65 18.9,-5.65 l -22.3,-18.73 41.72,-10.5 c 0.26,1.47 2,8.6 12.13,9.17 11.33,0.65 13.9,-8.57 4.49,-13.08 L 407,290.32 Z"
       inkscape:connector-curvature="0"
       style="fill:#ff0004" />
    <path
       id="path8948"
       style="opacity:0.05;isolation:isolate;fill:#000405"
       transform="translate(-0.01,-0.01)"
       d="m 451.45,336.4 a 4.78,4.78 0 0 0 -1.53,0.72 8.22,8.22 0 0 0 -1.14,1.36 c -1.48,1.84 -3.89,2.57 -6.08,3.44 a 33.54,33.54 0 0 0 -7,3.78 1.71,1.71 0 0 0 -0.73,0.82 c -0.33,1.07 1.33,1.6 1.89,2.57 a 2.07,2.07 0 0 1 -0.34,2.23 6.63,6.63 0 0 1 -1.89,1.44 34.85,34.85 0 0 0 -9.8,8.94 240.3,240.3 0 0 1 37.7,-15.7 7.67,7.67 0 0 0 2.79,-1.34 2.55,2.55 0 0 0 0.85,-2.79 c -0.22,-0.49 0.55,-0.62 0.15,-1 -1.95,-1.74 -5.23,-4.65 -7.84,-6.78 0.04,0.02 -4.98,1.63 -7.03,2.31 z"
       inkscape:connector-curvature="0" />
    <path
       id="path8950"
       transform="translate(-0.01,-0.01)"
       d="m 558.09,236.81 a 12.33,12.33 0 0 0 -21.15,4.25 c -0.72,2.31 -1.48,5.08 -2.23,8.49 -4,18.43 -22.11,58.51 -22.11,58.51 L 460,336.47 474.4,354.9 536,324.56 c 0,0 27.28,-60.26 26.79,-71.75 a 27,27 0 0 0 -4.7,-16 z"
       inkscape:connector-curvature="0"
       style="fill:#ff0004" />
    <path
       id="path8952"
       style="opacity:0.61000001;isolation:isolate;fill:url(#linear-gradient-12-7)"
       transform="translate(-0.01,-0.01)"
       d="m 558.09,236.81 a 12.33,12.33 0 0 0 -21.15,4.25 c -0.72,2.31 -1.48,5.08 -2.23,8.49 -4,18.43 -22.11,58.51 -22.11,58.51 L 460,336.47 474.4,354.9 536,324.56 c 0,0 27.28,-60.26 26.79,-71.75 a 27,27 0 0 0 -4.7,-16 z"
       inkscape:connector-curvature="0" />
    <path
       style="fill:url(#linear-gradient-13-6)"
       id="path8954"
       transform="translate(-0.01,-0.01)"
       d="m 464.5,339.05 a 69.14,69.14 0 0 1 -11.6,2.08 92.81,92.81 0 0 0 -17.53,5 c 0,0 0.6,4.1 3.78,3.53 3.18,-0.57 7.06,-0.83 7.06,-0.83 l -11.33,6.79 -10.43,6.67 c 0,0 2.72,3.15 5.7,1.74 a 15.27,15.27 0 0 0 5.33,2.47 61.39,61.39 0 0 1 8.69,3.45 37,37 0 0 0 6.27,0.95 c 0.61,-0.27 22.94,-13.92 23.09,-16.76 z"
       inkscape:connector-curvature="0" />
    <path
       id="path8956"
       transform="translate(-0.01,-0.01)"
       d="m 288.76,331.73 19.2,7.58 v 11.38 c 0,0 -23,0.49 -23,10.46 0,9.97 21.69,17.79 36.23,4.48 l 33.1,19 -1.2,9.74 -100.64,36.41 -57.66,-70.35 v -11.37 z"
       inkscape:connector-curvature="0"
       style="fill:#3f3d56" />
    <path
       id="path8958"
       transform="translate(-0.01,-0.01)"
       d="M 288.76,320.5 308,339.27 c 0,0 -23,0.5 -23,10.47 0,9.97 21.69,17.79 36.23,4.47 l 33.1,30.34 -100.82,35.54 -58.72,-70.84 39.56,-12.1 c 0,0 -12.58,-8.46 -0.49,-14.11 a 19.31,19.31 0 0 1 7.14,-1.93 c 9.49,-0.38 11,4.51 12.25,9.86 v 0.42 z"
       inkscape:connector-curvature="0"
       style="fill:#ff0004" />
    <path
       id="path8960"
       style="opacity:0.05;isolation:isolate;fill:#000405"
       transform="translate(-0.01,-0.01)"
       d="m 210.78,344.36 v 0 c 0,0 16,34.78 23.61,40.55 4.24,3.22 33.55,12.78 58.44,14.13 2.33,0.13 9.61,-6.62 13.05,-5.73 5,1.31 -0.91,5.8 0.25,5.86 15,0.71 23.31,-5.86 23.31,-5.86 l -79,28.52 -52.93,-75.9 z"
       inkscape:connector-curvature="0" />
    <path
       style="fill:url(#linear-gradient-14-2)"
       id="path8962"
       transform="translate(-0.01,-0.01)"
       d="m 287.86,406.62 a 58.83,58.83 0 0 1 9.14,-9.52 35.91,35.91 0 0 1 8.88,-3.79 c 0,0 1.4,4.25 -1,5.05 -2.4,0.8 -3.78,5 -3.78,5 0,0 17.46,3.34 19.57,2.31 2.11,-1.03 2.31,2.24 -1.81,2.85 -4.12,0.61 -4,6.52 -6.8,7 -2.8,0.48 -6.95,3.15 -11.07,4.14 A 54.41,54.41 0 0 1 286.69,419 Z"
       inkscape:connector-curvature="0" />
    <path
       id="path8964"
       transform="translate(-0.01,-0.01)"
       d="M 207.75,356.15 A 62.21,62.21 0 0 0 179.3,292 29.47,29.47 0 0 0 166.61,287.11 c -18.29,-1.06 -37.79,131.1 -37.79,131.1 0,0 8.81,25.6 35.48,28.06 24.64,2.28 29.44,-12.55 29.44,-12.55 z"
       inkscape:connector-curvature="0"
       style="fill:#ff0004" />
    <path
       id="path8966"
       style="opacity:0.61000001;isolation:isolate;fill:url(#linear-gradient-15-6)"
       transform="translate(-0.01,-0.01)"
       d="M 207.75,356.15 A 62.21,62.21 0 0 0 179.3,292 29.47,29.47 0 0 0 166.61,287.11 c -18.29,-1.06 -37.79,131.1 -37.79,131.1 0,0 8.81,25.6 35.48,28.06 24.64,2.28 29.44,-12.55 29.44,-12.55 z"
       inkscape:connector-curvature="0" />
    <path
       id="path8968"
       transform="translate(-0.01,-0.01)"
       d="m 166.61,287.09 c 0,0 2.68,-19.94 3.78,-32.91 1.1,-12.97 5.36,-30.34 27.13,-28.07 21.77,2.27 21.76,35.2 15.71,49 -6.05,13.8 -14.09,13.35 -14.09,13.35 0,0 -10.84,-2.39 -10.47,10.66 z"
       inkscape:connector-curvature="0"
       style="fill:url(#linear-gradient-16)" />
    <path
       id="path8970"
       transform="translate(-0.01,-0.01)"
       d="m 174.84,223.31 a 24.54,24.54 0 0 0 -6.65,11.11 59.5,59.5 0 0 0 -2,10.5 l 2.23,-2.42 a 163,163 0 0 1 -1.4,18.2 98.7,98.7 0 0 0 -1,17 l 4,-0.19 5,6.26 5.63,-3.8 4.23,-2.23 3.78,-9.3 a 5.24,5.24 0 0 1 -1.81,-6.06 c 1.4,-3.79 4.83,-4.67 5.63,-2.43 a 43.27,43.27 0 0 1 1,8.49 l 6,-17 c 0,0 3.78,-5.28 7.07,-1.63 a 17.53,17.53 0 0 0 7.25,4.85 l -2,-5.69 5.44,1.4 -0.42,-6.48 4,2.84 c 0,0 1.81,-10.5 -1.63,-15.17 -3.44,-4.67 -16.91,-23.23 -44.35,-8.25 z"
       inkscape:connector-curvature="0"
       style="fill:#333333" />
    <path
       id="path8972"
       transform="translate(-0.01,-0.01)"
       d="m 288.42,403.25 -44.54,-4.82 a 29.32,29.32 0 0 1 -23.51,-24.8 L 203.9,323.38 a 17.71,17.71 0 0 0 -14.21,-12.17 15.41,15.41 0 0 0 -17,19.8 l 17,60.67 a 29.28,29.28 0 0 0 26.45,25.67 l 69.86,9.11 z"
       inkscape:connector-curvature="0"
       style="fill:#ff0004" />
    <path
       id="path8974"
       style="opacity:0.61000001;isolation:isolate;fill:url(#linear-gradient-17)"
       transform="translate(-0.01,-0.01)"
       d="m 288.42,403.25 -44.54,-4.82 a 29.32,29.32 0 0 1 -23.51,-24.8 L 203.9,323.38 a 17.71,17.71 0 0 0 -14.21,-12.17 15.41,15.41 0 0 0 -17,19.8 l 17,60.67 a 29.28,29.28 0 0 0 26.45,25.67 l 69.86,9.11 z"
       inkscape:connector-curvature="0" />
    <path
       id="path8976"
       transform="translate(-0.01,-0.01)"
       d="m 178.47,477 -13.11,3 5.25,15.17 13.72,-3.17 c 0,0 3.67,-11.73 -5.86,-15 z"
       inkscape:connector-curvature="0"
       style="fill:url(#linear-gradient-18)" />
    <path
       id="path8978"
       transform="translate(-0.01,-0.01)"
       d="m 160,477.8 c 0,0 8.58,-1.82 10,1.1 1.42,2.92 -3.14,2.73 -2.23,6.87 a 83.59,83.59 0 0 0 2.83,9.29 l 4.23,-0.95 0.87,5 a 3.81,3.81 0 0 0 3.78,3 c 9.9,0.57 8.58,9.55 5.1,9.89 l -12.81,1 -6.77,-5.7 a 5.38,5.38 0 0 1 -1.85,-2.24 c -2.47,-4.85 -10.06,-22.9 -3.15,-27.26 z"
       inkscape:connector-curvature="0"
       style="fill:#333333" />
    <path
       id="path8980"
       style="opacity:0.4;isolation:isolate;fill:#ff0004"
       transform="translate(-0.01,-0.01)"
       d="m 368.41,168.55 a 19.29,19.29 0 0 0 -1.7,3 c -2.87,6.14 -12.58,28.1 -14,47.13 a 18.93,18.93 0 0 1 -17.84,17.75 l -17.34,1 -5.67,0.3 a 18.9,18.9 0 0 1 -19.65,-15.17 c -3.55,-17.52 -11.11,-44.29 -25.8,-56.12 0,0 -64.77,-59.31 -21.58,-125.45 a 102.74,102.74 0 0 1 9.71,-12.67 C 299.87,-21.86 374.69,1 392.67,47.61 410.65,94.22 375.56,158.5 368.41,168.55 Z"
       inkscape:connector-curvature="0" />
    <path
       id="path8982"
       transform="translate(-0.01,-0.01)"
       d="m 355.19,244.62 c -1.51,3.79 -3.25,5.61 -1.74,8.12 1.51,2.51 5.86,9.26 -16.21,12.26 a 120.12,120.12 0 0 1 -13.79,1.1 h -7.22 L 312,265.91 c -4.83,-0.3 -8.73,-0.79 -11.33,-1.21 a 10.17,10.17 0 0 1 -7,-4.44 5.25,5.25 0 0 1 0.8,-5.46 2.92,2.92 0 0 0 0.15,-4.13 3.07,3.07 0 0 0 -1.06,-0.72 6.28,6.28 0 0 1 -0.38,-8.76 7.39,7.39 0 0 0 1.33,-1.9 6.49,6.49 0 0 0 -0.87,-6.64 l -0.61,-0.75 a 11,11 0 0 1 -1.81,-3.8 5.68,5.68 0 0 1 0.91,-5.68 18.89,18.89 0 0 0 19.64,15.16 l 5.67,-0.34 a 2.76,2.76 0 0 0 0.38,-0.72 c 1,-2.42 -1.25,-5.23 -0.11,-9 l 4.26,-0.19 a 118.25,118.25 0 0 0 30.76,-6 6.13,6.13 0 0 1 1.51,7.59 9.42,9.42 0 0 0 -0.79,2.65 9.63,9.63 0 0 0 0.94,5.61 5.24,5.24 0 0 0 0.34,0.61 7.59,7.59 0 0 1 0.46,6.83 z"
       inkscape:connector-curvature="0"
       style="fill:#ff0004" />
    <path
       id="path8984"
       transform="translate(-0.01,-0.01)"
       d="m 292.17,222.4 a 129.62,129.62 0 0 1 60.45,-1.1 c 0,0 -32.76,13.42 -60.45,1.1 z"
       inkscape:connector-curvature="0"
       style="fill:#333333" />
    <path
       id="path8986"
       transform="translate(-0.01,-0.01)"
       d="m 321.18,265.74 a 20,20 0 0 1 -5,0.34 l -4.24,-0.19 c -4.83,-0.3 -8.72,-0.79 -11.33,-1.21 a 10.17,10.17 0 0 1 -7,-4.44 5.24,5.24 0 0 1 0.79,-5.46 3,3 0 0 0 0.88,-2.68 2.91,2.91 0 0 0 -1.79,-2.17 6.27,6.27 0 0 1 -0.37,-8.76 6.39,6.39 0 0 0 0.45,-8.53 11.43,11.43 0 0 1 -2.34,-4.52 5.7,5.7 0 0 1 0.9,-5.68 74.35,74.35 0 0 0 29.74,4.85 l 0.49,0.23 c 0,0 -3.78,1.44 -2.8,4.74 0.98,3.3 2.42,9.25 -0.83,13.12 -3.25,3.87 3,4.93 1.82,9.29 v 0.42 a 24.18,24.18 0 0 0 -1.1,4 c -0.68,3.43 -0.36,6.35 1.73,6.65 z"
       inkscape:connector-curvature="0"
       style="fill:url(#linear-gradient-19)" />
    <path
       id="path8988"
       style="opacity:0.49000005;isolation:isolate;fill:#ffffff"
       transform="translate(-0.01,-0.01)"
       d="m 321.94,227.25 a 74.15,74.15 0 0 1 -29.77,-4.85 c -3.52,-17.41 -11.08,-44.18 -25.77,-56 0,0 -64.77,-59.31 -21.58,-125.45 a 102.74,102.74 0 0 1 9.71,-12.67 l 5.82,-0.53 c 0,0 38.74,-20.41 55.17,1.93 16.43,22.34 -19.43,47.59 -21.31,88.39 -1.88,40.8 44.79,48.35 27.73,109.18 z"
       inkscape:connector-curvature="0" />
    <path
       id="path8990"
       transform="translate(-0.01,-0.01)"
       d="m 350.09,255.12 c -2.8,1.82 -12.85,5.24 -30.76,4 a 131.35,131.35 0 0 1 -24.82,-4.4 2.92,2.92 0 0 0 0.15,-4.13 3.07,3.07 0 0 0 -1.06,-0.72 88.05,88.05 0 0 0 27,4.74 102.11,102.11 0 0 0 30.56,-3.79 c 0,0 3.12,1.57 -1.07,4.3 z"
       inkscape:connector-curvature="0"
       style="fill:url(#linearGradient9100)" />
    <path
       id="path8992"
       transform="translate(-0.01,-0.01)"
       d="m 354.36,237.22 c -3.36,2.81 -16.06,8 -34.42,6.22 a 101.1,101.1 0 0 1 -25.43,-4.21 6.47,6.47 0 0 0 -0.87,-6.63 l -0.61,-0.76 c 1.21,0.46 3.25,1.1 6,1.82 a 106,106 0 0 0 18.9,3 h 2.94 a 84.28,84.28 0 0 0 32.61,-5.16 9.58,9.58 0 0 0 0.88,5.72 z"
       inkscape:connector-curvature="0"
       style="fill:url(#linear-gradient-21)" />
    <path
       id="path8994"
       transform="translate(-0.01,-0.01)"
       d="m 228.61,328.81 0.23,10 5.55,-1.71 c 0,0 -5.78,-4.01 -5.78,-8.29 z"
       inkscape:connector-curvature="0"
       style="fill:#3f3d56" />
    <path
       id="path8996"
       transform="translate(-0.01,-0.01)"
       d="m 350.26,126.13 -1.21,-0.82 a 41.45,41.45 0 0 0 1.89,-17.13 c -1.44,-12.24 -10.08,-19.71 -24.3,-21 -21.8,-2.07 -30.43,9.18 -33.63,16.06 -9.24,19.23 -0.88,50.37 12.44,64.34 16.42,17.14 10.08,49.46 7.76,59 a 3,3 0 0 0 -0.15,0.72 v 0.64 l 3.35,1.14 0.24,-0.94 a 109.1,109.1 0 0 0 3.44,-23.35 c 0.59,-17 -3.48,-30.75 -11.81,-39.75 -12.3,-12.89 -20.29,-42.65 -11.8,-60.26 5.15,-10.55 15.54,-15.41 30.07,-14.06 15.81,1.5 20.18,10.57 21.06,17.88 a 37.73,37.73 0 0 1 -1.61,14.85 16.48,16.48 0 0 0 -11.42,-1.28 c -7.49,2.06 -12.22,9.82 -14.87,15.94 a 8.53,8.53 0 0 0 1.57,9.21 8.44,8.44 0 0 0 8.86,2.27 c 6.75,-2.39 13.79,-10.67 17.75,-20.77 l 0.39,0.27 c 11,7.74 3.15,19.67 -5.88,33.5 -6.43,9.69 -14.41,21.75 -15.27,33.63 -1,10.64 -0.54,19.05 0.18,29.76 l 0.05,0.85 h 3.6 l -0.05,-1 c -0.7,-10.69 -1.12,-19 -0.18,-29.34 0.77,-10.88 8.12,-22.07 14.6,-32 l 0.29,-0.45 c 9.38,-14.43 18.25,-28.13 4.64,-37.91 z m -21.44,20 a 4.67,4.67 0 0 1 -5,-1.31 4.87,4.87 0 0 1 -0.9,-5.33 c 1.9,-4.41 6.06,-12.1 12.53,-13.9 a 10.92,10.92 0 0 1 2.84,-0.38 15.06,15.06 0 0 1 6.34,1.64 c -3.77,9.53 -10.18,17.4 -15.81,19.3 z M 347,126 v 0 l 0.16,0.11 z"
       inkscape:connector-curvature="0"
       style="fill:#ffffff" />
  </g>
</svg>
