<?xml version="1.0" encoding="UTF-8" standalone="no"?>
<!-- Created with Inkscape (http://www.inkscape.org/) -->

<svg
   xmlns:dc="http://purl.org/dc/elements/1.1/"
   xmlns:cc="http://creativecommons.org/ns#"
   xmlns:rdf="http://www.w3.org/1999/02/22-rdf-syntax-ns#"
   xmlns:svg="http://www.w3.org/2000/svg"
   xmlns="http://www.w3.org/2000/svg"
   xmlns:sodipodi="http://sodipodi.sourceforge.net/DTD/sodipodi-0.dtd"
   xmlns:inkscape="http://www.inkscape.org/namespaces/inkscape"
   version="1.1"
   id="svg4518"
   width="240"
   height="64"
   viewBox="0 0 240 64"
   sodipodi:docname="logo.svg"
   inkscape:version="0.92.4 (5da689c313, 2019-01-14)">
  <metadata
     id="metadata4524">
    <rdf:RDF>
      <cc:Work
         rdf:about="">
        <dc:format>image/svg+xml</dc:format>
        <dc:type
           rdf:resource="http://purl.org/dc/dcmitype/StillImage" />
        <dc:title></dc:title>
      </cc:Work>
    </rdf:RDF>
  </metadata>
  <defs
     id="defs4522" />
  <sodipodi:namedview
     pagecolor="#ffffff"
     bordercolor="#666666"
     borderopacity="1"
     objecttolerance="10"
     gridtolerance="10"
     guidetolerance="10"
     inkscape:pageopacity="0"
     inkscape:pageshadow="2"
     inkscape:window-width="1920"
     inkscape:window-height="1017"
     id="namedview4520"
     showgrid="false"
     inkscape:zoom="3.233146"
     inkscape:cx="110.57331"
     inkscape:cy="49.219358"
     inkscape:window-x="-8"
     inkscape:window-y="-8"
     inkscape:window-maximized="1"
     inkscape:current-layer="svg4518"
     inkscape:snap-midpoints="false"
     inkscape:snap-smooth-nodes="false" />
  <g
     id="g4528"
     transform="matrix(0.92452231,0,0,0.91641814,3.2356928,-0.15272307)">
    <path
       style="fill:#fefefe;stroke-width:0.22535211"
       d="M 0.15464804,35.15493 V 0 H 78.013803 155.87296 V 35.15493 70.30986 H 78.013803 0.15464804 Z M 31.365916,65.54915 c 1.749987,-0.643986 18.659092,-9.085505 19.117697,-9.54411 0.273437,-0.273436 0.362945,-0.586806 0.271585,-0.950815 -0.126071,-0.502305 0.02878,-0.619173 2.068207,-1.560922 C 64.62343,48.044395 66.484962,46.483029 66.492688,42.02817 66.495211,40.566959 66.387103,39.990497 65.922103,38.985916 65.065711,37.135775 63.940331,36.150204 60.642655,34.362335 59.758236,33.88284 58.893591,33.230953 58.704106,32.900796 58.16263,31.95733 39.101456,22.569237 28.013102,17.784732 24.791946,16.394838 24.610538,16.281064 23.393384,14.88738 20.278536,11.320776 15.96949,6.5286633 14.717996,5.2394367 12.807848,3.2716981 12.181351,3.3869294 11.937371,5.750876 11.783947,7.2374049 11.47489,7.4634662 10.39275,6.8806955 9.2887114,6.2861315 8.5878233,6.5415681 8.4124914,7.6023949 8.1755217,9.0361574 8.2609243,18.30229 8.5200056,19.267606 c 0.1330609,0.495775 0.3269726,1.787921 0.4309147,2.871437 0.2082618,2.17097 0.1619475,2.049338 1.4193577,3.72756 0.964791,1.287671 3.403074,3.035374 6.145225,4.404751 2.843226,1.419849 16.847783,7.855477 17.856545,8.205764 0.880209,0.305645 1.013415,0.30414 1.332624,-0.01508 0.20258,-0.20258 0.399141,-0.891044 0.458393,-1.605537 0.05705,-0.687982 0.197686,-1.250878 0.312516,-1.250878 0.600469,0 11.995173,5.459056 12.247754,5.867741 0.241235,0.390326 -0.0049,0.473954 -0.660908,0.224543 -0.522057,-0.198485 -1.072153,-0.02807 -3.994567,1.237508 -4.044944,1.751694 -4.675022,2.062044 -5.265325,2.593467 -0.247887,0.22316 -2.81462,1.482128 -5.703853,2.797704 -2.889233,1.315574 -5.875955,2.769012 -6.637161,3.229861 -2.61419,1.582687 -3.439182,3.412397 -2.787294,6.181812 0.183405,0.779164 0.389316,2.114556 0.457579,2.967538 0.216352,2.70341 1.606592,4.678797 3.671716,5.217132 1.200886,0.313043 1.893452,0.240376 3.562394,-0.37379 z m 41.19511,-2.01502 c 0.471396,-0.130902 1.181255,-0.53019 1.577464,-0.887306 0.597488,-0.53853 0.677819,-0.718771 0.470878,-1.056513 -0.366621,-0.598349 -0.898276,-0.615843 -1.685269,-0.05546 -2.186688,1.557061 -5.376644,-0.125212 -5.095819,-2.68736 0.274402,-2.503572 3.049512,-3.754943 5.095819,-2.297843 0.786993,0.560387 1.318648,0.542893 1.685269,-0.05546 0.505823,-0.825542 -1.720523,-2.181826 -3.58148,-2.181826 -2.527446,0 -4.827802,2.141416 -4.838865,4.50453 -0.01593,3.40174 3.018819,5.648379 6.372003,4.717228 z m 9.285696,-0.179759 c 2.876634,-1.306828 3.694094,-5.035362 1.62151,-7.395905 -2.878165,-3.278051 -8.037165,-1.187419 -8.044721,3.260041 -0.0053,3.136559 3.563953,5.434796 6.423211,4.135864 z m -3.21526,-1.606674 c -1.118134,-0.681733 -1.676298,-1.721952 -1.556199,-2.900201 0.123205,-1.208703 0.704005,-2.040431 1.807953,-2.589046 2.726842,-1.355128 5.416676,2.243178 3.499132,4.680938 -0.992622,1.261915 -2.48089,1.582634 -3.750886,0.808309 z m 18.596518,1.576948 c 0.404419,-0.246576 0.906889,-0.808135 1.116604,-1.24791 0.589886,-1.237002 0.09709,-2.381854 -1.619421,-3.762222 -1.604521,-1.290309 -1.777868,-1.554771 -1.377758,-2.101956 0.296442,-0.405408 0.331144,-0.405133 1.251502,0.0099 0.702173,0.316636 1.043437,0.365783 1.321596,0.190324 0.94018,-0.593051 -0.06947,-1.816041 -1.67269,-2.026132 -1.786188,-0.234067 -3.2245,1.502968 -2.564286,3.096867 0.161699,0.390378 0.925517,1.206067 1.69737,1.812645 1.529598,1.202064 1.787331,1.594312 1.455259,2.21479 -0.377494,0.705354 -0.92364,0.735912 -1.837228,0.102794 -0.878608,-0.608874 -1.453193,-0.603202 -1.69107,0.0167 -0.191968,0.500259 0.514175,1.45502 1.342673,1.815398 0.998864,0.434484 1.721828,0.400491 2.577449,-0.121185 z m 7.19509,-0.25629 c 0.98799,-0.910691 1.19637,-1.744855 1.19637,-4.789163 0,-1.543142 -0.0616,-2.966116 -0.13679,-3.162168 -0.17732,-0.462087 -1.12657,-0.462087 -1.30389,0 -0.0752,0.196052 -0.13679,1.620381 -0.13679,3.165172 0,2.681622 -0.025,2.833744 -0.55314,3.36185 -0.67486,0.674864 -1.01337,0.691209 -1.78266,0.08608 -0.58641,-0.461267 -0.59378,-0.502975 -0.59378,-3.361851 0,-1.592135 -0.0616,-3.055197 -0.13678,-3.251249 -0.0752,-0.196054 -0.37753,-0.35646 -0.67177,-0.35646 -0.7352,0 -0.829255,0.526754 -0.732831,4.104243 0.08961,3.324902 0.286003,3.881154 1.608671,4.556415 0.98462,0.502673 2.49331,0.338535 3.24339,-0.352867 z m 34.61683,0.465775 c 0.47139,-0.130902 1.18125,-0.53019 1.57746,-0.887306 0.59749,-0.53853 0.67782,-0.718771 0.47088,-1.056513 -0.36662,-0.598349 -0.89827,-0.615843 -1.68527,-0.05546 -2.18669,1.557061 -5.37664,-0.125212 -5.09582,-2.68736 0.27441,-2.503572 3.04952,-3.754943 5.09582,-2.297843 0.787,0.560387 1.31865,0.542893 1.68527,-0.05546 0.50582,-0.825542 -1.72052,-2.181826 -3.58148,-2.181826 -2.52744,0 -4.8278,2.141416 -4.83886,4.50453 -0.0159,3.40174 3.01882,5.648379 6.372,4.717228 z m -27.91777,-0.12162 c 0.19606,-0.07523 0.35646,-0.377526 0.35646,-0.671763 0,-0.578423 -0.31873,-0.715124 -1.91549,-0.821526 l -0.90141,-0.06007 -0.0549,-3.042254 c -0.0677,-3.748746 -0.13036,-4.056338 -0.82667,-4.056338 -0.29424,0 -0.59653,0.160406 -0.67176,0.35646 -0.0752,0.196052 -0.13679,2.014161 -0.13679,4.040241 0,4.427982 -0.0184,4.392032 2.25119,4.392032 0.84861,0 1.70334,-0.06155 1.89939,-0.136787 z M 87.003777,62.967485 c 0.07523,-0.196052 0.136787,-1.311545 0.136787,-2.478874 0,-1.167326 0.08896,-2.122413 0.197697,-2.122413 0.108734,0 0.959981,0.938028 1.891661,2.084507 2.229143,2.743069 2.53651,3.016834 2.976837,2.651396 0.280484,-0.232782 0.342255,-0.946839 0.342255,-3.956334 0,-2.019756 -0.06155,-3.832691 -0.136786,-4.028743 -0.07523,-0.196054 -0.368609,-0.35646 -0.651946,-0.35646 -0.692327,0 -0.788732,0.348856 -0.788732,2.854112 0,1.536732 -0.07456,2.116342 -0.2641,2.05316 -0.145253,-0.04842 -1.088477,-1.096304 -2.096051,-2.328638 -1.413251,-1.728502 -1.95808,-2.240606 -2.383789,-2.240606 h -0.551835 l -0.06442,3.605634 c -0.03543,1.983099 -0.0082,3.833803 0.06063,4.112676 0.148149,0.60069 1.117033,0.710238 1.331793,0.150583 z m 27.514193,-0.150583 c 0.0651,-0.278873 0.1431,-1.869751 0.1733,-3.535283 l 0.0549,-3.028244 0.73239,-0.189469 c 0.56637,-0.146517 0.7324,-0.310258 0.7324,-0.722294 0,-0.68615 -0.35285,-0.8064 -2.3662,-0.8064 -2.01335,0 -2.3662,0.12025 -2.3662,0.8064 0,0.412036 0.16603,0.575777 0.7324,0.722294 l 0.73239,0.189469 0.0549,3.028244 c 0.0681,3.756991 0.12789,4.042325 0.84649,4.042325 0.39003,0 0.58995,-0.150582 0.67318,-0.507042 z m 3.79183,-0.788732 0.63402,-1.183099 h 1.21083 1.21083 l 0.63402,1.183099 c 0.50374,0.939995 0.74915,1.183098 1.19431,1.183098 0.32836,0 0.58832,-0.145469 0.62798,-0.351414 0.099,-0.514127 -2.94115,-7.680647 -3.37413,-7.953758 -0.2574,-0.162364 -0.46129,-0.154573 -0.67879,0.02593 -0.48569,0.403092 -3.40618,7.649593 -3.24852,8.060446 0.28039,0.730686 1.12502,0.275525 1.78945,-0.964304 z m 1.45621,-2.886288 c -0.21606,-0.216065 0.0887,-1.001036 0.38864,-1.001036 0.29995,0 0.6047,0.784971 0.38863,1.001036 -0.0691,0.06915 -0.24403,0.125724 -0.38863,0.125724 -0.1446,0 -0.31949,-0.05658 -0.38864,-0.125724 z m 6.44903,3.825603 c 0.0752,-0.196052 0.13679,-1.311545 0.13679,-2.478874 0,-1.167326 0.089,-2.122413 0.1977,-2.122413 0.10873,0 0.95998,0.938028 1.89166,2.084507 2.22914,2.743069 2.53651,3.016834 2.97684,2.651396 0.28048,-0.232782 0.34225,-0.946839 0.34225,-3.956334 0,-2.019756 -0.0615,-3.832691 -0.13678,-4.028743 -0.0752,-0.196054 -0.36861,-0.35646 -0.65195,-0.35646 -0.69233,0 -0.78873,0.348856 -0.78873,2.854112 0,1.536732 -0.0746,2.116342 -0.2641,2.05316 -0.14525,-0.04842 -1.08848,-1.096304 -2.09605,-2.328638 -1.41325,-1.728502 -1.95808,-2.240606 -2.38379,-2.240606 h -0.55184 l -0.0644,3.605634 c -0.0354,1.983099 -0.008,3.833803 0.0606,4.112676 0.14815,0.60069 1.11703,0.710238 1.33179,0.150583 z m 19.60564,0 c 0.0752,-0.196052 0.13679,-1.06743 0.13679,-1.936397 0,-1.514727 0.0506,-1.66347 1.22598,-3.603829 1.26533,-2.088843 1.3625,-2.666695 0.44844,-2.666695 -0.39659,0 -0.76313,0.342019 -1.44907,1.352113 -0.50501,0.743662 -0.96135,1.352112 -1.01409,1.352112 -0.0527,0 -0.50907,-0.60845 -1.01408,-1.352112 -0.68594,-1.010094 -1.05249,-1.352113 -1.44908,-1.352113 -0.91406,0 -0.81688,0.577852 0.44845,2.666695 1.17538,1.940359 1.22598,2.089102 1.22598,3.603829 0,0.868967 0.0616,1.740345 0.13679,1.936397 0.17732,0.462086 1.12657,0.462086 1.30389,0 z"
       id="path4568"
       inkscape:connector-curvature="0" />
    <path
       style="fill:#e9f6fb;stroke-width:0.22535211"
       d="m 27.830704,65.87423 c 0.162675,-0.0651 0.357042,-0.05709 0.431926,0.01778 0.07488,0.07488 -0.05822,0.128144 -0.295775,0.118359 -0.262524,-0.01082 -0.315921,-0.06421 -0.136151,-0.136148 z m 2.028169,0 c 0.162675,-0.0651 0.357042,-0.05709 0.431926,0.01778 0.07488,0.07488 -0.05822,0.128144 -0.295775,0.118359 -0.262524,-0.01082 -0.315921,-0.06421 -0.136151,-0.136148 z m -3.751051,-0.916483 c -0.471353,-0.470681 -0.542366,-0.583664 -0.160288,-0.255026 0.377293,0.324525 0.888804,0.701721 1.136692,0.838217 0.247887,0.136496 0.320015,0.251259 0.160288,0.255027 -0.15973,0.0038 -0.671241,-0.373429 -1.136692,-0.838218 z m 6.49753,-0.169014 c 0.805634,-0.421776 1.566197,-0.766864 1.690141,-0.766864 0.123944,0 -0.433803,0.345088 -1.239436,0.766864 -0.805634,0.421776 -1.566198,0.766864 -1.690141,0.766864 -0.123944,0 0.433802,-0.345088 1.239436,-0.766864 z M 34.6523,63.912285 c 0.229273,-0.214184 15.530517,-7.788904 15.530517,-7.688221 0,0.12343 -15.227286,7.775937 -15.47289,7.775937 -0.08334,0 -0.109269,-0.03947 -0.05763,-0.08772 z m -9.944602,-0.607642 c -0.138346,-0.258501 -0.209091,-0.512451 -0.15721,-0.564331 0.05188,-0.05188 0.210035,0.159621 0.351455,0.470003 0.310551,0.681587 0.159344,0.755015 -0.194245,0.09433 z m 44.517373,0.131358 c -2.418783,-0.855624 -3.699705,-3.93884 -2.621977,-6.311173 1.293316,-2.846892 5.262675,-3.735615 7.535396,-1.687144 0.597488,0.538531 0.677819,0.718772 0.470878,1.056514 -0.366621,0.598348 -0.898276,0.615842 -1.685269,0.05546 -2.046307,-1.4571 -4.821417,-0.205729 -5.095819,2.297843 -0.280825,2.562148 2.909131,4.244421 5.095819,2.68736 0.786993,-0.560388 1.318648,-0.542894 1.685269,0.05546 0.206941,0.337742 0.12661,0.517983 -0.470878,1.056513 -1.216516,1.096483 -3.161548,1.408886 -4.913419,0.789177 z m 4.214913,-0.618457 c 0.90483,-0.505482 1.227167,-1.0149 0.868891,-1.373176 -0.152095,-0.152095 -0.59118,-0.0284 -1.333659,0.375712 -2.666172,1.451112 -5.437149,0.0243 -5.439443,-2.800839 -0.0023,-2.742125 2.828608,-4.175806 5.439443,-2.754812 0.80878,0.440194 1.174053,0.535317 1.356194,0.353176 0.754168,-0.754168 -1.259529,-1.933278 -3.303522,-1.934362 -1.497222,-9.01e-4 -2.378074,0.360742 -3.296408,1.352976 -0.913109,0.986587 -1.173075,1.655906 -1.173075,3.020228 0,3.512568 3.703355,5.53662 6.881579,3.761097 z m 4.799171,0.529869 c -3.702294,-1.714107 -3.703466,-6.935705 -0.002,-8.617276 2.931063,-1.331554 6.421956,1.012457 6.421956,4.312117 0,3.302049 -3.507053,5.653819 -6.420022,4.305159 z m 3.605634,-0.302527 c 0.672219,-0.338145 1.691885,-1.335727 2.01817,-1.974463 2.14297,-4.195074 -3.034589,-8.443029 -6.539682,-5.365516 -2.710278,2.379655 -1.797102,6.553798 1.669149,7.629708 0.669762,0.207892 2.165055,0.05601 2.852363,-0.289729 z M 78.40611,61.973049 c -2.176643,-1.327115 -2.176643,-4.534475 0,-5.861589 2.137845,-1.303462 4.901782,0.349109 4.901782,2.930794 0,1.867707 -1.460502,3.378596 -3.26592,3.378596 -0.502821,0 -1.22617,-0.19801 -1.635862,-0.447801 z m 2.866591,-0.109391 c 0.354734,-0.183439 0.854073,-0.59936 1.109647,-0.92427 1.917544,-2.43776 -0.77229,-6.036066 -3.499132,-4.680938 -2.339225,1.162497 -2.475482,4.133425 -0.251754,5.489247 0.874244,0.533034 1.759549,0.571903 2.641239,0.115961 z m 13.37783,1.582173 c -0.828498,-0.360379 -1.534641,-1.31514 -1.342673,-1.815399 0.237877,-0.619901 0.812462,-0.625573 1.69107,-0.0167 0.913588,0.633117 1.459734,0.60256 1.837228,-0.102795 0.332072,-0.620477 0.07434,-1.012725 -1.455259,-2.21479 -0.771853,-0.606578 -1.535671,-1.422267 -1.69737,-1.812644 -0.660214,-1.5939 0.778098,-3.330934 2.564286,-3.096868 1.60322,0.210092 2.61287,1.433082 1.67269,2.026132 -0.278159,0.175459 -0.619423,0.126312 -1.321596,-0.190323 -0.920358,-0.415022 -0.95506,-0.415297 -1.251502,-0.0099 -0.40011,0.547184 -0.226763,0.811646 1.377758,2.101956 1.716514,1.380367 2.209307,2.525219 1.619421,3.762222 -0.430224,0.902188 -1.571887,1.700194 -2.415288,1.68825 -0.309859,-0.0044 -0.885305,-0.148009 -1.278765,-0.319155 z m 2.912568,-0.755617 c 0.489514,-0.45605 0.619718,-0.779908 0.619718,-1.541434 0,-1.093816 -0.670851,-2.023819 -2.248532,-3.117153 -0.503044,-0.348609 -0.974803,-0.8736 -1.048351,-1.166644 -0.273044,-1.087887 0.934977,-1.579729 2.063635,-0.840205 0.594501,0.389533 1.233248,0.288809 1.233248,-0.19447 0,-0.473257 -1.333728,-1.131204 -2.293077,-1.131204 -1.258993,0 -1.988613,0.735639 -1.988613,2.005018 0,0.876411 0.09582,1.041057 1.059157,1.819874 2.403806,1.943378 2.762952,2.586105 1.948169,3.48643 -0.521431,0.576175 -1.274817,0.513473 -2.091955,-0.174103 -1.146639,-0.964832 -1.919058,-0.237203 -0.832148,0.783896 1.072612,1.007665 2.541435,1.036392 3.578749,0.06999 z m 3.616581,0.731008 c -1.322668,-0.675261 -1.519058,-1.231513 -1.608671,-4.556415 -0.09642,-3.577489 -0.0024,-4.104243 0.732831,-4.104243 0.29424,0 0.59654,0.160406 0.67177,0.35646 0.0752,0.196052 0.13678,1.659114 0.13678,3.251249 0,2.858876 0.007,2.900584 0.59378,3.361851 0.76929,0.605131 1.1078,0.588786 1.78266,-0.08608 0.52811,-0.528106 0.55314,-0.680228 0.55314,-3.36185 0,-1.544791 0.0615,-2.96912 0.13679,-3.165172 0.17732,-0.462087 1.12657,-0.462087 1.30389,0 0.27868,0.726238 0.14428,5.950292 -0.1722,6.693032 -0.71298,1.673298 -2.58152,2.4021 -4.13077,1.611166 z m 3.06267,-0.419869 c 0.69164,-0.427459 1.01063,-1.645474 1.10755,-4.229118 0.10701,-2.852239 -0.0162,-3.786319 -0.49938,-3.786319 -0.49408,0 -0.5832,0.538125 -0.5832,3.521632 0,2.681622 -0.025,2.833744 -0.55313,3.36185 -0.67599,0.675989 -1.44571,0.705654 -2.23338,0.08608 -0.5864,-0.461267 -0.59377,-0.502975 -0.59377,-3.361851 0,-3.040396 -0.0886,-3.607709 -0.56338,-3.607709 -0.463398,0 -0.563718,0.560397 -0.558001,3.117023 0.0085,3.791455 0.429551,4.858964 2.051951,5.202119 0.74197,0.156933 1.91768,0.0097 2.42474,-0.303705 z m 31.46159,0.434648 c -2.41878,-0.855624 -3.6997,-3.93884 -2.62197,-6.311173 1.29331,-2.846892 5.26267,-3.735615 7.53539,-1.687144 0.59749,0.538531 0.67782,0.718772 0.47088,1.056514 -0.36662,0.598348 -0.89827,0.615842 -1.68527,0.05546 -2.0463,-1.4571 -4.82141,-0.205729 -5.09582,2.297843 -0.28082,2.562148 2.90913,4.244421 5.09582,2.68736 0.787,-0.560388 1.31865,-0.542894 1.68527,0.05546 0.20694,0.337742 0.12661,0.517983 -0.47088,1.056513 -1.21651,1.096483 -3.16154,1.408886 -4.91342,0.789177 z m 4.21492,-0.618457 c 0.90483,-0.505482 1.22716,-1.0149 0.86889,-1.373176 -0.1521,-0.152095 -0.59118,-0.0284 -1.33366,0.375712 -2.66617,1.451112 -5.43715,0.0243 -5.43944,-2.800839 -0.002,-2.742125 2.8286,-4.175806 5.43944,-2.754812 0.80878,0.440194 1.17405,0.535317 1.35619,0.353176 0.75417,-0.754168 -1.25953,-1.933278 -3.30352,-1.934362 -1.49722,-9.01e-4 -2.37807,0.360742 -3.29641,1.352976 -0.91311,0.986587 -1.17307,1.655906 -1.17307,3.020228 0,3.512568 3.70335,5.53662 6.88158,3.761097 z m -32.59319,0.377627 c -0.29304,-0.293047 -0.35412,-0.989482 -0.35412,-4.037906 0,-2.02608 0.0616,-3.844189 0.13679,-4.040241 0.0752,-0.196054 0.37752,-0.35646 0.67176,-0.35646 0.69631,0 0.75899,0.307592 0.82667,4.056338 l 0.0549,3.042254 0.90141,0.06007 c 1.59676,0.106402 1.91549,0.243103 1.91549,0.821526 0,0.681361 -0.35486,0.80855 -2.25585,0.80855 -1.1022,0 -1.6441,-0.101154 -1.89707,-0.354126 z m 3.42053,-0.01327 c 0.27887,-0.07473 0.50704,-0.271572 0.50704,-0.437415 0,-0.287065 -0.64934,-0.469197 -2.14085,-0.600478 l -0.67605,-0.0595 -0.0549,-3.042254 c -0.0617,-3.418211 -0.15631,-4.056338 -0.60132,-4.056338 -0.50703,0 -0.5832,0.544782 -0.5832,4.171349 0,4.056189 0.0506,4.168415 1.87525,4.163603 0.64185,-0.0018 1.39517,-0.06423 1.67405,-0.138961 z M 85.699885,62.967476 c -0.19808,-0.516187 -0.168486,-7.709979 0.03223,-7.834319 0.09296,-0.05759 0.133972,1.364656 0.09114,3.160536 -0.08491,3.560426 0.04783,4.80489 0.512502,4.80489 0.440316,0 0.572922,-0.743137 0.576376,-3.230046 0.0023,-1.668277 0.0727,-2.194263 0.284767,-2.128164 0.154929,0.04829 1.214109,1.246418 2.353733,2.66251 1.139623,1.416092 2.166147,2.606082 2.281165,2.644421 0.367321,0.122441 0.485631,-0.883436 0.488786,-4.155641 0.0032,-3.332341 -0.07905,-3.905747 -0.560304,-3.905747 -0.4614,0 -0.56338,0.557429 -0.56338,3.079464 0,1.792315 -0.06835,2.34411 -0.28169,2.274084 -0.285251,-0.09363 -3.792246,-4.210093 -4.248113,-4.986377 -0.535707,-0.912244 0.297521,-0.05346 2.061395,2.124626 0.997976,1.232329 1.910925,2.240598 2.028777,2.240598 0.120302,0 0.214279,-0.930838 0.214279,-2.122414 0,-2.485897 0.09721,-2.835333 0.788732,-2.835333 0.283337,0 0.576714,0.160406 0.651946,0.35646 0.07523,0.196052 0.136786,2.008987 0.136786,4.028743 0,3.009495 -0.06177,3.723552 -0.342255,3.956334 -0.440327,0.365438 -0.747694,0.09167 -2.976837,-2.651396 -0.93168,-1.146479 -1.782927,-2.084507 -1.891661,-2.084507 -0.108733,0 -0.197697,0.955087 -0.197697,2.122413 0,2.485898 -0.09721,2.835333 -0.788733,2.835333 -0.283337,0 -0.576714,-0.160405 -0.651946,-0.356459 z m 27.471725,-0.150574 c -0.0651,-0.278873 -0.1431,-1.869751 -0.17331,-3.535283 l -0.0549,-3.028244 -0.73239,-0.189469 c -0.56637,-0.146517 -0.7324,-0.310258 -0.7324,-0.722294 0,-0.68615 0.35285,-0.8064 2.3662,-0.8064 2.01335,0 2.3662,0.12025 2.3662,0.8064 0,0.412036 -0.16603,0.575777 -0.7324,0.722294 l -0.73239,0.189469 -0.0549,3.028244 c -0.0681,3.756991 -0.12788,4.042325 -0.84648,4.042325 -0.39003,0 -0.58995,-0.150582 -0.67318,-0.507042 z m 1.04668,0.225352 c 0.0195,-0.03099 0.0956,-1.624651 0.16902,-3.541478 l 0.13354,-3.485143 0.73239,-0.209431 c 1.51057,-0.43195 0.6874,-1.039484 -1.40845,-1.039484 -2.09585,0 -2.91903,0.607534 -1.40845,1.039484 l 0.73239,0.209431 0.13354,3.485143 c 0.0735,1.916827 0.1495,3.510492 0.16902,3.541478 0.0195,0.03099 0.18758,0.05634 0.3735,0.05634 0.18591,0 0.35399,-0.02535 0.3735,-0.05634 z m 2.30206,-0.04978 c -0.15766,-0.410853 2.76283,-7.657354 3.24852,-8.060446 0.2175,-0.180505 0.42139,-0.188296 0.67879,-0.02593 0.43298,0.273111 3.47314,7.439631 3.37413,7.953758 -0.0397,0.205945 -0.29962,0.351414 -0.62798,0.351414 -0.44516,0 -0.69057,-0.243103 -1.19431,-1.183098 l -0.63402,-1.183099 h -1.21083 -1.21083 l -0.63402,1.183099 c -0.66443,1.239829 -1.50906,1.69499 -1.78945,0.964304 z m 1.55674,-1.133318 0.60787,-1.239437 h 1.46969 1.46968 l 0.60788,1.239437 c 0.3997,0.814981 0.74615,1.239436 1.01164,1.239436 0.22206,0 0.40376,-0.09394 0.40376,-0.208755 0,-0.114814 -0.67016,-1.813406 -1.48923,-3.774648 -0.81908,-1.961241 -1.53979,-3.692653 -1.60158,-3.847583 -0.30386,-0.761879 -0.81467,0.03574 -2.28876,3.573803 -0.88349,2.120521 -1.60635,3.945873 -1.60635,4.056338 0,0.110466 0.18169,0.200845 0.40376,0.200845 0.26549,0 0.61193,-0.424455 1.01164,-1.239436 z m 1.37467,-3.077114 c 0.14373,-0.718648 0.51045,-1.317253 0.80699,-1.317253 0.22734,0 0.68463,1.060731 0.68463,1.588068 0,0.355628 -0.15679,0.440101 -0.8169,0.440101 -0.79638,0 -0.81333,-0.01785 -0.67472,-0.710916 z m 1.09152,0.35984 c 0.21607,-0.216065 -0.0887,-1.001036 -0.38863,-1.001036 -0.29995,0 -0.6047,0.784971 -0.38864,1.001036 0.0692,0.06915 0.24404,0.125724 0.38864,0.125724 0.1446,0 0.31948,-0.05658 0.38863,-0.125724 z m 4.36787,3.825603 c -0.19808,-0.516187 -0.16848,-7.709979 0.0322,-7.834319 0.093,-0.05759 0.13397,1.364656 0.0911,3.160536 -0.0849,3.560426 0.0478,4.80489 0.51251,4.80489 0.44031,0 0.57292,-0.743137 0.57637,-3.230046 0.002,-1.668277 0.0727,-2.194262 0.28477,-2.128164 0.15493,0.04829 1.21411,1.246418 2.35373,2.66251 1.13963,1.416092 2.16615,2.606082 2.28117,2.644421 0.36732,0.122441 0.48563,-0.883436 0.48878,-4.155641 0.003,-3.33235 -0.079,-3.905756 -0.5603,-3.905756 -0.4614,0 -0.56338,0.557429 -0.56338,3.079464 0,1.792315 -0.0684,2.34411 -0.28169,2.274084 -0.28525,-0.09363 -3.79225,-4.210093 -4.24811,-4.986377 -0.53571,-0.912244 0.29752,-0.05346 2.06139,2.124626 0.99798,1.232329 1.91093,2.240598 2.02878,2.240598 0.1203,0 0.21428,-0.930838 0.21428,-2.122414 0,-2.485897 0.0972,-2.835333 0.78873,-2.835333 0.28334,0 0.57671,0.160406 0.65195,0.35646 0.0752,0.196052 0.13678,2.008987 0.13678,4.028743 0,3.009495 -0.0618,3.723552 -0.34225,3.956334 -0.44033,0.365438 -0.7477,0.09167 -2.97684,-2.651396 -0.93168,-1.146479 -1.78293,-2.084507 -1.89166,-2.084507 -0.10873,0 -0.1977,0.955087 -0.1977,2.122413 0,2.485898 -0.0972,2.835333 -0.78873,2.835333 -0.28334,0 -0.57672,-0.160405 -0.65195,-0.356459 z m 19.60564,0 C 144.44155,62.771433 144.38,61.89262 144.38,61.01457 c 0,-1.491462 -0.0648,-1.701452 -0.98513,-3.192839 -0.54182,-0.878007 -1.10516,-1.849899 -1.25187,-2.159759 -0.2567,-0.542185 -0.253,-0.546424 0.0984,-0.112676 0.20081,0.247888 0.81485,1.169075 1.36455,2.047083 0.91088,1.454925 0.99972,1.724498 1.00252,3.042254 0.004,1.72078 0.17202,2.459959 0.5603,2.459959 0.38828,0 0.55664,-0.739179 0.56031,-2.459959 0.003,-1.317756 0.0916,-1.587329 1.00252,-3.042254 0.5497,-0.878008 1.16374,-1.799195 1.36454,-2.047083 0.35137,-0.433748 0.35507,-0.429509 0.0984,0.112676 -0.1467,0.30986 -0.71004,1.281752 -1.25187,2.159759 -0.92033,1.491387 -0.98512,1.701377 -0.98512,3.192839 0,1.94498 -0.12446,2.309374 -0.78874,2.309374 -0.28333,0 -0.57671,-0.160405 -0.65194,-0.356459 z M 24.285116,62.065729 c 0.01082,-0.262524 0.06421,-0.315921 0.136148,-0.136151 0.0651,0.162675 0.05709,0.357044 -0.01778,0.431926 -0.07488,0.07488 -0.128144,-0.05822 -0.118359,-0.295775 z m -0.200534,-1.934621 c -0.02344,-0.702539 -0.100972,-1.463103 -0.172302,-1.690141 -0.121141,-0.385584 -0.112972,-0.386794 0.123921,-0.01834 0.141401,0.219925 0.217636,0.967723 0.172302,1.690141 l -0.08131,1.295693 -0.04261,-1.277343 z m -0.475523,-2.572421 c 0.01082,-0.262524 0.06421,-0.315921 0.136149,-0.136151 0.0651,0.162675 0.05709,0.357043 -0.01778,0.431926 -0.07488,0.07488 -0.128144,-0.05822 -0.11836,-0.295775 z m 121.322921,0.172924 c -0.11838,-0.08478 -0.59123,-0.729668 -1.05078,-1.433084 -0.52058,-0.796818 -1.03004,-1.316192 -1.35148,-1.37776 -0.45925,-0.08797 -0.44877,-0.102195 0.0954,-0.129515 0.50877,-0.02554 0.76536,0.196142 1.52953,1.321425 0.50501,0.743662 0.96135,1.352112 1.01408,1.352112 0.0527,0 0.50908,-0.60845 1.01409,-1.352112 0.76416,-1.125283 1.02075,-1.346964 1.52952,-1.321425 0.53486,0.02685 0.54759,0.04295 0.10181,0.128674 -0.30979,0.05958 -0.86143,0.616221 -1.40735,1.420124 -0.99092,1.459191 -1.15898,1.61776 -1.47482,1.391561 z M 23.418197,56.112677 c 0,-0.433803 0.04638,-0.611268 0.103061,-0.394366 0.05668,0.216901 0.05668,0.571831 0,0.788732 -0.05668,0.216901 -0.103061,0.03944 -0.103061,-0.394366 z m 27.009262,-0.112676 c 0.02347,-0.426867 0.399045,-1.145657 0.412124,-0.788733 0.0068,0.185916 -0.08591,0.490141 -0.206062,0.676057 -0.120148,0.185915 -0.212876,0.236619 -0.206062,0.112676 z M 23.591268,54.717143 c 0,-0.835263 1.724969,-2.64475 3.154929,-3.309512 0.476027,-0.221296 0.497186,-0.217514 0.136453,0.02439 -1.544752,1.035891 -2.30813,1.761868 -2.767175,2.631594 -0.288313,0.546256 -0.524207,0.840345 -0.524207,0.65353 z m 27.042253,-0.29326 c 0,-0.151686 2.281068,-1.288353 2.382308,-1.187114 0.04618,0.04618 -0.470943,0.356124 -1.14917,0.688757 -0.678226,0.332634 -1.233138,0.556895 -1.233138,0.498357 z m 3.830986,-1.91684 c 0.68169,-0.360135 1.340845,-0.654792 1.464789,-0.654792 0.123944,0 -0.332394,0.294657 -1.014085,0.654792 -0.68169,0.360135 -1.340845,0.654792 -1.464788,0.654792 -0.123944,0 0.332394,-0.294657 1.014084,-0.654792 z m 1.821596,-0.762538 c 0.229323,-0.211209 3.812207,-1.934925 3.812207,-1.834041 0,0.125483 -3.505794,1.920523 -3.750866,1.920523 -0.08538,0 -0.112983,-0.03892 -0.06134,-0.08648 z m -28.863849,-0.70011 c 0,-0.154199 1.37981,-0.838292 1.4829,-0.735202 0.0489,0.0489 -0.26475,0.25755 -0.696998,0.463675 -0.432246,0.206123 -0.785902,0.328311 -0.785902,0.271527 z m 2.929577,-1.46693 c 0.68169,-0.360135 1.340845,-0.654792 1.464789,-0.654792 0.123944,0 -0.332394,0.294657 -1.014085,0.654792 -0.68169,0.360136 -1.340845,0.654793 -1.464788,0.654793 -0.123944,0 0.332394,-0.294657 1.014084,-0.654793 z m 29.971831,0.121837 c 0,-0.06197 0.405634,-0.319615 0.901409,-0.572541 0.495774,-0.252926 0.901408,-0.40916 0.901408,-0.347189 0,0.06197 -0.405634,0.319615 -0.901408,0.572541 -0.495775,0.252926 -0.901409,0.409161 -0.901409,0.347189 z M 33.056057,48.338029 c 0.557746,-0.298657 1.115492,-0.543015 1.239436,-0.543015 0.123944,0 -0.230986,0.244358 -0.788732,0.543015 -0.557747,0.298657 -1.115493,0.543015 -1.239437,0.543015 -0.123944,0 0.230986,-0.244358 0.788733,-0.543015 z m 30.802868,-0.884717 c 1.094741,-0.950637 1.809636,-2.029431 2.224852,-3.357352 0.161832,-0.517566 0.298799,-0.738213 0.304367,-0.490326 0.02514,1.118898 -1.399285,3.282691 -2.758303,4.190042 -0.499601,0.333562 -0.43067,0.230547 0.229084,-0.342364 z M 35.53493,47.211268 c 0.557746,-0.298657 1.115493,-0.543015 1.239436,-0.543015 0.123944,0 -0.230986,0.244358 -0.788732,0.543015 -0.557746,0.298657 -1.115493,0.543015 -1.239437,0.543015 -0.123943,0 0.230986,-0.244358 0.788733,-0.543015 z m 2.140845,-0.937832 c 0.371831,-0.196025 0.878873,-0.535707 1.12676,-0.754853 0.481621,-0.425773 2.684307,-1.582305 2.978425,-1.563838 0.09708,0.0061 -0.48265,0.364785 -1.288284,0.797084 -0.805634,0.4323 -1.809363,1.035764 -2.230508,1.34103 -0.421147,0.305267 -0.877485,0.550968 -1.014084,0.546006 -0.136602,-0.005 0.05586,-0.169406 0.427691,-0.365429 z m 4.84507,-2.667802 c 0.309859,-0.177131 0.664789,-0.322057 0.788733,-0.322057 0.123943,0 -0.02817,0.144926 -0.338029,0.322057 -0.309859,0.177132 -0.664788,0.322058 -0.788732,0.322058 -0.123944,0 0.02817,-0.144926 0.338028,-0.322058 z m 1.577465,-0.676056 c 0.309859,-0.177131 0.664789,-0.322057 0.788732,-0.322057 0.123944,0 -0.02817,0.144926 -0.338028,0.322057 -0.309859,0.177131 -0.664788,0.322057 -0.788732,0.322057 -0.123944,0 0.02817,-0.144926 0.338028,-0.322057 z M 66.464999,42.02817 c 0.0025,-0.495775 0.04865,-0.672057 0.102553,-0.391739 0.0539,0.280318 0.05186,0.685951 -0.0046,0.901408 -0.0564,0.215457 -0.100507,-0.0139 -0.09801,-0.509669 z m -20.563872,0.112676 c 0.433803,-0.237497 0.890141,-0.431813 1.014084,-0.431813 0.123944,0 -0.129577,0.194316 -0.56338,0.431813 -0.433803,0.237496 -0.890141,0.431813 -1.014084,0.431813 -0.123944,0 0.129577,-0.194317 0.56338,-0.431813 z m 2.253521,-0.225353 c -0.203108,-0.131258 -0.230902,-0.219828 -0.06964,-0.221902 0.147614,-0.0018 0.331065,0.09796 0.407666,0.221902 0.172913,0.279782 0.0949,0.279782 -0.338028,0 z m 0.597199,-0.331161 c -0.06989,-0.182137 -1.221589,-0.886772 -2.559322,-1.565855 -1.337733,-0.679083 -2.34804,-1.239919 -2.245126,-1.246303 0.464603,-0.02883 5.108658,2.538864 5.108658,2.82457 0,0.41305 -0.143187,0.407209 -0.30421,-0.01242 z m 17.466551,-1.246303 c 0,-0.30986 0.05115,-0.43662 0.113665,-0.28169 0.06251,0.154929 0.06251,0.40845 0,0.56338 -0.06252,0.154929 -0.113665,0.02817 -0.113665,-0.28169 z m -0.967493,-2.197183 c -0.702999,-1.130024 -0.805659,-1.420296 -0.259026,-0.732395 0.504757,0.6352 1.032256,1.577465 0.883098,1.577465 -0.05409,0 -0.334923,-0.380282 -0.624072,-0.84507 z M 35.25324,38.52819 c 0.278873,-0.112095 0.507042,-0.325384 0.507042,-0.473979 0,-0.148595 0.06516,-0.205018 0.144789,-0.125384 0.219691,0.219692 -0.375261,0.833686 -0.7921,0.817452 -0.248202,-0.0097 -0.202857,-0.08017 0.140269,-0.218089 z m 6.816901,-0.443683 c -0.68169,-0.360135 -1.138028,-0.654792 -1.014084,-0.654792 0.123943,0 0.783098,0.294657 1.464788,0.654792 0.68169,0.360136 1.138028,0.654793 1.014085,0.654793 -0.123944,0 -0.783099,-0.294657 -1.464789,-0.654793 z m -9.464789,-0.338028 c -0.557746,-0.298657 -0.912676,-0.543015 -0.788732,-0.543015 0.123944,0 0.68169,0.244358 1.239437,0.543015 0.557746,0.298657 0.912676,0.543016 0.788732,0.543016 -0.123944,0 -0.68169,-0.244359 -1.239437,-0.543016 z m 3.420902,-1.183098 c -0.0452,-1.316487 0.22685,-1.486898 1.311493,-0.821519 0.378305,0.232072 0.415319,0.295078 0.112676,0.191799 -1.230139,-0.419799 -1.208334,-0.431887 -1.298215,0.719586 l -0.08534,1.093232 z m 3.11431,0.169014 c -0.681691,-0.360135 -1.138029,-0.654792 -1.014085,-0.654792 0.123944,0 0.783099,0.294657 1.464789,0.654792 0.68169,0.360135 1.138028,0.654792 1.014084,0.654792 -0.123943,0 -0.783098,-0.294657 -1.464788,-0.654792 z m -9.014085,-0.112676 c -0.557746,-0.298657 -0.912676,-0.543015 -0.788732,-0.543015 0.123943,0 0.68169,0.244358 1.239436,0.543015 0.557747,0.298657 0.912676,0.543015 0.788733,0.543015 -0.123944,0 -0.68169,-0.244358 -1.239437,-0.543015 z m 33.352113,-0.365535 c -0.785366,-0.688487 -0.785634,-0.689379 -0.06315,-0.208798 0.399069,0.265454 0.785334,0.579329 0.858371,0.697501 0.217386,0.351741 0.0371,0.240944 -0.795218,-0.488703 z m -36.28169,-0.986578 c -0.805634,-0.421776 -1.363381,-0.766864 -1.239437,-0.766864 0.123944,0 0.884507,0.345088 1.690141,0.766864 0.805634,0.421776 1.36338,0.766864 1.239436,0.766864 -0.123943,0 -0.884507,-0.345088 -1.69014,-0.766864 z m 34.422535,-0.12802 c -0.464789,-0.24537 -0.845071,-0.496469 -0.845071,-0.557999 0,-0.06153 0.405634,0.09506 0.901409,0.347991 0.495775,0.252926 0.901408,0.508507 0.901408,0.567959 0,0.147419 -0.0016,0.146828 -0.957746,-0.357951 z M 24.041972,33.802817 c -0.68169,-0.360135 -1.138028,-0.654792 -1.014085,-0.654792 0.123944,0 0.783099,0.294657 1.464789,0.654792 0.68169,0.360136 1.138028,0.654792 1.014085,0.654792 -0.123944,0 -0.783099,-0.294656 -1.464789,-0.654792 z m 35.653927,0.262297 c -0.407243,-0.217177 -0.924679,-0.697823 -1.149857,-1.0681 -0.225179,-0.370278 -0.831045,-0.863357 -1.346364,-1.095736 -0.515322,-0.232376 -0.895038,-0.464415 -0.843813,-0.515639 0.226882,-0.226885 2.012768,0.930864 2.352532,1.52509 0.206706,0.361515 0.656879,0.774038 1.000383,0.916713 0.343504,0.142677 0.679065,0.347616 0.745692,0.455423 0.160426,0.259574 0.108577,0.244691 -0.758573,-0.217751 z M 21.112395,32.450705 c -0.681691,-0.360136 -1.138029,-0.654793 -1.014085,-0.654793 0.123944,0 0.783099,0.294657 1.464789,0.654793 0.68169,0.360135 1.138028,0.654792 1.014084,0.654792 -0.123943,0 -0.783098,-0.294657 -1.464788,-0.654792 z m -4.112677,-1.9291 c -1.332394,-0.676404 -2.422535,-1.280478 -2.422535,-1.342387 0,-0.100748 4.935269,2.29651 5.16432,2.508519 0.343988,0.318395 -0.651818,-0.105138 -2.741785,-1.166132 z m 36.732395,-0.225582 c -1.084507,-0.552811 -1.971831,-1.055739 -1.971831,-1.117616 0,-0.100748 4.033884,1.84752 4.262911,2.058882 0.328744,0.303387 -0.588993,-0.07366 -2.29108,-0.941266 z M 13.775184,28.719962 c -0.420062,-0.336539 -0.417297,-0.340699 0.06961,-0.104746 0.278873,0.135142 0.507042,0.292847 0.507042,0.350459 0,0.172444 -0.116869,0.122645 -0.576647,-0.245713 z m 35.956929,-0.550948 c -0.929578,-0.483506 -1.611554,-0.884121 -1.515502,-0.890255 0.239558,-0.0153 3.318319,1.545108 3.318319,1.681821 0,0.152164 0.07425,0.184766 -1.802817,-0.791566 z M 12.069565,27.549296 c -0.280309,-0.357422 -0.272338,-0.365393 0.08508,-0.08508 0.216901,0.170107 0.394366,0.347572 0.394366,0.394366 0,0.185474 -0.185056,0.0661 -0.479449,-0.309282 z m -1.006751,-0.788732 -0.429293,-0.507043 0.507043,0.429294 c 0.476494,0.40343 0.609631,0.584791 0.429293,0.584791 -0.04276,0 -0.270932,-0.228169 -0.507043,-0.507042 z m 31.458031,-2.084507 c -2.788732,-1.412072 -4.969014,-2.567406 -4.84507,-2.567406 0.123943,0 2.507042,1.155334 5.295774,2.567406 2.788733,1.412072 4.969015,2.567405 4.845071,2.567405 -0.123944,0 -2.507042,-1.155333 -5.295775,-2.567405 z m -32.254097,1.070422 c -0.2803086,-0.357422 -0.2723379,-0.365392 0.08508,-0.08508 0.216902,0.170107 0.394366,0.347572 0.394366,0.394366 0,0.185474 -0.185056,0.0661 -0.479449,-0.309282 z M 9.48143,24.669023 C 9.2758679,24.355297 9.1486737,24.057618 9.198776,24.007516 c 0.050102,-0.0501 0.2619394,0.206582 0.4707489,0.570413 0.4650521,0.810306 0.3269686,0.877181 -0.1880949,0.09109 z M 8.929478,21.746479 C 8.8626517,20.878873 8.7305782,19.966197 8.6359815,19.71831 c -0.094597,-0.247887 -0.00866,-0.168921 0.1909638,0.175481 0.2547482,0.439498 0.3422492,1.044163 0.2934966,2.028169 l -0.069461,1.401984 z m 26.830804,-0.338028 c -0.68169,-0.360136 -1.138028,-0.654793 -1.014085,-0.654793 0.123944,0 0.783099,0.294657 1.464789,0.654793 0.68169,0.360136 1.138028,0.654793 1.014085,0.654793 -0.123944,0 -0.783099,-0.294657 -1.464789,-0.654793 z M 33.281409,20.28169 c -0.433803,-0.237497 -0.687324,-0.431812 -0.563381,-0.431812 0.123944,0 0.580282,0.194315 1.014085,0.431812 0.433803,0.237497 0.687324,0.431813 0.56338,0.431813 -0.123944,0 -0.580282,-0.194316 -1.014084,-0.431813 z m -1.802817,-0.788732 c -0.309859,-0.177132 -0.461972,-0.322057 -0.338028,-0.322057 0.123943,0 0.478873,0.144925 0.788732,0.322057 0.309859,0.177131 0.461972,0.322057 0.338028,0.322057 -0.123944,0 -0.478873,-0.144926 -0.788732,-0.322057 z m -1.802817,-0.788732 c -0.433803,-0.237497 -0.687324,-0.431813 -0.56338,-0.431813 0.123943,0 0.580281,0.194316 1.014084,0.431813 0.433803,0.237497 0.687324,0.431812 0.56338,0.431812 -0.123943,0 -0.580281,-0.194315 -1.014084,-0.431812 z M 8.3647763,13.295775 c 0,-3.03662 0.031899,-4.2788735 0.070886,-2.760564 0.038987,1.51831 0.038987,4.002817 0,5.521127 -0.038987,1.51831 -0.070886,0.276057 -0.070886,-2.760563 z m 19.5081817,4.619718 c -0.309859,-0.177131 -0.461972,-0.322057 -0.338028,-0.322057 0.123943,0 0.478873,0.144926 0.788732,0.322057 0.309859,0.177132 0.461972,0.322057 0.338028,0.322057 -0.123943,0 -0.478873,-0.144925 -0.788732,-0.322057 z m -1.802817,-0.788732 c -0.433803,-0.237497 -0.687324,-0.431813 -0.56338,-0.431813 0.123943,0 0.580281,0.194316 1.014084,0.431813 0.433803,0.237497 0.687324,0.431813 0.563381,0.431813 -0.123944,0 -0.580282,-0.194316 -1.014085,-0.431813 z M 23.914709,15.71831 c -0.493438,-0.526761 -1.09765,-1.217171 -1.342695,-1.534245 -0.245044,-0.317074 -0.114638,-0.215666 0.289791,0.225352 0.404431,0.441018 1.087448,1.131428 1.517819,1.534245 0.430368,0.402817 0.703684,0.732395 0.607367,0.732395 -0.09632,0 -0.578844,-0.430986 -1.072282,-0.957747 z M 19.858677,11.098592 C 18.766775,9.890141 17.461329,8.4557738 16.957686,7.9111091 16.454043,7.3664443 16.155338,6.9838694 16.293897,7.0609423 c 0.298845,0.1662319 5.800055,6.2348327 5.6519,6.2348327 -0.05601,0 -0.995218,-0.988733 -2.08712,-2.197183 z M 10.64651,7.2322838 c -0.06946,-0.1123849 0.07667,-0.1512617 0.324728,-0.086393 0.526195,0.1376029 0.59271,0.290729 0.126287,0.290729 -0.178601,0 -0.381558,-0.091951 -0.451015,-0.204336 z M 8.4926762,7.037619 c 0,-0.4393636 1.4263944,-0.7038062 1.6700218,-0.3096092 0.06554,0.1060392 -0.131879,0.1448101 -0.4386999,0.086158 C 9.4171776,6.7555149 9.0146127,6.8332862 8.8294095,6.9869903 8.6347425,7.1485495 8.4926762,7.1699095 8.4926762,7.037619 Z M 11.821865,6.3661973 c 0.129667,-1.3082714 0.239071,-1.4035897 0.258654,-0.2253522 0.0098,0.5887324 -0.06325,1.0704226 -0.16231,1.0704226 -0.09906,0 -0.142411,-0.3802817 -0.09634,-0.8450704 z m 2.867994,-0.9577465 c -1.35998,-1.3743207 -1.801733,-1.5741274 -2.366596,-1.0704226 -0.268739,0.2396417 -0.271348,0.2228223 -0.01748,-0.112676 0.501258,-0.6624323 0.984732,-0.4551541 2.496748,1.0704225 0.798473,0.8056338 1.40082,1.4647888 1.338549,1.4647888 -0.06227,0 -0.715322,-0.6084508 -1.451225,-1.3521127 z"
       id="path4566"
       inkscape:connector-curvature="0" />
    <path
       style="fill:#ddf0f7;stroke-width:0.22535211"
       d="m 28.605352,65.872828 c 0.216902,-0.05668 0.571831,-0.05668 0.788733,0 0.216901,0.05668 0.03944,0.10306 -0.394367,0.10306 -0.433802,0 -0.611267,-0.04638 -0.394366,-0.10306 z m -3.148588,-1.703813 c -0.337843,-0.436832 -0.550364,-0.845071 -0.439926,-0.845071 0.05503,0 0.266173,0.253522 0.469199,0.563381 0.379908,0.57981 0.35875,0.783403 -0.02927,0.28169 z M 70.750486,63.39313 c 0.219261,-0.05714 0.523486,-0.05338 0.676056,0.0084 0.15257,0.06173 -0.02682,0.108478 -0.398654,0.103885 -0.371831,-0.0046 -0.496663,-0.0551 -0.277402,-0.112234 z m 8.89712,0.0069 c 0.154929,-0.06251 0.408451,-0.06251 0.56338,0 0.15493,0.06252 0.02817,0.113665 -0.28169,0.113665 -0.309859,0 -0.43662,-0.05115 -0.28169,-0.113665 z m 57.581754,-0.0069 c 0.21926,-0.05714 0.52349,-0.05338 0.67606,0.0084 0.15257,0.06173 -0.0268,0.108478 -0.39866,0.103885 -0.37183,-0.0046 -0.49666,-0.0551 -0.2774,-0.112234 z m -28.73668,-0.232205 c 0.40281,-0.04999 1.06197,-0.04999 1.46479,0 0.40281,0.04999 0.0732,0.09089 -0.7324,0.09089 -0.80563,0 -1.13521,-0.0409 -0.73239,-0.09089 z m -4.45071,-0.147417 c 0,-0.04679 0.17747,-0.224259 0.39437,-0.394366 0.35742,-0.280309 0.36539,-0.272338 0.0851,0.08508 -0.29439,0.37538 -0.47945,0.494756 -0.47945,0.309282 z M 91.168156,62.478874 c -0.280309,-0.357422 -0.272338,-0.365393 0.08508,-0.08508 0.216901,0.170107 0.394366,0.347572 0.394366,0.394366 0,0.185474 -0.185057,0.0661 -0.47945,-0.309282 z m 39.211264,0 c -0.28031,-0.357422 -0.27233,-0.365393 0.0851,-0.08508 0.37538,0.294393 0.49475,0.47945 0.30928,0.47945 -0.0468,0 -0.22426,-0.177465 -0.39437,-0.394366 z m -59.745899,0.01977 c 0.15493,-0.06251 0.408451,-0.06251 0.563381,0 0.154929,0.06252 0.02817,0.113665 -0.281691,0.113665 -0.309859,0 -0.436619,-0.05115 -0.28169,-0.113665 z m 9.253521,-0.0047 c 0.162675,-0.0651 0.357044,-0.05709 0.431926,0.01778 0.07488,0.07488 -0.05822,0.128144 -0.295775,0.118359 -0.262523,-0.01082 -0.315921,-0.06421 -0.136151,-0.136148 z m 27.401598,-3.451701 c 0,-2.04507 0.0342,-2.88169 0.0759,-1.859155 0.0418,1.022536 0.0418,2.695775 0,3.71831 -0.0418,1.022535 -0.0759,0.185916 -0.0759,-1.859155 z m 29.82375,3.456388 c 0.15493,-0.06251 0.40846,-0.06251 0.56338,0 0.15493,0.06252 0.0282,0.113665 -0.28169,0.113665 -0.30985,0 -0.43661,-0.05115 -0.28169,-0.113665 z M 85.879153,59.042254 c 0,-1.921127 0.03456,-2.707042 0.0768,-1.746479 0.04224,0.960564 0.04224,2.532395 0,3.492958 -0.04224,0.960564 -0.0768,0.174648 -0.0768,-1.746479 z m 0.858567,0.693113 -0.04786,-2.799846 0.563381,0.529268 c 0.309859,0.291099 0.56338,0.582578 0.56338,0.647732 0,0.06516 -0.12169,-0.0032 -0.270423,-0.151957 -0.148732,-0.148732 -0.348119,-0.270422 -0.44308,-0.270422 -0.09496,0 -0.205255,1.09014 -0.245098,2.422535 l -0.07244,2.422535 z m 5.45181,-0.805789 c 2.26e-4,-1.983098 0.03476,-2.764198 0.07661,-1.735779 0.04185,1.028421 0.04162,2.650957 -4.51e-4,3.605634 -0.04214,0.954679 -0.07638,0.113244 -0.07609,-1.869855 z m 4.415822,3.407874 c 0,-0.04679 0.177465,-0.224259 0.394367,-0.394366 0.357422,-0.280309 0.365392,-0.272338 0.08508,0.08508 -0.294393,0.37538 -0.47945,0.494756 -0.47945,0.309282 z m 4.598308,-0.421958 -0.42929,-0.507043 0.56338,0.448302 c 0.30986,0.246567 0.60563,0.474736 0.65727,0.507043 0.0517,0.03231 -0.009,0.05874 -0.13408,0.05874 -0.12539,0 -0.42117,-0.228169 -0.65728,-0.507042 z m 1.95568,0.443274 c 0.0516,-0.03507 0.29672,-0.212536 0.5446,-0.394366 0.41691,-0.305805 0.42751,-0.301023 0.14143,0.06377 -0.17011,0.216901 -0.41518,0.394366 -0.54461,0.394366 -0.12942,0 -0.19306,-0.0287 -0.14142,-0.06377 z m 4.98611,-3.485528 0.0472,-3.549296 0.12187,3.380282 0.12187,3.380282 1.12676,0.133611 1.12676,0.133609 -1.29578,0.0354 -1.29577,0.0354 z m 5.13596,0.387105 c 0,-3.068689 -0.015,-3.168218 -0.50704,-3.365998 -0.48739,-0.195904 -0.48302,-0.204359 0.11267,-0.218089 l 0.61972,-0.01429 v 3.380282 c 0,1.859155 -0.0507,3.380282 -0.11268,3.380282 -0.062,0 -0.11267,-1.422986 -0.11267,-3.162191 z m 0.94829,-0.161753 -0.0469,-3.43662 0.61972,0.01584 c 0.53673,0.01372 0.55936,0.03932 0.16901,0.191234 -0.41332,0.160849 -0.46083,0.444592 -0.57283,3.420782 l -0.12213,3.245381 z m 10.86072,-0.05634 c 0,-1.921127 0.0346,-2.707042 0.0768,-1.746479 0.0422,0.960564 0.0422,2.532395 0,3.492958 -0.0423,0.960564 -0.0768,0.174648 -0.0768,-1.746479 z m 0.85857,0.693113 -0.0479,-2.799846 0.56338,0.529268 c 0.30986,0.291099 0.56338,0.582578 0.56338,0.647732 0,0.06516 -0.12169,-0.0032 -0.27042,-0.151957 -0.14874,-0.148732 -0.34812,-0.270422 -0.44309,-0.270422 -0.095,0 -0.20525,1.09014 -0.24509,2.422535 l -0.0724,2.422535 z m 5.45181,-0.805789 c 2.2e-4,-1.983098 0.0348,-2.764198 0.0766,-1.735779 0.0419,1.028421 0.0416,2.650957 -4.5e-4,3.605634 -0.0421,0.954679 -0.0764,0.113244 -0.0761,-1.869855 z m 13.28032,1.915493 c 0,-0.929577 0.0398,-1.309859 0.0884,-0.84507 0.0486,0.464788 0.0486,1.225352 0,1.690141 -0.0486,0.464788 -0.0884,0.08451 -0.0884,-0.845071 z m 0.90141,0 c 0,-0.929577 0.0398,-1.309859 0.0884,-0.84507 0.0486,0.464788 0.0486,1.225352 0,1.690141 -0.0486,0.464788 -0.0884,0.08451 -0.0884,-0.845071 z M 68.302251,61.464789 67.872958,60.957747 68.38,61.387041 c 0.476494,0.40343 0.609632,0.584791 0.429294,0.584791 -0.04276,0 -0.270932,-0.228169 -0.507043,-0.507043 z m 9.239437,0 -0.429293,-0.507042 0.507042,0.429294 c 0.476493,0.40343 0.609631,0.584791 0.429293,0.584791 -0.04276,0 -0.270931,-0.228169 -0.507042,-0.507043 z m 4.753805,0.05634 c 0.224336,-0.247887 0.458587,-0.450704 0.520559,-0.450704 0.06197,0 -0.07087,0.202817 -0.295207,0.450704 -0.224335,0.247888 -0.458587,0.450705 -0.520559,0.450705 -0.06197,0 0.07087,-0.202817 0.295207,-0.450705 z m 52.485627,-0.05634 -0.42929,-0.507042 0.50704,0.429294 c 0.4765,0.40343 0.60964,0.584791 0.4293,0.584791 -0.0428,0 -0.27093,-0.228169 -0.50705,-0.507043 z M 24.341271,60.281691 c 9.02e-4,-0.867606 0.04173,-1.194921 0.09051,-0.727369 0.04878,0.467554 0.04796,1.177413 -0.0018,1.577465 -0.04978,0.400054 -0.0897,0.01751 -0.0887,-0.850096 z m 66.29831,0.152744 c -0.368496,-0.45584 -0.46192,-0.651336 -0.207608,-0.434434 0.254315,0.216901 0.527139,0.394366 0.606279,0.394366 0.07914,0 0.176238,-1.140845 0.215774,-2.535211 l 0.07189,-2.535212 0.04817,2.985916 c 0.02649,1.642253 0.02282,2.978594 -0.0082,2.969645 -0.03099,-0.0089 -0.357837,-0.38923 -0.726335,-0.84507 z m 39.211269,0 c -0.3685,-0.45584 -0.46192,-0.651336 -0.20761,-0.434434 0.25432,0.216901 0.52714,0.394366 0.60628,0.394366 0.0791,0 0.17624,-1.140845 0.21577,-2.535211 l 0.0719,-2.535212 0.0482,2.985916 c 0.0265,1.642253 0.0228,2.978594 -0.008,2.969645 -0.031,-0.0089 -0.35783,-0.38923 -0.72633,-0.84507 z M 99.847124,58.140846 c 0,-1.549296 0.036,-2.183099 0.08001,-1.408451 0.044,0.774648 0.044,2.042254 0,2.816901 -0.044,0.774648 -0.08001,0.140846 -0.08001,-1.40845 z m 0.901406,0 c 0,-1.549296 0.036,-2.183099 0.08,-1.408451 0.044,0.774648 0.044,2.042254 0,2.816901 -0.044,0.774648 -0.08,0.140846 -0.08,-1.40845 z m 17.71598,2.422535 c 0,-0.09296 0.76056,-0.169014 1.69014,-0.169014 0.92958,0 1.69014,0.07606 1.69014,0.169014 0,0.09296 -0.76056,0.169014 -1.69014,0.169014 -0.92958,0 -1.69014,-0.07606 -1.69014,-0.169014 z M 104.35335,58.02817 c 4.6e-4,-1.487324 0.0369,-2.06645 0.081,-1.286943 0.0441,0.779504 0.0438,1.996405 -9e-4,2.704225 -0.0446,0.707817 -0.0807,0.07004 -0.0802,-1.417282 z m 0.90141,0 c 4.5e-4,-1.487324 0.0369,-2.06645 0.081,-1.286943 0.0441,0.779504 0.0438,1.996405 -9e-4,2.704225 -0.0446,0.707817 -0.0807,0.07004 -0.0802,-1.417282 z m -29.571573,1.239436 c 0,-0.309859 0.05115,-0.436619 0.113665,-0.28169 0.06252,0.15493 0.06252,0.408451 0,0.56338 -0.06252,0.15493 -0.113665,0.02817 -0.113665,-0.28169 z m 43.413023,-0.05634 c 0.11287,-0.412297 0.15412,-0.433352 0.22078,-0.112676 0.0584,0.280888 0.29942,0.394366 0.83766,0.394366 0.53823,0 0.77927,-0.113478 0.83766,-0.394366 0.0667,-0.320676 0.10791,-0.299621 0.22078,0.112676 0.13129,0.479613 0.074,0.507043 -1.05844,0.507043 -1.13248,0 -1.18973,-0.02743 -1.05844,-0.507043 z M 66.44375,59.042254 c 0,-0.309859 0.05115,-0.436619 0.113665,-0.28169 0.06251,0.15493 0.06251,0.408451 0,0.56338 -0.06252,0.15493 -0.113665,0.02817 -0.113665,-0.28169 z m 0.883619,0.0939 c 0.01082,-0.262524 0.06421,-0.315921 0.136149,-0.136151 0.0651,0.162675 0.05709,0.357043 -0.01778,0.431925 -0.07488,0.07488 -0.128145,-0.05822 -0.11836,-0.295774 z m 9.239437,0 c 0.01082,-0.262524 0.06421,-0.315921 0.136149,-0.136151 0.0651,0.162675 0.05709,0.357043 -0.01778,0.431925 -0.07488,0.07488 -0.128144,-0.05822 -0.118359,-0.295774 z m 7.679761,-0.0939 c 0,-0.309859 0.05115,-0.436619 0.113665,-0.28169 0.06252,0.15493 0.06252,0.408451 0,0.56338 -0.06251,0.15493 -0.113665,0.02817 -0.113665,-0.28169 z m 48.676053,0 c 0,-0.309859 0.0512,-0.436619 0.11367,-0.28169 0.0625,0.15493 0.0625,0.408451 0,0.56338 -0.0625,0.15493 -0.11367,0.02817 -0.11367,-0.28169 z m 0.88362,0.0939 c 0.0108,-0.262524 0.0642,-0.315921 0.13615,-0.136151 0.0651,0.162675 0.0571,0.357043 -0.0178,0.431925 -0.0749,0.07488 -0.12814,-0.05822 -0.11836,-0.295774 z m 11.1747,-0.92019 c -0.0826,-0.08263 -0.15024,-0.251641 -0.15024,-0.375585 0,-0.123944 0.0667,-0.158628 0.14828,-0.07707 0.0816,0.08155 0.30973,0.0224 0.50705,-0.131457 0.32328,-0.252069 0.32606,-0.235163 0.0282,0.170971 -0.18183,0.247887 -0.34239,0.476056 -0.35681,0.507042 -0.0144,0.03099 -0.0938,-0.01127 -0.17644,-0.0939 z M 119.8337,57.418757 c 0.36114,-0.693733 0.361,-0.69363 0.49597,-0.34188 0.0649,0.16917 -0.0807,0.431703 -0.32363,0.583405 -0.4108,0.256552 -0.42284,0.239676 -0.17234,-0.241525 z m -96.174903,-1.30608 c 0,-0.68169 0.04225,-0.960564 0.09388,-0.619719 0.05163,0.340845 0.05163,0.898592 0,1.239437 -0.05163,0.340845 -0.09388,0.06197 -0.09388,-0.619718 z m 44.326837,0.816324 c 0,-0.04679 0.177465,-0.224259 0.394366,-0.394366 0.357422,-0.280309 0.365393,-0.272338 0.08508,0.08508 -0.294393,0.37538 -0.47945,0.494756 -0.47945,0.309282 z m 14.393789,-0.309282 c -0.280308,-0.357422 -0.272338,-0.365393 0.08508,-0.08508 0.216902,0.170107 0.394366,0.347572 0.394366,0.394366 0,0.185474 -0.185056,0.0661 -0.47945,-0.309282 z m 52.085087,0.309282 c 0,-0.04679 0.17746,-0.224259 0.39436,-0.394366 0.35743,-0.280309 0.3654,-0.272338 0.0851,0.08508 -0.2944,0.37538 -0.47945,0.494756 -0.47945,0.309282 z m -60.423115,-1.21069 c -0.280309,-0.357422 -0.272338,-0.365393 0.08508,-0.08508 0.37538,0.294393 0.494756,0.47945 0.309282,0.47945 -0.04679,0 -0.224259,-0.177465 -0.394366,-0.394366 z m 66.478875,0 c -0.28031,-0.357422 -0.27234,-0.365393 0.0851,-0.08508 0.37538,0.294393 0.49476,0.47945 0.30928,0.47945 -0.0468,0 -0.22425,-0.177465 -0.39436,-0.394366 z M 50.408169,54.999216 c 0,-0.364516 0.08021,-0.712333 0.178256,-0.772926 0.09804,-0.06059 0.13765,0.23765 0.08802,0.662759 -0.110566,0.947087 -0.266276,1.011508 -0.266276,0.110167 z m 20.464789,0.508816 c 0.162675,-0.0651 0.357043,-0.05709 0.431926,0.01778 0.07488,0.07488 -0.05822,0.128145 -0.295775,0.11836 -0.262524,-0.01082 -0.315921,-0.06421 -0.136151,-0.136149 z m 9.014084,0 c 0.162675,-0.0651 0.357044,-0.05709 0.431926,0.01778 0.07488,0.07488 -0.05822,0.128145 -0.295775,0.11836 -0.262523,-0.01082 -0.315921,-0.06421 -0.136151,-0.136149 z m 57.464788,0 c 0.16268,-0.0651 0.35704,-0.05709 0.43193,0.01778 0.0749,0.07488 -0.0582,0.128145 -0.29578,0.11836 -0.26252,-0.01082 -0.31592,-0.06421 -0.13615,-0.136149 z m -24.35714,-0.684759 c 0.40006,-0.04978 1.10991,-0.0506 1.57747,-0.0018 0.46755,0.04878 0.14023,0.08951 -0.72737,0.09052 -0.86761,9.01e-4 -1.25015,-0.03891 -0.8501,-0.0887 z M 70.750486,54.604397 c 0.219261,-0.05714 0.523486,-0.05338 0.676056,0.0084 0.15257,0.06173 -0.02682,0.108478 -0.398654,0.103885 -0.371831,-0.0046 -0.496663,-0.0551 -0.277402,-0.112234 z m 8.89712,0.0069 c 0.154929,-0.06252 0.408451,-0.06252 0.56338,0 0.15493,0.06251 0.02817,0.113665 -0.28169,0.113665 -0.309859,0 -0.43662,-0.05115 -0.28169,-0.113665 z m 57.581754,-0.0069 c 0.21926,-0.05714 0.52349,-0.05338 0.67606,0.0084 0.15257,0.06173 -0.0268,0.108478 -0.39866,0.103885 -0.37183,-0.0046 -0.49666,-0.0551 -0.2774,-0.112234 z M 24.94338,52.845071 c 0.291099,-0.309859 0.579973,-0.56338 0.641945,-0.56338 0.06197,0 -0.125494,0.253521 -0.416592,0.56338 -0.291099,0.309859 -0.579973,0.56338 -0.641945,0.56338 -0.06197,0 0.125494,-0.253521 0.416592,-0.56338 z m 2.028169,-1.336255 c 0,-0.06197 0.202817,-0.221221 0.450705,-0.353886 0.247887,-0.132665 0.450704,-0.190506 0.450704,-0.128534 0,0.06197 -0.202817,0.221222 -0.450704,0.353886 -0.247888,0.132665 -0.450705,0.190506 -0.450705,0.128534 z m 32.676057,-1.577464 c 0,-0.06197 0.202817,-0.221222 0.450704,-0.353887 0.247887,-0.132664 0.450704,-0.190506 0.450704,-0.128534 0,0.06197 -0.202817,0.221222 -0.450704,0.353886 -0.247887,0.132665 -0.450704,0.190506 -0.450704,0.128535 z m 2.028169,-1.126761 c 0,-0.06197 0.202817,-0.221221 0.450704,-0.353886 0.247887,-0.132665 0.450704,-0.190506 0.450704,-0.128534 0,0.06197 -0.202817,0.221221 -0.450704,0.353886 -0.247887,0.132665 -0.450704,0.190506 -0.450704,0.128534 z m 1.12676,-0.664322 c 0,-0.0468 0.177465,-0.224259 0.394367,-0.394366 0.357422,-0.280309 0.365392,-0.272338 0.08508,0.08508 -0.294394,0.375381 -0.479451,0.494757 -0.479451,0.309283 z m 0.901409,-0.661488 c 0,-0.03878 0.329577,-0.36836 0.732394,-0.732394 l 0.732395,-0.661879 -0.66188,0.732394 c -0.616964,0.682695 -0.802909,0.835977 -0.802909,0.661879 z M 38.689859,45.886748 c 0,-0.04679 0.177465,-0.22426 0.394367,-0.394367 0.357422,-0.280308 0.365392,-0.272338 0.08508,0.08508 -0.294393,0.375381 -0.47945,0.494756 -0.47945,0.309283 z M 66.252647,42.02817 c 0.0014,-0.743662 0.04333,-1.020719 0.09349,-0.615683 0.05015,0.405037 0.04912,1.013488 -0.0023,1.352113 -0.05142,0.338625 -0.09246,0.0072 -0.09119,-0.73643 z m -17.51207,-0.03918 c 0.136345,-0.102394 0.31202,-0.338283 0.390391,-0.524199 0.10012,-0.23751 0.126921,-0.209557 0.09013,0.094 -0.0288,0.237618 -0.204478,0.473508 -0.390394,0.524199 -0.217415,0.05928 -0.249573,0.02574 -0.09013,-0.094 z m -1.543675,-0.222741 c 0.154929,-0.06251 0.40845,-0.06251 0.56338,0 0.154929,0.06251 0.02817,0.113666 -0.28169,0.113666 -0.309859,0 -0.43662,-0.05115 -0.28169,-0.113666 z m 18.778355,-1.785025 c 0.01082,-0.262524 0.06421,-0.315921 0.136148,-0.136151 0.0651,0.162675 0.05709,0.357041 -0.01778,0.431926 -0.07488,0.07488 -0.128144,-0.05822 -0.118359,-0.295775 z m -0.341332,-0.929249 c -0.122294,-0.321171 -0.09641,-0.347055 0.126152,-0.126152 0.15401,0.152866 0.223249,0.334702 0.153866,0.404086 -0.06938,0.06938 -0.195392,-0.05569 -0.280018,-0.277934 z M 34.633521,38.448807 c 0,-0.04752 0.250452,-0.134283 0.556561,-0.1928 0.306107,-0.05851 0.502941,-0.01963 0.437404,0.08641 -0.115398,0.186718 -0.993965,0.280759 -0.993965,0.106393 z m 1.220913,-1.882109 c 0.01404,-0.981016 0.100426,-1.3005 0.356552,-1.318601 0.185916,-0.01314 0.216135,0.01774 0.06715,0.06859 -0.150896,0.05152 -0.308825,0.635563 -0.356552,1.318603 l -0.08568,1.226123 0.01852,-1.294713 z m 27.820764,-0.0033 c -0.280309,-0.357422 -0.272338,-0.365393 0.08508,-0.08508 0.37538,0.294393 0.494756,0.47945 0.309282,0.47945 -0.04679,0 -0.224259,-0.177465 -0.394366,-0.394366 z m -1.098015,-0.75253 c -0.485356,-0.396998 -0.494895,-0.427346 -0.06889,-0.21913 0.271971,0.132928 0.556827,0.342553 0.633017,0.46583 0.203398,0.329104 0.0668,0.269365 -0.564129,-0.2467 z m -2.154111,-1.231734 c -0.420061,-0.336539 -0.417298,-0.340699 0.0696,-0.104746 0.278874,0.135142 0.507043,0.292847 0.507043,0.350459 0,0.172444 -0.11687,0.122645 -0.576647,-0.245713 z M 58.624255,33.56249 c -0.0817,-0.13219 -0.10021,-0.288677 -0.04114,-0.347748 0.05907,-0.05907 0.16745,0.04908 0.240845,0.240345 0.152378,0.397095 0.02251,0.466943 -0.199707,0.107403 z m -0.58286,-1.05543 c -0.280309,-0.357422 -0.272338,-0.365393 0.08508,-0.08508 0.37538,0.294393 0.494756,0.47945 0.309282,0.47945 -0.04679,0 -0.224259,-0.177465 -0.394366,-0.394366 z m -6.632408,-3.336377 c -0.420061,-0.336538 -0.417298,-0.340698 0.0696,-0.104746 0.278873,0.135142 0.507042,0.292848 0.507042,0.350459 0,0.172444 -0.11687,0.122646 -0.576647,-0.245713 z M 14.451241,28.945314 c -0.420062,-0.336538 -0.417297,-0.340698 0.0696,-0.104746 0.278873,0.135142 0.507042,0.292848 0.507042,0.350459 0,0.172444 -0.116869,0.122645 -0.576646,-0.245713 z M 13.32448,28.269258 c -0.420062,-0.336539 -0.417297,-0.340699 0.06961,-0.104746 0.278873,0.135141 0.507042,0.292847 0.507042,0.350458 0,0.172444 -0.116869,0.122646 -0.576647,-0.245712 z m -1.029563,-0.719962 c -0.280309,-0.357422 -0.272338,-0.365393 0.08508,-0.08508 0.216902,0.170107 0.394366,0.347572 0.394366,0.394366 0,0.185474 -0.185056,0.0661 -0.479449,-0.309282 z m -1.115071,-0.901408 -0.546325,-0.619719 0.619719,0.546324 c 0.340845,0.30048 0.619718,0.579353 0.619718,0.619718 0,0.176739 -0.18249,0.0329 -0.693112,-0.546323 z m -0.913098,-1.126761 c -0.2803086,-0.357422 -0.2723379,-0.365393 0.08508,-0.08508 0.216902,0.170107 0.394366,0.347572 0.394366,0.394366 0,0.185474 -0.185056,0.0661 -0.479449,-0.309282 z M 9.2444973,22.309859 c 0,-0.929577 0.039779,-1.309859 0.088397,-0.84507 0.048618,0.464789 0.048618,1.225352 0,1.690141 -0.048618,0.464789 -0.088397,0.08451 -0.088397,-0.845071 z M 8.5451742,13.379706 C 8.4971582,7.7883798 8.5263461,7.2400485 8.8870424,6.9571708 9.2354064,6.6839647 9.2489877,6.689484 9.0034704,7.004485 8.8027161,7.2620548 8.7077789,9.0456048 8.6616024,13.42702 l -0.06393,6.065938 z m 15.1481668,2.338604 -0.890806,-0.957746 0.957747,0.890805 c 0.52676,0.489943 0.957746,0.920928 0.957746,0.957746 0,0.170496 -0.196248,-1.1e-4 -1.024687,-0.890805 z m -1.362921,-1.577465 -0.429293,-0.507042 0.507042,0.429293 c 0.476494,0.403429 0.609632,0.584791 0.429294,0.584791 -0.04276,0 -0.270932,-0.228169 -0.507043,-0.507042 z m -1.341305,-1.577465 -0.890805,-0.957746 0.957747,0.890805 c 0.890694,0.82844 1.061301,1.024688 0.890805,1.024688 -0.03682,0 -0.467804,-0.430986 -0.957747,-0.957747 z m -2.028169,-2.253521 -0.890805,-0.9577462 0.957746,0.8908052 c 0.890695,0.82844 1.061302,1.024688 0.890806,1.024688 -0.03682,0 -0.467804,-0.430986 -0.957747,-0.957747 z M 16.932777,8.0563381 16.041972,7.0985916 16.999718,7.9893968 c 0.890695,0.8284399 1.061302,1.0246878 0.890806,1.0246878 -0.03682,0 -0.467804,-0.4309859 -0.957747,-0.9577465 z M 10.4921,7.2676057 C 10.215686,6.915151 10.222438,6.9042076 10.55563,7.1646331 c 0.222896,0.1742188 0.608024,0.2323588 0.957746,0.1445841 0.545121,-0.1368167 0.584936,-0.2353021 0.584936,-1.4468989 0,-0.9742639 0.09884,-1.3748778 0.394366,-1.5985046 0.335499,-0.2538702 0.352318,-0.2512613 0.112676,0.017478 -0.156956,0.1760135 -0.28169,0.8971268 -0.28169,1.6285122 0,1.2016575 -0.04887,1.3311985 -0.578051,1.5323944 -0.7825,0.2975052 -0.895623,0.2817492 -1.253511,-0.1745929 z M 14.545544,5.5171196 C 13.722509,4.7136897 13.116988,4.0563381 13.199942,4.0563381 c 0.08295,0 0.804121,0.6591549 1.602593,1.4647887 0.798473,0.8056338 1.403994,1.4629855 1.345603,1.4607816 -0.05839,-0.00221 -0.779558,-0.6613591 -1.602594,-1.4647888 z"
       id="path4564"
       inkscape:connector-curvature="0" />
    <path
       style="fill:#d1d0d1;stroke-width:0.22535211"
       d="m 27.040165,65.334462 c -1.248442,-0.617974 -2.350554,-2.307099 -2.45651,-3.764918 L 24.506425,60.507043 24.72104,61.511 c 0.488072,2.283198 2.33222,4.066466 4.205295,4.066466 1.164904,0 2.564498,-0.619667 12.218306,-5.409619 5.006467,-2.484072 9.153374,-4.465789 9.215346,-4.403817 0.137186,0.137185 -17.609203,8.964476 -19.284218,9.592225 -1.529824,0.573337 -2.847687,0.56622 -4.035608,-0.02179 z m -2.511423,-5.532293 c -0.01983,-0.38768 -0.188178,-1.068929 -0.374094,-1.513889 -0.185915,-0.444958 -0.338028,-1.463542 -0.338028,-2.263522 0,-1.297891 0.08002,-1.559522 0.743121,-2.429774 0.997336,-1.308892 2.590887,-2.231768 8.524658,-4.936897 2.756624,-1.256707 5.475216,-2.603531 6.041314,-2.992937 1.102425,-0.758335 8.077248,-3.875051 8.260899,-3.691403 0.06055,0.06055 -0.88272,0.540581 -2.096151,1.06674 -3.926256,1.702475 -6.019446,2.716821 -6.483971,3.142085 -0.250062,0.228928 -2.736349,1.452647 -5.525081,2.719376 -6.888163,3.128815 -7.844625,3.692241 -8.731241,5.143328 -0.611637,1.001044 -0.678321,2.759858 -0.15429,4.069542 0.194651,0.486476 0.312287,1.223738 0.261418,1.638364 l -0.09249,0.753861 z m 25.722551,-5.143016 c 0.04208,-0.632811 0.244736,-0.758147 4.213214,-2.605663 7.308836,-3.402612 9.784771,-5.011177 10.882844,-7.070375 0.402946,-0.75564 0.494504,-1.301296 0.495822,-2.954945 0.0027,-3.408825 -0.984072,-4.707273 -5.386323,-7.087503 -1.856334,-1.003691 -2.818587,-1.813906 -2.154285,-1.813906 0.120054,0 0.21828,0.0943 0.21828,0.209566 0,0.115263 0.785916,0.637882 1.746479,1.161375 3.012415,1.641726 4.397515,2.739808 5.134673,4.070679 0.615664,1.111518 0.668144,1.383275 0.668144,3.459789 0,2.051184 -0.0555,2.347932 -0.61813,3.305023 -1.209735,2.057881 -3.601255,3.601169 -10.754113,6.939808 -3.401071,1.587468 -4.191094,2.043405 -4.325891,2.49655 -0.152622,0.513075 -0.161618,0.504847 -0.120714,-0.110398 z M 48.007642,42.255572 c -0.377526,-0.276701 -0.343545,-0.301546 0.364196,-0.266287 0.559885,0.02789 0.801924,-0.06455 0.856104,-0.32697 0.05412,-0.262148 -0.486536,-0.655579 -1.907331,-1.387948 -3.636302,-1.874382 -10.945789,-5.144052 -11.243962,-5.029632 -0.185111,0.07103 -0.326206,0.639592 -0.380356,1.532685 l -0.08608,1.419764 0.0187,-1.577465 c 0.0169,-1.425217 0.0645,-1.584005 0.493323,-1.645228 0.738533,-0.105443 12.525359,5.388565 13.134017,6.121951 0.665215,0.801535 -0.394393,1.78521 -1.248606,1.15913 z M 31.140564,36.754576 C 13.996303,28.912809 12.273306,27.969668 10.367367,25.38366 9.4424955,24.12878 9.3940847,23.986092 9.3940847,22.514981 c 0,-0.857998 -0.1523698,-1.928923 -0.3418065,-2.402372 C 8.7701807,19.407577 8.7216441,18.196283 8.7744281,13.178471 l 0.063956,-6.0798794 0.059665,6.1971834 c 0.048445,5.031861 0.1218803,6.279439 0.3905262,6.634621 0.2251648,0.297694 0.3337789,1.017601 0.3399946,2.253521 0.00899,1.788173 0.023907,1.83513 0.9704811,3.05552 1.849866,2.384978 3.487513,3.32325 15.358414,8.799421 4.090141,1.886824 7.842253,3.612518 8.338028,3.834878 0.495775,0.222357 0.749296,0.409392 0.56338,0.415632 -0.185915,0.0062 -1.859155,-0.684417 -3.718309,-1.534792 z M 54.126479,30.869168 C 43.530242,25.575176 34.500115,21.251759 29.675775,19.162731 25.346659,17.288145 24.236029,16.714606 23.591268,16.020636 23.157465,15.553725 21.484226,13.6635 19.872958,11.820137 18.26169,9.9767731 15.98,7.4600819 14.802535,6.2274899 13.625071,4.9948979 12.864507,4.0961963 13.112395,4.2303757 c 0.711321,0.3850324 4.919072,4.9375827 10.167452,11.0006133 1.086898,1.255606 1.346639,1.415765 4.507042,2.779095 9.979935,4.30513 31.742157,14.94031 30.465566,14.888499 -0.0383,-0.0016 -1.89499,-0.914792 -4.125976,-2.029415 z M 10.369121,7.58284 C 10.018767,7.2914302 9.5800002,6.9952107 9.3940847,6.9245747 9.1091017,6.8162991 9.1131736,6.7933535 9.4200319,6.7783543 c 0.2001866,-0.00978 0.6218151,0.1850261 0.9369531,0.4329134 0.315138,0.2478873 0.683743,0.4507042 0.819123,0.4507042 0.13538,0 0.246146,0.1014085 0.246146,0.2253521 0,0.3679162 -0.375114,0.2594624 -1.053133,-0.304484 z m 1.53052,0.095623 C 11.672725,7.5382212 11.684892,7.4705319 11.955691,7.366616 12.202838,7.271777 12.32449,6.8286243 12.38187,5.8141285 l 0.0803,-1.4197625 0.04342,1.6205033 c 0.04399,1.6415281 -0.082,1.9874127 -0.605952,1.6635937 z"
       id="path4562"
       inkscape:connector-curvature="0" />
    <path
       style="fill:#e5ada1;stroke-width:0.22535211"
       d="m 97.252663,59.323944 c -0.280309,-0.357422 -0.272338,-0.365392 0.08508,-0.08508 0.216901,0.170107 0.394366,0.347572 0.394366,0.394367 0,0.185473 -0.185057,0.0661 -0.47945,-0.309283 z M 49.2349,43.400674 48.62501,42.664873 49.219399,42.221098 c 0.405471,-0.302729 0.547461,-0.566069 0.446738,-0.828548 -0.134581,-0.350713 -5.335241,-2.984653 -10.34842,-5.241086 l -1.963689,-0.883858 1.119009,-0.06813 c 1.24002,-0.0755 1.478999,0.01999 9.42912,3.7671 5.094269,2.401075 5.806576,2.839933 5.401562,3.327944 -0.233578,0.281445 -3.207153,1.908061 -3.396967,1.858222 -0.03408,-0.0089 -0.336413,-0.34738 -0.671852,-0.75207 z"
       id="path4560"
       inkscape:connector-curvature="0" />
    <path
       style="fill:#b3a7af;stroke-width:0.22535211"
       d="m 49.975257,54.629109 c 0.01082,-0.262524 0.06421,-0.315921 0.136148,-0.136151 0.0651,0.162675 0.05709,0.357042 -0.01778,0.431926 -0.07489,0.07488 -0.128144,-0.05822 -0.118359,-0.295775 z m 2.657687,-7.248827 c -0.280308,-0.357422 -0.272338,-0.365392 0.08508,-0.08508 0.216902,0.170107 0.394367,0.347572 0.394367,0.394367 0,0.185473 -0.185057,0.0661 -0.479451,-0.309283 z M 51.05548,45.577465 c -0.280309,-0.357422 -0.272338,-0.365392 0.08508,-0.08508 0.216901,0.170107 0.394366,0.347572 0.394366,0.394367 0,0.185473 -0.185057,0.0661 -0.47945,-0.309283 z m -1.609292,-4.094612 c -0.09802,-0.374839 -0.06869,-0.462823 0.09853,-0.295596 0.130952,0.130952 0.193756,0.371114 0.139563,0.533692 -0.05626,0.168778 -0.158409,0.06663 -0.238096,-0.238096 z M 35.53493,34.922506 c 0,-0.120054 0.152112,-0.21828 0.338028,-0.21828 0.185915,0 0.338028,0.03986 0.338028,0.08857 0,0.04871 -0.152113,0.146937 -0.338028,0.218281 -0.185916,0.07134 -0.338028,0.03149 -0.338028,-0.08857 z m -14.105918,-21.232365 -0.429294,-0.507042 0.507043,0.429293 c 0.476494,0.403429 0.609632,0.584791 0.429293,0.584791 -0.04276,0 -0.270931,-0.228169 -0.507042,-0.507042 z m -2.020935,-2.253521 -0.66188,-0.732395 0.732395,0.66188 c 0.402817,0.364034 0.732394,0.693611 0.732394,0.732395 0,0.174098 -0.185944,0.02081 -0.802909,-0.66188 z M 17.383481,9.1830987 16.492676,8.2253522 17.450423,9.1161574 c 0.890694,0.8284399 1.061301,1.0246876 0.890805,1.0246876 -0.03682,0 -0.467804,-0.4309857 -0.957747,-0.9577463 z M 10.967268,8.2201934 C 10.729119,7.933242 10.743061,7.900266 11.052351,8.0189515 c 0.203446,0.07807 0.369903,0.2325039 0.369903,0.343187 0,0.2897935 -0.130451,0.2490961 -0.454986,-0.1419451 z m 1.162213,-0.1826345 c -0.188755,-0.2274364 -0.168075,-0.3004697 0.08508,-0.3004697 0.183947,0 0.33445,0.1352113 0.33445,0.3004697 0,0.1652581 -0.03829,0.3004694 -0.08508,0.3004694 -0.0468,0 -0.197298,-0.1352113 -0.33445,-0.3004694 z M 15.020189,6.5915494 13.788451,5.2957747 15.084226,6.5275133 C 15.796902,7.2049696 16.38,7.7880681 16.38,7.823288 16.38,7.9905563 16.164514,7.795365 15.020189,6.5915494 Z M 9.3518311,7.0573265 C 9.5145072,6.9922288 9.7088734,7.0002349 9.7837561,7.0751181 9.8586386,7.1500008 9.72554,7.2032625 9.4879815,7.1934775 9.2254591,7.1826651 9.1720603,7.1292654 9.3518311,7.0573272 Z"
       id="path4558"
       inkscape:connector-curvature="0" />
    <path
       style="fill:#ef977b;stroke-width:0.22535211"
       d="m 49.480361,53.940021 c -0.352266,-0.424453 -0.121071,-0.617179 1.288638,-1.074222 0.632259,-0.204985 1.323274,-0.499723 1.535594,-0.654972 0.36137,-0.264242 0.356883,-0.319331 -0.07023,-0.862324 l -0.456266,-0.580047 0.576574,-0.262704 c 0.345672,-0.157501 0.52867,-0.387545 0.456954,-0.574434 -0.07469,-0.194632 0.128635,-0.41456 0.54128,-0.585483 0.363495,-0.150565 0.660173,-0.337508 0.659283,-0.415428 -9.01e-4,-0.07792 -0.916246,-1.178488 -2.034121,-2.445703 l -2.032502,-2.30403 1.540049,-0.775556 c 0.847027,-0.426555 1.665177,-0.926323 1.818108,-1.110596 0.480628,-0.579121 0.236132,-0.713712 -9.543437,-5.253523 l -4.056338,-1.883009 4.732394,-0.0023 c 2.602817,-0.0011 6.648368,-0.06913 8.99011,-0.150966 l 4.257714,-0.148795 -1.440813,-0.72832 -1.440814,-0.72832 1.464789,-0.08336 c 0.805634,-0.04585 1.523389,-0.0027 1.595013,0.0959 0.07162,0.09859 1.233677,0.79289 2.582337,1.542884 1.348663,0.749995 2.840899,1.67155 3.316083,2.047901 1.837091,1.455004 2.630754,4.431103 1.874984,7.030862 -0.755004,2.597127 -2.880958,4.1235 -11.158526,8.011509 -4.0125,1.884687 -4.767667,2.17106 -4.996854,1.894907 z M 37.847888,34.993222 c 0.342548,-0.0518 0.84959,-0.05041 1.12676,0.0031 0.27717,0.05349 -0.0031,0.09587 -0.622817,0.09418 -0.619718,-0.0018 -0.846492,-0.04546 -0.503943,-0.09725 z"
       id="path4556"
       inkscape:connector-curvature="0" />
    <path
       style="fill:#8b4fc8;stroke-width:0.22535211"
       d="m 24.288857,57.880393 c -0.621817,-1.783739 -0.130216,-3.84892 1.17926,-4.953995 0.86832,-0.732779 4.989878,-2.773807 11.813292,-5.850035 2.005548,-0.904169 1.751718,-0.343925 -0.281691,0.621736 l -1.69014,0.802645 v 1.975809 1.97581 l -0.732395,0.290786 c -0.402817,0.15993 -2.38393,1.084771 -4.402474,2.055202 -2.824426,1.357862 -3.896917,1.997814 -4.654526,2.777336 l -0.984444,1.012918 z M 50.154071,44.676057 c -0.280309,-0.357422 -0.272338,-0.365393 0.08508,-0.08508 0.216902,0.170107 0.394366,0.347572 0.394366,0.394366 0,0.185474 -0.185057,0.0661 -0.47945,-0.309282 z M 48.576606,42.87324 c -0.280308,-0.357422 -0.272338,-0.365393 0.08508,-0.08508 0.216902,0.170107 0.394367,0.347572 0.394367,0.394366 0,0.185474 -0.185057,0.0661 -0.479451,-0.309282 z M 9.1123945,19.699703 C 9.0194368,19.60665 8.9433804,16.6877 8.9433804,13.213146 c 0,-4.2784838 0.073905,-6.2434664 0.2289898,-6.0883815 0.1470463,0.1470463 0.2075277,2.4682429 0.1690141,6.4865575 -0.032987,3.441662 -0.136032,6.181433 -0.2289898,6.088381 z m 13.2180255,-4.882801 -0.429293,-0.507043 0.507042,0.429293 c 0.476494,0.40343 0.609632,0.584792 0.429294,0.584792 -0.04276,0 -0.270932,-0.228169 -0.507043,-0.507042 z m -2.148179,-2.366198 c -0.280309,-0.357421 -0.272338,-0.365391 0.08508,-0.08508 0.37538,0.294393 0.494756,0.479449 0.309283,0.479449 -0.04679,0 -0.22426,-0.177465 -0.394366,-0.394367 z"
       id="path4554"
       inkscape:connector-curvature="0" />
    <path
       style="fill:#9d55aa;stroke-width:0.22535211"
       d="m 25.506761,57.464789 c 0.224336,-0.247887 0.458587,-0.450704 0.520559,-0.450704 0.06197,0 -0.07087,0.202817 -0.295207,0.450704 -0.224336,0.247888 -0.458587,0.450705 -0.520559,0.450705 -0.06197,0 0.07087,-0.202817 0.295207,-0.450705 z m 23.640561,-9.521126 -0.429294,-0.507043 0.507043,0.429294 c 0.476493,0.40343 0.609631,0.584791 0.429293,0.584791 -0.04276,0 -0.270932,-0.228169 -0.507042,-0.507042 z m -2.764117,-2.880737 c -0.292606,-0.243764 -0.435083,-0.443207 -0.316618,-0.443207 0.118466,0 0.398937,0.202817 0.623272,0.450704 0.515354,0.569458 0.381986,0.566197 -0.306654,-0.0075 z m -10.299072,-15.823489 -0.661879,-0.732394 0.732394,0.661879 c 0.682695,0.616965 0.835978,0.802909 0.66188,0.802909 -0.03878,0 -0.368361,-0.329577 -0.732395,-0.732394 z m -5.524007,-1.464789 -0.546323,-0.619718 0.619718,0.546323 c 0.340845,0.30048 0.619719,0.579354 0.619719,0.619719 0,0.176739 -0.182491,0.0329 -0.693114,-0.546324 z m 2.59443,-1.690141 -0.66188,-0.732394 0.732395,0.661879 c 0.682695,0.616965 0.835977,0.80291 0.661879,0.80291 -0.03878,0 -0.368361,-0.329578 -0.732394,-0.732395 z m -5.749359,-1.690141 -0.546324,-0.619718 0.619719,0.546324 c 0.340845,0.30048 0.619718,0.579353 0.619718,0.619718 0,0.176739 -0.18249,0.0329 -0.693113,-0.546324 z m 2.594429,-1.69014 -0.661879,-0.732395 0.732394,0.66188 c 0.682695,0.616964 0.835977,0.802909 0.661879,0.802909 -0.03878,0 -0.36836,-0.329577 -0.732394,-0.732394 z m 3.957839,0.394366 c -0.309859,-0.177131 -0.456002,-0.325652 -0.324762,-0.330042 0.131241,-0.0044 0.435466,0.140902 0.676057,0.322876 0.556389,0.420831 0.378677,0.424457 -0.351295,0.0072 z m -2.478873,-1.126761 c -0.309859,-0.177131 -0.456003,-0.32565 -0.324762,-0.330043 0.131241,-0.0044 0.435466,0.140903 0.676056,0.322876 0.55639,0.420832 0.378678,0.424457 -0.351294,0.0072 z m -1.577465,-0.676056 c -0.309859,-0.177132 -0.461972,-0.322057 -0.338028,-0.322057 0.123943,0 0.478873,0.144925 0.788732,0.322057 0.309859,0.177131 0.461972,0.322057 0.338028,0.322057 -0.123943,0 -0.478873,-0.144926 -0.788732,-0.322057 z m -5.76789,-0.394366 -0.429293,-0.507043 0.507042,0.429294 c 0.476494,0.403429 0.609632,0.584791 0.429294,0.584791 -0.04276,0 -0.270932,-0.228169 -0.507043,-0.507042 z m 4.359439,-0.099 c -0.216901,-0.05668 -0.394366,-0.2006 -0.394366,-0.319816 0,-0.124834 0.215027,-0.104882 0.507042,0.04705 0.845134,0.439709 0.814056,0.514947 -0.112676,0.272766 z m -1.533257,-1.365786 -0.776602,-0.84507 0.845071,0.776601 c 0.786573,0.722843 0.948685,0.913539 0.776601,0.913539 -0.03766,0 -0.41794,-0.380281 -0.84507,-0.84507 z m -6.089433,-2.028169 -0.546324,-0.619718 0.619718,0.546324 c 0.340846,0.300478 0.619719,0.579352 0.619719,0.619718 0,0.176738 -0.18249,0.0329 -0.693113,-0.546324 z m -3.27196,-3.492958 -0.429293,-0.507042 0.507042,0.429293 c 0.278873,0.236111 0.507042,0.46428 0.507042,0.507042 0,0.180339 -0.181362,0.0472 -0.584791,-0.429293 z m -3.263251,-3.492958 -0.546324,-0.619718 0.619718,0.546324 c 0.57922,0.510623 0.723062,0.693113 0.546324,0.693113 -0.04037,0 -0.319239,-0.278874 -0.619718,-0.619719 z M 16.020561,7.830986 15.591268,7.3239437 16.09831,7.7532368 c 0.476495,0.4034294 0.609632,0.5847915 0.429293,0.5847915 -0.04276,0 -0.270931,-0.228169 -0.507042,-0.5070423 z M 13.421678,5.0140846 c -0.280309,-0.3574211 -0.272338,-0.3653918 0.08508,-0.085083 0.37538,0.2943931 0.494756,0.4794491 0.309283,0.4794491 -0.0468,0 -0.22426,-0.1774648 -0.394366,-0.3943662 z"
       id="path4552"
       inkscape:connector-curvature="0" />
    <path
       style="fill:#e7674c;stroke-width:0.22535211"
       d="m 67.731536,62.02817 c -0.280309,-0.357422 -0.272338,-0.365393 0.08508,-0.08508 0.37538,0.294393 0.494756,0.47945 0.309282,0.47945 -0.04679,0 -0.224259,-0.177465 -0.394366,-0.394366 z m 6.113253,0.309282 c 0,-0.04679 0.177465,-0.224259 0.394366,-0.394366 0.357422,-0.280309 0.365393,-0.272338 0.08508,0.08508 -0.294393,0.37538 -0.47945,0.494756 -0.47945,0.309282 z M 94.548437,62.02817 c -0.280308,-0.357422 -0.272338,-0.365393 0.08508,-0.08508 0.375381,0.294393 0.494756,0.47945 0.309283,0.47945 -0.04679,0 -0.22426,-0.177465 -0.394367,-0.394366 z m 39.661973,0 c -0.28031,-0.357422 -0.27234,-0.365393 0.0851,-0.08508 0.2169,0.170107 0.39437,0.347572 0.39437,0.394366 0,0.185474 -0.18506,0.0661 -0.47945,-0.309282 z m 6.11325,0.309282 c 0,-0.04679 0.17747,-0.224259 0.39437,-0.394366 0.35742,-0.280309 0.36539,-0.272338 0.0851,0.08508 -0.29439,0.37538 -0.47945,0.494756 -0.47945,0.309282 z M 68.18224,61.577466 c -0.280309,-0.357422 -0.272338,-0.365393 0.08508,-0.08508 0.37538,0.294393 0.494756,0.47945 0.309282,0.47945 -0.04679,0 -0.224259,-0.177465 -0.394366,-0.394366 z m 9.239437,0 c -0.280309,-0.357422 -0.272338,-0.365393 0.08508,-0.08508 0.216901,0.170107 0.394366,0.347571 0.394366,0.394366 0,0.185474 -0.185057,0.0661 -0.47945,-0.309282 z m 4.76114,0.309282 c 0,-0.04679 0.177465,-0.224259 0.394366,-0.394366 0.357422,-0.280309 0.365393,-0.272338 0.08508,0.08508 -0.294393,0.37538 -0.47945,0.494756 -0.47945,0.309282 z m 52.478293,-0.309282 c -0.28031,-0.357422 -0.27233,-0.365393 0.0851,-0.08508 0.37538,0.294393 0.49475,0.47945 0.30928,0.47945 -0.0468,0 -0.22426,-0.177465 -0.39437,-0.394366 z M 42.464507,34.98643 c 1.766197,-0.03808 4.656338,-0.03808 6.422535,0 1.766198,0.03807 0.321127,0.06923 -3.211267,0.06923 -3.532395,0 -4.977465,-0.03115 -3.211268,-0.06923 z m 12.079822,-1.687475 c -0.05853,-0.09471 0.58407,-0.160431 1.428005,-0.146053 1.641185,0.02796 1.543053,0.132924 -0.231606,0.247732 -0.599488,0.03878 -1.137868,-0.007 -1.196399,-0.101679 z M 25.619437,17.915493 c -0.420458,-0.433803 -0.668521,-0.781411 -0.55125,-0.772462 0.203097,0.0155 1.595518,1.561195 1.406384,1.561195 -0.04987,0 -0.434677,-0.35493 -0.855134,-0.788733 z"
       id="path4550"
       inkscape:connector-curvature="0" />
    <path
       style="fill:#f16439;stroke-width:0.22535211"
       d="m 51.421992,50.478452 c -0.169266,-0.273879 0.955626,-0.738526 1.289055,-0.532455 0.138238,0.08544 0.01305,0.270472 -0.300602,0.444331 -0.657205,0.364287 -0.809388,0.377855 -0.988453,0.08812 z M 36.09831,34.704226 c -0.176266,-0.285206 0.122058,-0.285206 0.56338,0 0.291311,0.188259 0.285361,0.218927 -0.04304,0.221902 -0.209587,0.0019 -0.443741,-0.09796 -0.520343,-0.221902 z m 0.834373,-0.236014 C 36.668,34.044388 36.883628,33.756205 39.5827,30.926511 c 1.61598,-1.694184 2.938145,-3.188057 2.938145,-3.319712 0,-0.131657 -1.437717,-0.946341 -3.194929,-1.810411 -1.75721,-0.86407 -3.658619,-1.881803 -4.225352,-2.261629 -0.854105,-0.572424 -5.049172,-2.553347 -6.887277,-3.252194 -0.266625,-0.101371 -1.035371,-0.821816 -1.708327,-1.600989 -0.672953,-0.779173 -1.071439,-1.354741 -0.885523,-1.279041 5.677282,2.311657 12.669052,5.590301 24.200158,11.348156 l 8.538188,4.263394 -2.002977,0.112676 -2.002975,0.112676 1.577465,0.833988 1.577465,0.833985 -10.142975,0.01109 c -9.983069,0.01091 -10.147518,0.0038 -10.431103,-0.450283 z"
       id="path4548"
       inkscape:connector-curvature="0" />
    <path
       style="fill:#976f63;stroke-width:0.22535211"
       d="M 27.190934,65.070423 C 26.5008,64.721499 25.976415,64.217626 25.509382,63.454644 24.92848,62.505641 24.819405,62.079079 24.752273,60.493833 l -0.07843,-1.852075 0.865959,-0.95851 c 0.684072,-0.757188 1.670871,-1.346296 4.698149,-2.804746 2.107705,-1.01543 4.136417,-1.965931 4.508248,-2.112225 l 0.676057,-0.265992 -0.07435,-1.8265 c -0.04507,-1.107263 0.02148,-1.922328 0.169014,-2.069859 0.174249,-0.174249 0.243362,1.305424 0.243362,5.210159 0,2.999437 0.07606,5.449927 0.169014,5.445535 0.09296,-0.0044 0.422535,-0.152911 0.732394,-0.330042 0.756494,-0.432451 0.901409,-0.416293 0.901409,0.100507 0,0.378227 0.565575,0.166466 4.112676,-1.53986 2.261972,-1.088117 4.860462,-2.402932 5.774422,-2.92181 1.816356,-1.031191 1.983953,-1.015017 2.616246,0.252444 0.189023,0.378907 0.317857,0.714747 0.286296,0.746308 -0.199427,0.199427 -17.60962,8.746402 -18.97024,9.312832 -1.993663,0.829962 -2.849706,0.868854 -4.191565,0.190424 z M 26.295493,34.175908 C 16.054087,29.430022 15.427186,29.12042 13.450423,27.832244 11.882962,26.810792 11.159489,26.106098 10.214262,24.680084 9.7055051,23.912548 9.6194368,23.540823 9.6194368,22.11106 v -1.67164 l 0.6453572,0.890889 c 1.806966,2.494444 4.786199,4.159974 19.124457,10.691463 l 6.136009,2.79513 0.0048,1.746479 c 0.0027,0.960563 -0.07122,1.744448 -0.16418,1.741967 -0.09296,-0.0025 -4.174648,-1.860728 -9.070423,-4.12944 z"
       id="path4546"
       inkscape:connector-curvature="0" />
    <path
       style="fill:#7329be;stroke-width:0.22535211"
       d="m 50.280041,49.070423 c -3.516257,-3.931319 -4.139333,-4.517699 -4.490635,-4.226145 -0.286582,0.237841 -0.423997,0.219062 -0.784536,-0.107221 -0.42025,-0.38032 -0.53954,-0.350016 -3.094366,0.786067 -3.318639,1.475736 -3.220645,1.439468 -3.220645,1.191946 0,-0.580007 0.919976,-1.130569 4.770195,-2.854747 l 4.206815,-1.883867 1.1106,1.152617 c 1.778355,1.845636 5.010982,5.572816 5.010982,5.777605 0,0.147076 -2.236248,1.121492 -2.57378,1.121492 -0.0429,0 -0.463484,-0.430986 -0.93463,-0.957747 z M 34.746197,30.163239 31.365916,28.57662 23.81662,20.482863 C 19.664507,16.031296 15.430704,11.475725 14.408169,10.35937 L 12.549014,8.3296348 V 6.2663805 4.2031261 l 0.589237,0.5463243 c 0.32408,0.3004784 2.422778,2.5744933 4.663772,5.0533666 2.240995,2.478873 5.043444,5.470423 6.227665,6.647887 3.70825,3.687094 14.522021,15.37541 14.165907,15.31155 -0.03801,-0.0068 -1.590243,-0.726373 -3.449398,-1.599015 z"
       id="path4544"
       inkscape:connector-curvature="0" />
    <path
       style="fill:#ec3700;stroke-width:0.22535211"
       d="m 36.126664,33.608796 c -0.288811,-0.319133 -0.373535,-0.734993 -0.322675,-1.583827 l 0.06897,-1.151064 1.307682,0.619384 1.307682,0.619387 -0.985005,0.964442 c -0.962098,0.94201 -0.994116,0.954378 -1.376653,0.531678 z m 1.042069,-3.424462 -1.408451,-1.545456 v -2.251601 -2.251603 l 0.84507,0.353 c 1.600012,0.668352 5.655207,2.765447 5.799703,2.999245 0.134875,0.218233 -3.418299,4.313578 -3.699759,4.264298 -0.07046,-0.01233 -0.761916,-0.717884 -1.536563,-1.567883 z"
       id="path4542"
       inkscape:connector-curvature="0" />
    <path
       style="fill:#dd3b00;stroke-width:0.22535211"
       d="m 33.734046,31.10071 c -1.790753,-1.961534 -1.822028,-2.014537 -0.982131,-1.664453 0.477138,0.19888 1.349212,0.605269 1.937944,0.903088 1.061348,0.536896 1.070423,0.551008 1.070423,1.664453 0,0.617629 -0.03973,1.122963 -0.08829,1.122963 -0.04856,0 -0.920635,-0.911723 -1.937946,-2.026051 z m 4.251011,0.05422 c -0.280309,-0.357422 -0.272338,-0.365393 0.08508,-0.08508 0.37538,0.294393 0.494756,0.47945 0.309282,0.47945 -0.04679,0 -0.224259,-0.177465 -0.394366,-0.394366 z M 32.305305,24.982439 C 30.343094,22.87168 28.77959,21.102758 28.830846,21.0515 c 0.05126,-0.05126 1.504591,0.523409 3.229627,1.277037 1.725035,0.753627 3.257017,1.421138 3.404404,1.483357 0.177356,0.07487 0.291664,0.94517 0.338028,2.573609 0.03853,1.353267 0.07005,2.45468 0.07005,2.447581 0,-0.0071 -1.605445,-1.739887 -3.567653,-3.850645 z"
       id="path4540"
       inkscape:connector-curvature="0" />
    <path
       style="fill:#900359;stroke-width:0.22535211"
       d="m 35.812597,53.853024 0.06036,-5.427847 1.014084,-0.541909 c 1.294439,-0.691723 3.912384,-1.873289 5.045695,-2.277289 0.482172,-0.171883 1.2262,-0.528532 1.653393,-0.792552 0.769363,-0.475491 0.780863,-0.475887 1.214974,-0.04178 0.43411,0.434112 0.402464,0.45413 -3.343535,2.114995 l -3.781794,1.676735 -0.06073,4.899067 -0.06073,4.899067 -0.901041,0.459678 -0.901041,0.459678 z M 26.492099,23.492958 c -0.280308,-0.357422 -0.272338,-0.365393 0.08508,-0.08508 0.216902,0.170107 0.394366,0.347572 0.394366,0.394366 0,0.185474 -0.185056,0.0661 -0.47945,-0.309282 z m -6.53521,-6.985916 c -0.280309,-0.357421 -0.272338,-0.365391 0.08508,-0.08508 0.216901,0.170105 0.394366,0.34757 0.394366,0.394366 0,0.185472 -0.185056,0.0661 -0.479449,-0.309284 z M 13.421678,9.5211269 c -0.280309,-0.3574211 -0.272338,-0.3653918 0.08508,-0.085083 0.37538,0.294393 0.494756,0.479449 0.309283,0.479449 -0.0468,0 -0.22426,-0.1774648 -0.394366,-0.3943662 z M 10.041396,7.4929578 c -0.2803087,-0.357421 -0.272338,-0.3653917 0.08508,-0.085083 0.216901,0.1701057 0.394366,0.3475705 0.394366,0.3943662 0,0.1854725 -0.185056,0.066096 -0.479449,-0.3092834 z"
       id="path4538"
       inkscape:connector-curvature="0" />
    <path
       style="fill:#d70101;stroke-width:0.22535211"
       d="m 69.816124,63.106511 c -4.133708,-1.021523 -4.056439,-7.155781 0.102443,-8.132834 1.608113,-0.377796 4.006835,0.348156 4.321994,1.308014 0.145197,0.442215 -0.300969,0.332741 -1.230835,-0.302004 -0.737633,-0.503524 -1.042104,-0.572108 -2.216777,-0.499339 -1.612473,0.09989 -2.561433,0.673097 -3.142887,1.89842 -0.514389,1.083993 -0.376239,2.917361 0.290378,3.853537 1.050645,1.475497 3.557679,1.894898 5.094177,0.852203 0.456604,-0.309859 0.927091,-0.563381 1.045532,-0.563381 0.567175,0 -0.07032,0.809815 -1.024092,1.300913 -0.675397,0.347764 -2.378651,0.497312 -3.239933,0.284471 z m 8.908708,-0.111276 c -3.751689,-1.337661 -3.583324,-6.933869 0.240559,-7.995768 1.048302,-0.291117 1.104536,-0.291212 2.140006,-0.0036 1.825918,0.507108 2.953028,2.051541 2.953028,4.046421 0,1.99488 -1.12711,3.539312 -2.953028,4.04642 -1.062537,0.295096 -1.319098,0.285025 -2.380565,-0.09344 z m 3.232748,-0.854389 c 1.131497,-0.772349 1.620469,-1.843982 1.523389,-3.338682 -0.143853,-2.214871 -1.633048,-3.520629 -3.77995,-3.314337 -1.968219,0.18912 -3.152798,1.580453 -3.151162,3.701161 0.0016,2.067475 1.41356,3.456518 3.515128,3.458057 0.823038,6.76e-4 1.360861,-0.143245 1.892595,-0.506199 z m 13.074941,0.936451 c -0.733972,-0.299221 -1.356746,-0.874403 -1.356746,-1.253069 0,-0.460971 0.369012,-0.364306 0.993598,0.26028 1.064439,1.064439 2.837388,0.520831 2.837388,-0.869981 0,-0.766089 -0.570759,-1.442587 -2.286089,-2.709614 -1.601406,-1.182877 -1.630267,-2.773147 -0.06222,-3.42832 0.875908,-0.365976 2.054518,-0.152824 2.566576,0.464167 0.395407,0.476437 -0.132241,0.657731 -0.71872,0.246943 -0.595245,-0.416924 -1.778238,-0.461127 -2.158704,-0.08066 -0.148733,0.148732 -0.270423,0.54386 -0.270423,0.878064 0,0.605819 0.387901,1.02562 2.317044,2.507597 0.951319,0.730808 1.403695,1.870983 1.080061,2.722206 -0.397271,1.044899 -1.896805,1.688388 -2.941767,1.262387 z m 6.829599,0.09763 c -0.76557,-0.161237 -1.57906,-1.123872 -1.73208,-2.04965 -0.0767,-0.463973 -0.140561,-2.035134 -0.141925,-3.491472 -0.002,-2.204546 0.05435,-2.647888 0.335545,-2.647888 0.28537,0 0.33803,0.524005 0.33803,3.363926 v 3.363926 l 0.59377,0.46706 c 0.82432,0.648405 1.98688,0.611123 2.68408,-0.08608 0.53658,-0.536577 0.55314,-0.65127 0.55314,-3.830986 0,-2.763407 0.0531,-3.277848 0.33802,-3.277848 0.2816,0 0.33714,0.442055 0.33266,2.647888 -0.003,1.456338 -0.0973,3.044139 -0.20963,3.528446 -0.34971,1.507698 -1.60601,2.325564 -3.09161,2.012676 z m 34.43288,-0.06842 c -4.13371,-1.021523 -4.05644,-7.155781 0.10244,-8.132834 1.60811,-0.377796 4.00684,0.348156 4.32199,1.308014 0.1452,0.442215 -0.30096,0.332741 -1.23083,-0.302004 -0.73763,-0.503524 -1.04211,-0.572108 -2.21678,-0.499339 -1.61247,0.09989 -2.56143,0.673097 -3.14288,1.89842 -0.51439,1.083993 -0.37624,2.917361 0.29037,3.853537 1.05065,1.475497 3.55768,1.894898 5.09418,0.852203 0.4566,-0.309859 0.92709,-0.563381 1.04553,-0.563381 0.56718,0 -0.0703,0.809815 -1.02409,1.300913 -0.6754,0.347764 -2.37865,0.497312 -3.23993,0.284471 z M 86.013803,59.020602 v -4.07799 l 2.647887,3.281386 2.647888,3.281386 0.06236,-3.259734 c 0.05152,-2.692798 0.120106,-3.259734 0.394367,-3.259734 0.280216,0 0.332004,0.636604 0.332004,4.081104 v 4.081102 L 89.999108,60.564149 C 88.844546,59.142962 87.628771,57.636044 87.297382,57.21544 l -0.602524,-0.764735 -0.0025,3.323944 c -0.0021,2.803272 -0.05545,3.323943 -0.340525,3.323943 -0.288016,0 -0.338028,-0.603344 -0.338028,-4.07799 z m 21.408447,0.02165 c 0,-3.455398 0.0501,-4.056338 0.33803,-4.056338 0.28681,0 0.33803,0.56338 0.33803,3.71831 v 3.71831 h 1.57746 c 1.25196,0 1.57747,0.06975 1.57747,0.338028 0,0.273958 -0.36307,0.338028 -1.91549,0.338028 h -1.9155 z m 6.08451,0.338028 v -3.71831 h -0.90141 c -0.65102,0 -0.90141,-0.0939 -0.90141,-0.338028 0,-0.276748 0.38811,-0.338028 2.14085,-0.338028 1.75274,0 2.14084,0.06128 2.14084,0.338028 0,0.244131 -0.25039,0.338028 -0.9014,0.338028 h -0.90141 v 3.71831 c 0,3.15493 -0.0512,3.71831 -0.33803,3.71831 -0.28681,0 -0.33803,-0.56338 -0.33803,-3.71831 z m 3.37842,3.549296 c -0.003,-0.23092 3.21297,-7.963813 3.28082,-7.889951 0.11817,0.128628 3.25604,7.731997 3.25614,7.889951 4.5e-4,0.554768 -0.47239,-0.0171 -0.97807,-1.183098 l -0.5864,-1.352113 h -1.70302 -1.70303 l -0.58639,1.352113 c -0.5069,1.168806 -0.97399,1.732671 -0.98005,1.183098 z m 4.08277,-4.732394 c -0.34288,-0.83662 -0.71526,-1.505517 -0.82752,-1.486436 -0.11226,0.01909 -0.47824,0.703585 -0.8133,1.521127 l -0.6092,1.486436 h 1.43672 1.43671 z m 4.25712,0.823418 v -4.07799 l 2.64789,3.281386 2.64789,3.281386 0.0624,-3.259734 c 0.0515,-2.692798 0.1201,-3.259734 0.39436,-3.259734 0.28022,0 0.33201,0.636604 0.33201,4.081104 v 4.081102 l -2.0992,-2.583973 c -1.15457,-1.421187 -2.37034,-2.928105 -2.70173,-3.348709 l -0.60252,-0.764735 -0.003,3.323944 c -0.002,2.803272 -0.0554,3.323943 -0.34052,3.323943 -0.28802,0 -0.33803,-0.603344 -0.33803,-4.07799 z m 19.60563,2.05767 v -2.02032 l -1.23943,-1.921282 c -1.30911,-2.029287 -1.36684,-2.150754 -1.02209,-2.150754 0.11955,0 0.73776,0.811268 1.37382,1.802817 0.63605,0.991549 1.18763,1.802817 1.22573,1.802817 0.0381,0 0.58969,-0.811268 1.22574,-1.802817 0.63605,-0.991549 1.25427,-1.802817 1.37381,-1.802817 0.34475,0 0.28703,0.121467 -1.02208,2.150754 l -1.23944,1.921282 v 2.02032 c 0,1.645605 -0.0627,2.02032 -0.33803,2.02032 -0.27533,0 -0.33803,-0.374715 -0.33803,-2.02032 z"
       id="path4536"
       inkscape:connector-curvature="0" />
    <path
       style="fill:#96241b;stroke-width:0.22535211"
       d="m 36.076899,33.746479 -0.429293,-0.507042 0.507042,0.429294 c 0.476494,0.403429 0.609632,0.584791 0.429294,0.584791 -0.04276,0 -0.270932,-0.228169 -0.507043,-0.507043 z M 33.039,30.478874 l -0.546324,-0.619719 0.619719,0.546324 c 0.57922,0.510623 0.723062,0.693113 0.546323,0.693113 -0.04037,0 -0.319238,-0.278873 -0.619718,-0.619718 z m 4.270001,0 c -0.280309,-0.357422 -0.272338,-0.365393 0.08508,-0.08508 0.216901,0.170107 0.394366,0.347571 0.394366,0.394366 0,0.185474 -0.185057,0.0661 -0.47945,-0.309282 z m -2.584214,-2.816902 -0.429294,-0.507042 0.507042,0.429293 c 0.278874,0.236111 0.507043,0.46428 0.507043,0.507043 0,0.180338 -0.181361,0.0472 -0.584791,-0.429294 z m -3.15493,-3.380282 -0.429293,-0.507042 0.507042,0.429294 c 0.278873,0.23611 0.507042,0.464279 0.507042,0.507042 0,0.180338 -0.181361,0.0472 -0.584791,-0.429294 z m -3.020843,-3.211267 c -0.161701,-0.194838 -0.183603,-0.338028 -0.0517,-0.338028 0.125859,0 0.287204,0.152112 0.358548,0.338028 0.07134,0.185915 0.09461,0.338028 0.0517,0.338028 -0.04291,0 -0.204252,-0.152113 -0.358549,-0.338028 z M 10.837462,8.2816902 10.408169,7.774648 10.915211,8.2039411 c 0.476495,0.4034294 0.609632,0.5847914 0.429294,0.5847914 -0.04276,0 -0.270932,-0.228169 -0.507043,-0.5070423 z M 11.457836,7.887324 c 0,-0.3098591 0.05115,-0.4366197 0.113664,-0.2816901 0.06251,0.1549296 0.06251,0.4084507 0,0.5633803 -0.06252,0.1549296 -0.113664,0.028169 -0.113664,-0.2816902 z"
       id="path4534"
       inkscape:connector-curvature="0" />
    <path
       style="fill:#772a01;stroke-width:0.22535211"
       d="m 37.61532,53.943065 0.06046,-5.357525 3.943662,-1.776309 c 2.169014,-0.976969 4.104572,-1.826073 4.301239,-1.886896 0.539646,-0.166898 6.700068,6.653316 6.419588,7.107139 -0.07402,0.119766 -0.66578,0.390013 -1.315027,0.600548 -0.649246,0.210538 -1.68749,0.71298 -2.307209,1.116543 -1.182949,0.770342 -9.771513,5.119912 -10.652004,5.394574 l -0.51116,0.159452 z M 35.422254,34.478874 c -0.0766,-0.123944 -0.08651,-0.225352 -0.02202,-0.225352 0.06449,0 -0.274342,-0.380282 -0.752951,-0.845071 C 34.168665,32.943662 30.301751,28.861972 26.054132,24.338028 21.806513,19.814085 16.76716,14.467993 14.855569,12.457824 11.703566,9.1432774 11.397655,8.7508012 11.570115,8.2426665 c 0.17734,-0.5225123 0.980578,0.2840662 11.908477,11.9580015 6.44507,6.88507 12.107103,12.965714 12.582292,13.512545 0.814179,0.936924 0.82957,0.981154 0.267019,0.767274 -0.746841,-0.28395 -0.85495,-0.284205 -0.680297,-0.0016 0.0766,0.123943 0.08857,0.225352 0.0266,0.225352 -0.06197,0 -0.175349,-0.101409 -0.25195,-0.225352 z"
       id="path4532"
       inkscape:connector-curvature="0" />
    <path
       style="fill:#2d0011;stroke-width:0.22535211"
       d="M 28.09831,31.312559 C 18.512331,26.879462 13.816939,24.531989 12.457556,23.492924 11.849508,23.028154 10.936832,22.057956 10.429387,21.336929 L 9.5067607,20.02597 9.4369642,13.812359 C 9.3968917,10.244911 9.4551073,7.5108084 9.5736639,7.3922518 9.8003413,7.1655744 13.478493,10.943209 26.731432,25.014085 c 7.259056,7.707065 9.059065,9.698837 8.755088,9.687811 -0.03535,-0.0013 -3.360041,-1.526484 -7.38821,-3.389337 z"
       id="path4530"
       inkscape:connector-curvature="0" />
  </g>
</svg>
