<?xml version="1.0" encoding="UTF-8" standalone="no"?>
<!-- Created with Inkscape (http://www.inkscape.org/) -->

<svg
   xmlns:dc="http://purl.org/dc/elements/1.1/"
   xmlns:cc="http://creativecommons.org/ns#"
   xmlns:rdf="http://www.w3.org/1999/02/22-rdf-syntax-ns#"
   xmlns:svg="http://www.w3.org/2000/svg"
   xmlns="http://www.w3.org/2000/svg"
   xmlns:sodipodi="http://sodipodi.sourceforge.net/DTD/sodipodi-0.dtd"
   xmlns:inkscape="http://www.inkscape.org/namespaces/inkscape"
   version="1.1"
   id="svg5123"
   width="54"
   height="54"
   viewBox="0 0 54 54"
   sodipodi:docname="logo-mobile.svg"
   inkscape:version="0.92.4 (5da689c313, 2019-01-14)"
   inkscape:export-filename="C:\Users\xavier\Pictures\retouche gimp\vXav-logo\text5678.png"
   inkscape:export-xdpi="87.384613"
   inkscape:export-ydpi="87.384613">
  <metadata
     id="metadata5129">
    <rdf:RDF>
      <cc:Work
         rdf:about="">
        <dc:format>image/svg+xml</dc:format>
        <dc:type
           rdf:resource="http://purl.org/dc/dcmitype/StillImage" />
        <dc:title></dc:title>
      </cc:Work>
    </rdf:RDF>
  </metadata>
  <defs
     id="defs5127" />
  <sodipodi:namedview
     pagecolor="#ffffff"
     bordercolor="#666666"
     borderopacity="1"
     objecttolerance="10"
     gridtolerance="10"
     guidetolerance="10"
     inkscape:pageopacity="0"
     inkscape:pageshadow="2"
     inkscape:window-width="1920"
     inkscape:window-height="1017"
     id="namedview5125"
     showgrid="false"
     inkscape:zoom="8.573723"
     inkscape:cx="16.028142"
     inkscape:cy="23.727464"
     inkscape:window-x="-8"
     inkscape:window-y="-8"
     inkscape:window-maximized="1"
     inkscape:current-layer="svg5123"
     inkscape:pagecheckerboard="true"
     borderlayer="true"
     inkscape:showpageshadow="true"
     showborder="true" />
  <g
     id="g5852"
     transform="matrix(0.8711522,0,0,0.81420571,0.73120327,0.86470329)">
    <path
       style="fill:#fefefe;stroke-width:0.22535211"
       d="M -6.9981265,32.110862 V -3.0440679 H 180.38215 367.76243 V 32.110862 67.265792 H 180.38215 -6.9981265 Z M 33.416275,57.968958 c 5.377226,-2.663382 9.86686,-4.982287 9.976963,-5.153122 0.1101,-0.170835 0.200184,-0.564129 0.200184,-0.873988 0,-0.443831 0.215191,-0.668867 1.014085,-1.060484 0.557746,-0.273409 3.225316,-1.576899 5.927932,-2.896649 4.06044,-1.982804 5.152735,-2.620521 6.289332,-3.67191 1.832541,-1.69516 2.425508,-2.972751 2.428421,-5.232221 0.0044,-3.445853 -1.279258,-5.25456 -5.251617,-7.39939 -1.457832,-0.787139 -2.279389,-1.3725 -2.410571,-1.717534 C 51.285395,29.159847 31.787385,19.549149 20.720183,14.74723 18.085021,13.603866 17.292846,13.151555 16.627302,12.4103 16.1734,11.904764 14.359236,9.8686083 12.595826,7.8855097 8.3212591,3.0784095 6.1184435,0.78691806 5.7719354,0.78691806 c -0.5553251,0 -0.8264,0.55439844 -0.8264,1.69014084 0,0.6321127 -0.1216902,1.270986 -0.2704226,1.4197184 C 4.3004618,4.2714283 3.4797075,4.2352185 3.1427185,3.8291716 2.8057294,3.4231247 1.9849752,3.3869149 1.6103241,3.761566 1.1844517,4.1874384 1.2461315,16.48227 1.6779298,17.237622 c 0.1958267,0.342563 0.3251871,1.209918 0.3300428,2.212919 0.00702,1.450101 0.088182,1.766101 0.6712944,2.613624 1.1654596,1.693938 2.9644939,3.117047 5.776633,4.56955 3.027572,1.563779 18.624294,8.80487 19.365865,8.990993 0.697758,0.175125 0.976554,-0.308992 1.054738,-1.8315 0.06011,-1.17051 0.12361,-1.334932 0.491164,-1.271725 0.504367,0.08674 8.626988,3.800557 10.789136,4.933007 1.723013,0.902448 2.035502,1.500465 0.676056,1.293783 -0.694598,-0.105602 -1.352009,0.09151 -3.692108,1.107022 -3.514195,1.525025 -5.130508,2.32804 -5.716343,2.839993 -0.247887,0.216627 -2.732394,1.428392 -5.521126,2.692814 -6.453927,2.926235 -7.949044,3.801201 -8.806937,5.153956 -0.545766,0.860586 -0.657852,1.276879 -0.657852,2.443324 0,0.7733 0.112998,1.691475 0.251105,2.040387 0.13811,0.348915 0.284656,1.367746 0.325661,2.26407 0.170774,3.732987 2.118693,5.828798 5.22092,5.617305 1.291224,-0.08803 2.184277,-0.482485 11.180096,-4.938186 z"
       id="path5892"
       inkscape:connector-curvature="0" />
    <path
       style="fill:#e9e9e9;stroke-width:0.22535211"
       d="m 19.931451,62.572483 c -1.80727,-0.86279 -2.795926,-2.653729 -2.916192,-5.282644 -0.04101,-0.896324 -0.187551,-1.915155 -0.325661,-2.26407 -0.138107,-0.348912 -0.251105,-1.267087 -0.251105,-2.040387 0,-1.166445 0.112086,-1.582738 0.657852,-2.443324 0.857893,-1.352755 2.35301,-2.227721 8.806937,-5.153956 2.788732,-1.264422 5.273239,-2.476187 5.521126,-2.692814 0.585835,-0.511953 2.202148,-1.314968 5.716343,-2.839993 2.340099,-1.015511 2.99751,-1.212624 3.692108,-1.107022 1.359446,0.206682 1.046957,-0.391335 -0.676056,-1.293783 -2.162148,-1.13245 -10.284769,-4.846271 -10.789136,-4.933007 -0.367554,-0.06321 -0.431058,0.101215 -0.491164,1.271725 -0.07818,1.522508 -0.35698,2.006625 -1.054738,1.8315 C 27.080194,35.438585 11.483472,28.197494 8.4559,26.633715 5.6437609,25.181212 3.8447266,23.758103 2.679267,22.064165 2.0961551,21.216642 2.0149925,20.900642 2.0079726,19.450541 2.0031169,18.44754 1.8737565,17.580185 1.6779298,17.237622 1.2461315,16.48227 1.1844517,4.1874384 1.6103241,3.761566 1.9849752,3.3869149 2.8057294,3.4231247 3.1427185,3.8291716 3.4797075,4.2352185 4.3004618,4.2714283 4.6751128,3.8967773 4.8238452,3.7480449 4.9455354,3.1091716 4.9455354,2.4770589 c 0,-1.1357424 0.2710749,-1.69014084 0.8264,-1.69014084 0.3465081,0 2.5493237,2.29149144 6.8238906,7.09859164 1.76341,1.9830986 3.577574,4.0192543 4.031476,4.5247903 0.665544,0.741255 1.457719,1.193566 4.092881,2.33693 6.675779,2.896536 10.277339,4.59217 20.349992,9.580883 8.049415,3.986659 10.365636,5.227355 10.520829,5.635547 0.131182,0.345034 0.952739,0.930395 2.410571,1.717534 3.972359,2.14483 5.256064,3.953537 5.251617,7.39939 -0.0029,2.25947 -0.59588,3.537061 -2.428421,5.232221 -1.136597,1.051389 -2.228892,1.689106 -6.289332,3.67191 -2.702616,1.31975 -5.370186,2.62324 -5.927932,2.896649 -0.798894,0.391617 -1.014085,0.616653 -1.014085,1.060484 0,0.309859 -0.09008,0.703153 -0.200184,0.873988 -0.110103,0.170835 -4.599737,2.48974 -9.976963,5.153122 -8.995819,4.455701 -9.888872,4.850157 -11.180096,4.938186 -1.064789,0.07259 -1.620771,-0.0081 -2.304728,-0.334661 z m 6.224948,-1.289102 c 4.543798,-2.09907 16.535209,-8.144936 16.807525,-8.474069 0.138373,-0.167245 0.285915,-0.606031 0.327867,-0.975078 0.07194,-0.632816 0.305084,-0.777377 4.097665,-2.540715 7.230391,-3.361731 10.040956,-5.234276 11.076642,-7.37984 0.665019,-1.377672 0.724627,-3.958857 0.128106,-5.547159 C 57.957282,34.670655 56.807482,33.586188 53.887721,31.927473 52.490159,31.133519 51.38624,30.349859 51.255394,30.058815 51.102245,29.718157 49.766511,28.921566 47.08638,27.572543 37.885745,22.941469 28.120924,18.263663 22.887185,15.979991 L 17.279536,13.53317 16.013945,12.085505 C 13.23451,8.9062115 6.8054835,1.782951 6.4607399,1.5007038 6.259004,1.3355396 5.9116111,1.2350411 5.6887554,1.2773742 5.3637598,1.3391094 5.2612625,1.6403727 5.1708875,2.799509 5.0670493,4.1313226 5.0098614,4.2606986 4.4417781,4.4489735 3.9500494,4.611943 3.6819122,4.5511396 3.1163352,4.1484131 2.5848158,3.769938 2.3160282,3.701111 2.0426274,3.8734747 1.5063523,4.2115658 1.3780406,15.996566 1.8996523,17.005252 c 0.21454,0.414874 0.3416577,1.277953 0.3416577,2.319717 0,1.612759 0.028155,1.696913 1.0096192,3.017661 1.0785951,1.451457 2.5832198,2.61223 5.3002399,4.088976 1.7665819,0.960166 17.2066339,8.138727 18.5502169,8.624572 1.241833,0.449053 1.506121,0.209026 1.506121,-1.367851 0,-0.963466 0.09305,-1.401965 0.315626,-1.487376 0.315243,-0.120969 6.190986,2.487241 10.797703,4.793039 1.840073,0.92101 2.418817,1.314285 2.361954,1.605019 -0.05878,0.300556 -0.321733,0.386433 -1.197836,0.391204 -0.8433,0.0046 -1.739119,0.278402 -3.601391,1.100782 -3.170569,1.400124 -5.087375,2.352489 -5.545228,2.755151 -0.199173,0.175161 -2.779547,1.433356 -5.73417,2.795986 -5.651603,2.606441 -7.087482,3.352564 -7.9538,4.133026 -1.317966,1.187351 -1.744082,3.350104 -1.048492,5.32162 0.185916,0.526941 0.33902,1.579128 0.34023,2.338193 0.0036,2.279632 1.10818,4.157095 2.928985,4.97858 1.313717,0.592703 2.754961,0.315937 5.885311,-1.13017 z"
       id="path5890"
       inkscape:connector-curvature="0" />
    <path
       style="fill:#d1d1d1;stroke-width:0.22535211"
       d="m 20.271088,62.413551 c -0.432917,-0.19532 -1.029438,-0.577832 -1.3256,-0.850033 -0.719919,-0.661672 -1.606616,-2.585091 -1.578695,-3.424487 0.01809,-0.54429 0.06085,-0.480383 0.21929,0.327901 0.442125,2.255484 2.307002,4.066466 4.187482,4.066466 1.16459,0 2.56452,-0.619676 12.195709,-5.398409 4.994041,-2.477907 9.016646,-4.402657 8.939125,-4.277222 -0.158204,0.255978 -12.449158,6.437857 -16.752,8.425614 -3.13035,1.446107 -4.571594,1.722873 -5.885311,1.13017 z m -2.895121,-5.654637 c -0.01984,-0.387234 -0.188178,-1.135195 -0.374094,-1.662136 -0.69559,-1.971516 -0.269474,-4.134269 1.048492,-5.32162 0.866318,-0.780462 2.302197,-1.526585 7.9538,-4.133026 2.954623,-1.36263 5.534997,-2.620651 5.73417,-2.795601 0.694112,-0.609701 8.314966,-4.097386 8.515317,-3.897034 0.04965,0.04965 -0.902535,0.520763 -2.115966,1.046922 -3.926256,1.702475 -6.019446,2.716821 -6.483971,3.142085 -0.250062,0.228928 -2.736349,1.452647 -5.525081,2.719376 -6.888162,3.128816 -7.844624,3.692241 -8.731241,5.143328 -0.611637,1.001044 -0.678321,2.759858 -0.154289,4.069542 0.19465,0.486476 0.312286,1.223738 0.261417,1.638364 l -0.09249,0.753861 z m 25.722551,-5.143829 c 0.04208,-0.632811 0.244736,-0.758147 4.213214,-2.605663 7.308836,-3.402612 9.784771,-5.011177 10.882844,-7.070375 0.402945,-0.755639 0.494504,-1.301296 0.495822,-2.954945 0.0027,-3.408825 -0.984072,-4.707273 -5.386323,-7.087502 -1.856334,-1.003692 -2.818587,-1.813907 -2.154285,-1.813907 0.120054,0 0.21828,0.09364 0.21828,0.208081 0,0.114443 1.108491,0.837186 2.463313,1.606091 2.974472,1.688109 4.122927,2.765873 4.762821,4.469655 0.596521,1.588302 0.536913,4.169487 -0.128106,5.547159 -1.034938,2.144011 -3.84173,4.014891 -11.06694,7.376719 -3.298008,1.534535 -4.041319,1.966483 -4.178263,2.428041 -0.156356,0.526995 -0.163865,0.520653 -0.122377,-0.103354 z M 40.903457,39.247748 c -0.312432,-0.228458 -0.257244,-0.268532 0.366723,-0.266288 0.513992,0.0018 0.757536,-0.112971 0.811218,-0.382451 0.058,-0.291178 -0.517673,-0.682599 -2.360562,-1.605019 -4.544531,-2.274673 -10.480637,-4.914706 -10.786656,-4.797278 -0.197307,0.07571 -0.334896,0.616917 -0.390662,1.53664 l -0.08608,1.419764 0.0187,-1.577465 c 0.0169,-1.425217 0.06451,-1.584005 0.493323,-1.645228 0.738533,-0.105443 12.525359,5.388565 13.134017,6.121951 0.638274,0.769075 -0.3867,1.790085 -1.200016,1.195374 z M 26.692014,34.930583 C 23.037114,33.317138 9.8644002,27.145979 8.5511691,26.431948 5.833271,24.954172 4.3293398,23.793839 3.2509292,22.34263 2.2694651,21.021882 2.24131,20.937728 2.24131,19.324969 2.24131,18.283205 2.1141923,17.420126 1.8996523,17.005252 1.6138854,16.452639 1.5684224,15.339317 1.6217378,10.199541 l 0.063743,-6.1450173 0.059729,6.1971833 c 0.048497,5.031787 0.1219489,6.279444 0.3905907,6.634621 0.2251648,0.297694 0.3337789,1.017601 0.3399945,2.253521 0.00899,1.788174 0.023907,1.83513 0.9704805,3.05552 1.8498666,2.384978 3.4875139,3.32325 15.3584145,8.799421 4.090141,1.886824 7.842254,3.612518 8.338028,3.834878 0.495775,0.222357 0.749296,0.403177 0.563381,0.401823 -0.185916,-0.0014 -0.642254,-0.136764 -1.014085,-0.300908 z M 46.973704,27.8251 C 36.377467,22.531108 27.34734,18.207691 22.523,16.118663 18.193885,14.244077 17.083255,13.670538 16.438493,12.976568 16.00469,12.509657 14.331451,10.620041 12.720183,8.7774207 11.108916,6.9348007 8.8912913,4.4845467 7.7921291,3.3324124 6.6929668,2.1802779 5.8848737,1.2376223 5.9963665,1.2376223 c 0.3490449,0 3.8401816,3.7804724 10.0257705,10.8566787 1.242166,1.421015 1.368027,1.498151 5.070422,3.107442 7.39276,3.213352 11.235239,5.019758 20.421591,9.600481 8.108088,4.043054 10.0523,5.064415 9.6173,5.052291 -0.05577,-0.0016 -1.92676,-0.914792 -4.157746,-2.029415 z M 3.2163466,4.5387721 C 2.8659919,4.2473623 2.4272255,3.9511428 2.24131,3.8805068 c -0.3004694,-0.1141593 -0.3004694,-0.1298494 0,-0.1412094 0.1859155,-0.00703 0.5915493,0.185527 0.9014085,0.4279024 0.3098591,0.2423754 0.6901408,0.4429372 0.8450704,0.4456933 0.3205327,0.0057 0.3932397,0.4557152 0.073628,0.4557152 -0.1144341,0 -0.4947158,-0.2384262 -0.8450703,-0.5298362 z m 1.5305201,0.095623 C 4.5199507,4.4941535 4.5321172,4.4264642 4.8029177,4.3225483 5.0500645,4.2277091 5.1717159,3.7845566 5.2290959,2.7700608 l 0.080302,-1.4197624 0.043421,1.6205032 c 0.043984,1.6415281 -0.082002,1.9874127 -0.6059522,1.6635935 z"
       id="path5888"
       inkscape:connector-curvature="0" />
    <path
       style="fill:#ebb3a0;stroke-width:0.22535211"
       d="m 42.159282,40.367833 -0.708514,-0.730999 0.605122,-0.45179 c 0.414093,-0.309165 0.55851,-0.573258 0.457472,-0.836562 -0.134581,-0.350713 -5.335241,-2.984653 -10.34842,-5.241086 l -1.963689,-0.883858 1.119009,-0.06813 c 1.24002,-0.0755 1.478999,0.01999 9.42912,3.767101 2.401976,1.132119 4.662517,2.268664 5.023425,2.525651 0.837116,0.596079 0.636277,0.867306 -1.402467,1.894002 l -1.502547,0.756671 z"
       id="path5886"
       inkscape:connector-curvature="0" />
    <path
       style="fill:#b3a7af;stroke-width:0.22535211"
       d="m 42.822482,51.585041 c 0.01082,-0.262523 0.06421,-0.315921 0.136148,-0.13615 0.0651,0.162674 0.05709,0.357041 -0.01778,0.431925 -0.07488,0.07488 -0.128144,-0.05822 -0.118359,-0.295775 z m 2.657687,-7.248827 c -0.280308,-0.357422 -0.272338,-0.365392 0.08508,-0.08508 0.216902,0.170107 0.394367,0.347572 0.394367,0.394367 0,0.185473 -0.185057,0.0661 -0.479451,-0.309283 z m -1.577464,-1.802817 c -0.280309,-0.357422 -0.272338,-0.365392 0.08508,-0.08508 0.216901,0.170108 0.394366,0.347572 0.394366,0.394367 0,0.185473 -0.185057,0.0661 -0.47945,-0.309283 z M 42.32524,40.730581 c -0.280309,-0.357422 -0.272338,-0.365393 0.08508,-0.08508 0.216901,0.170107 0.394366,0.347571 0.394366,0.394366 0,0.185474 -0.185057,0.0661 -0.47945,-0.309282 z m -0.03183,-2.291795 c -0.09802,-0.37484 -0.06869,-0.462824 0.09853,-0.295597 0.130952,0.130952 0.193756,0.371114 0.139563,0.533692 -0.05626,0.168778 -0.158409,0.06663 -0.238096,-0.238095 z M 28.382155,31.878438 c 0,-0.120054 0.152113,-0.21828 0.338028,-0.21828 0.185916,0 0.338028,0.03986 0.338028,0.08857 0,0.04871 -0.152112,0.146936 -0.338028,0.21828 -0.185915,0.07134 -0.338028,0.03149 -0.338028,-0.08857 z m -14.105918,-21.232365 -0.429293,-0.507042 0.507042,0.429293 c 0.476495,0.403429 0.609632,0.584791 0.429293,0.584791 -0.04276,0 -0.270931,-0.228169 -0.507042,-0.507042 z M 12.255302,8.392552 11.593423,7.6601576 12.325817,8.3220373 c 0.402817,0.3640338 0.732394,0.6936112 0.732394,0.7323943 0,0.1740983 -0.185944,0.020814 -0.802909,-0.6618796 z M 10.230707,6.1390308 9.3399015,5.1812843 10.297648,6.0720895 c 0.890695,0.8284399 1.061301,1.0246878 0.890805,1.0246878 -0.03682,0 -0.467804,-0.4309859 -0.957746,-0.9577465 z M 3.8144933,5.1761256 C 3.5763448,4.8891741 3.5902867,4.8561981 3.8995762,4.9748836 c 0.2034465,0.07807 0.3699028,0.2325039 0.3699028,0.343187 0,0.2897935 -0.1304502,0.2490961 -0.4549857,-0.141945 z M 4.9767063,4.993491 C 4.7879509,4.7660546 4.8086315,4.6930213 5.0617891,4.6930213 c 0.1839477,0 0.3344505,0.1352113 0.3344505,0.3004697 0,0.1652581 -0.038287,0.3004694 -0.085083,0.3004694 -0.046796,0 -0.1972983,-0.1352113 -0.3344503,-0.3004694 z M 7.8674148,3.5474815 6.6356762,2.2517068 7.9314508,3.4834454 c 0.7126761,0.6774563 1.2957747,1.2605548 1.2957747,1.2957747 0,0.1672683 -0.2154867,-0.027923 -1.3598107,-1.2317386 z M 2.1990565,4.0132586 C 2.3617326,3.9481609 2.5560988,3.956167 2.6309815,4.0310502 2.7058639,4.1059329 2.5727654,4.1591946 2.3352068,4.1494096 2.0726845,4.1385972 2.0192857,4.0851975 2.1990565,4.0132593 Z"
       id="path5884"
       inkscape:connector-curvature="0" />
    <path
       style="fill:#ef977b;stroke-width:0.22535211"
       d="m 42.315272,50.881118 c -0.231603,-0.279067 -0.20527,-0.39648 0.14663,-0.653796 0.235912,-0.172505 0.559608,-0.313643 0.719327,-0.313643 0.159718,0 0.698082,-0.163123 1.196365,-0.362497 0.969386,-0.387871 1.17684,-0.934979 0.551362,-1.45408 -0.3149,-0.261343 -0.287676,-0.329368 0.243125,-0.607484 0.340663,-0.17849 0.548149,-0.442404 0.482441,-0.61364 -0.06944,-0.180965 0.147543,-0.409328 0.545605,-0.574211 0.363495,-0.150564 0.660173,-0.337508 0.659283,-0.415428 -9.01e-4,-0.07792 -0.916246,-1.178487 -2.034121,-2.445703 l -2.032502,-2.30403 1.540049,-0.775556 c 0.847027,-0.426555 1.665177,-0.926323 1.818107,-1.110596 0.480629,-0.579121 0.236133,-0.713712 -9.543436,-5.253523 l -4.056338,-1.883009 4.732394,-0.0023 c 2.602817,-0.0011 6.648368,-0.06913 8.990109,-0.150966 l 4.257715,-0.148795 -1.440813,-0.72832 -1.440814,-0.72832 1.464789,-0.08336 c 0.805634,-0.04585 1.523389,-0.0027 1.595013,0.0959 0.07162,0.09859 1.233677,0.79289 2.582337,1.542884 1.348662,0.749995 2.840899,1.67155 3.316083,2.047901 1.837091,1.455004 2.630754,4.431103 1.874984,7.030862 -0.755004,2.597127 -2.880958,4.1235 -11.158526,8.011509 -4.113174,1.931973 -4.763516,2.176063 -5.009168,1.880072 z M 30.695113,31.949154 c 0.342548,-0.0518 0.849591,-0.05041 1.12676,0.0031 0.27717,0.05349 -0.0031,0.09587 -0.622817,0.09418 -0.619718,-0.0018 -0.846492,-0.04546 -0.503943,-0.09726 z"
       id="path5882"
       inkscape:connector-curvature="0" />
    <path
       style="fill:#8b4fc8;stroke-width:0.22535211"
       d="m 17.136082,54.836325 c -0.621817,-1.783739 -0.130215,-3.84892 1.179261,-4.953995 0.86832,-0.732779 4.989877,-2.773807 11.813291,-5.850035 2.005548,-0.904169 1.751718,-0.343925 -0.28169,0.621736 l -1.690141,0.802645 v 1.975809 1.975811 l -0.732395,0.290785 c -0.402816,0.15993 -2.38393,1.084771 -4.402474,2.055202 -2.824426,1.357862 -3.896917,1.997814 -4.654526,2.777337 l -0.984444,1.012917 z M 41.423831,39.829172 c -0.280308,-0.357422 -0.272338,-0.365393 0.08508,-0.08508 0.216902,0.170107 0.394367,0.347572 0.394367,0.394366 0,0.185474 -0.185057,0.0661 -0.479451,-0.309282 z M 1.9408406,16.636683 c -0.082629,-0.08263 -0.1502348,-2.989671 -0.1502348,-6.460093 0,-3.470423 0.071665,-6.2381952 0.1592543,-6.1506053 0.1167184,0.1167182 0.2752496,12.7609603 0.1599946,12.7609373 -0.010328,-2e-6 -0.086385,-0.06761 -0.1690141,-0.150239 z m 13.2368044,-4.863849 -0.429293,-0.507043 0.507042,0.429294 c 0.476494,0.403429 0.609632,0.584791 0.429294,0.584791 -0.04276,0 -0.270932,-0.228169 -0.507043,-0.507042 z M 13.029467,9.4066365 c -0.280309,-0.3574211 -0.272339,-0.3653918 0.08508,-0.085083 0.37538,0.294393 0.494756,0.479449 0.309284,0.479449 -0.0468,0 -0.224261,-0.1774648 -0.394366,-0.3943662 z"
       id="path5880"
       inkscape:connector-curvature="0" />
    <path
       style="fill:#f06c44;stroke-width:0.22535211"
       d="m 30.092163,31.903797 c 0.05158,-0.05191 -0.05936,-0.263621 -0.246551,-0.470463 -0.304676,-0.336662 -0.298822,-0.412858 0.05584,-0.727035 0.343002,-0.30384 1.742522,-0.361697 10.424361,-0.430943 5.515493,-0.04399 9.419718,-0.04648 8.676056,-0.0055 l -1.352113,0.07447 1.454101,0.740552 1.454102,0.740553 -5.488101,0.167774 c -5.304904,0.162173 -15.169174,0.103304 -14.977699,-0.08939 z"
       id="path5878"
       inkscape:connector-curvature="0" />
    <path
       style="fill:#9d55aa;stroke-width:0.22535211"
       d="m 18.353986,54.420722 c 0.224336,-0.247888 0.458587,-0.450705 0.520559,-0.450705 0.06197,0 -0.07087,0.202817 -0.295207,0.450705 -0.224336,0.247887 -0.458587,0.450704 -0.520559,0.450704 -0.06197,0 0.07087,-0.202817 0.295207,-0.450704 z m 10.577372,-28.225353 -0.661879,-0.732394 0.732394,0.661879 c 0.682695,0.616965 0.835978,0.802909 0.66188,0.802909 -0.03878,0 -0.368361,-0.329577 -0.732395,-0.732394 z m -2.929577,-3.15493 -0.66188,-0.732394 0.732395,0.66188 c 0.682695,0.616964 0.835977,0.802909 0.661879,0.802909 -0.03878,0 -0.36836,-0.329578 -0.732394,-0.732395 z m -3.15493,-3.380281 -0.661879,-0.732395 0.732394,0.66188 c 0.682695,0.616964 0.835978,0.802909 0.66188,0.802909 -0.03878,0 -0.368361,-0.329577 -0.732395,-0.732394 z m 3.957839,0.394366 c -0.309859,-0.177131 -0.456002,-0.325652 -0.324762,-0.330042 0.131241,-0.0044 0.435466,0.140902 0.676057,0.322876 0.55639,0.420831 0.378677,0.424457 -0.351295,0.0072 z m -2.478873,-1.126761 c -0.309859,-0.177131 -0.456002,-0.32565 -0.324762,-0.330042 0.131241,-0.0044 0.435466,0.140902 0.676057,0.322875 0.556389,0.420832 0.378677,0.424457 -0.351295,0.0072 z M 22.748352,18.251707 C 22.438493,18.074576 22.28638,17.92965 22.410324,17.92965 c 0.123944,0 0.478873,0.144926 0.788732,0.322057 0.309859,0.177131 0.461972,0.322057 0.338028,0.322057 -0.123943,0 -0.478873,-0.144926 -0.788732,-0.322057 z m -1.408451,-0.493369 c -0.216901,-0.05668 -0.394366,-0.200599 -0.394366,-0.319816 0,-0.124834 0.215027,-0.104882 0.507042,0.04705 0.845134,0.439709 0.814056,0.514947 -0.112676,0.272767 z m -1.533257,-1.365786 -0.776602,-0.84507 0.845071,0.776601 c 0.786573,0.722843 0.948685,0.913539 0.776601,0.913539 -0.03766,0 -0.41794,-0.380281 -0.84507,-0.84507 z M 8.8677861,4.7869181 8.4384931,4.2798758 8.9455353,4.7091689 c 0.4764947,0.4034294 0.6096318,0.5847915 0.4292931,0.5847915 -0.042762,0 -0.2709312,-0.228169 -0.5070423,-0.5070423 z M 6.2689032,1.9700167 C 5.9885943,1.6125956 5.996565,1.6046249 6.3539861,1.8849338 c 0.3753798,0.2943931 0.4947558,0.4794491 0.3092833,0.4794491 -0.046796,0 -0.2242605,-0.1774648 -0.3943662,-0.3943662 z"
       id="path5876"
       inkscape:connector-curvature="0" />
    <path
       style="fill:#f16439;stroke-width:0.22535211"
       d="m 44.251894,47.406353 c -0.175312,-0.28366 -0.124396,-0.324823 0.623491,-0.504052 0.847333,-0.203062 1.00409,0.212442 0.18754,0.497093 -0.448779,0.156446 -0.717219,0.158749 -0.811031,0.007 z M 32.388589,27.949442 c 1.638715,-1.731035 2.979481,-3.254862 2.979481,-3.386283 0,-0.131423 -1.532473,-0.996811 -3.405498,-1.923087 -1.873023,-0.926276 -3.708944,-1.905571 -4.079824,-2.176209 -0.37088,-0.270639 -2.10883,-1.11383 -3.862107,-1.873759 -2.876118,-1.246604 -3.315962,-1.514632 -4.498849,-2.741465 -0.721086,-0.747876 -1.273555,-1.397287 -1.227705,-1.443136 0.12528,-0.125281 9.230197,3.876449 13.46835,5.919516 2.04507,0.985856 7.253996,3.559288 11.575389,5.718733 l 7.857079,3.926265 -2.335953,0.141399 c -1.284773,0.07777 -5.978672,0.153828 -10.430884,0.169015 -7.358975,0.0251 -8.136935,0.06347 -8.556946,0.42198 -0.25411,0.216902 0.878751,-1.021935 2.517467,-2.752969 z"
       id="path5874"
       inkscape:connector-curvature="0" />
    <path
       style="fill:#8638b1;stroke-width:0.22535211"
       d="M 42.445251,45.350299 42.015958,44.843257 42.523,45.27255 c 0.476493,0.40343 0.609631,0.584791 0.429293,0.584791 -0.04276,0 -0.270931,-0.228169 -0.507042,-0.507042 z m -2.587195,-2.816902 -0.546324,-0.619718 0.619719,0.546324 c 0.57922,0.510623 0.723062,0.693113 0.546323,0.693113 -0.04036,0 -0.319238,-0.278873 -0.619718,-0.619719 z M 23.846367,25.181285 c -0.280309,-0.357422 -0.272338,-0.365393 0.08508,-0.08508 0.37538,0.294393 0.494756,0.47945 0.309282,0.47945 -0.04679,0 -0.224259,-0.177465 -0.394366,-0.394366 z m 4.056338,0 c -0.280309,-0.357422 -0.272338,-0.365393 0.08508,-0.08508 0.37538,0.294393 0.494756,0.47945 0.309282,0.47945 -0.04679,0 -0.224259,-0.177465 -0.394366,-0.394366 z m -7.084023,-3.267606 -0.661879,-0.732394 0.732394,0.661879 c 0.682695,0.616964 0.835978,0.802909 0.66188,0.802909 -0.03878,0 -0.368361,-0.329577 -0.732395,-0.732394 z m 4.049104,0 -0.429293,-0.507042 0.507042,0.429293 c 0.278873,0.236111 0.507042,0.46428 0.507042,0.507042 0,0.180338 -0.181361,0.0472 -0.584791,-0.429293 z m -7.204033,-3.380282 -0.66188,-0.732394 0.732395,0.661879 c 0.682695,0.616965 0.835977,0.80291 0.661879,0.80291 -0.03878,0 -0.36836,-0.329578 -0.732394,-0.732395 z m 4.049104,0 -0.429294,-0.507042 0.507043,0.429293 c 0.476493,0.403429 0.609631,0.584791 0.429293,0.584791 -0.04276,0 -0.270932,-0.228169 -0.507042,-0.507042 z m -7.429386,-3.605634 -0.661879,-0.732394 0.732394,0.66188 c 0.402817,0.364033 0.732394,0.693611 0.732394,0.732394 0,0.174098 -0.185944,0.02081 -0.802909,-0.66188 z M 2.1076967,10.477059 c 0,-2.0450704 0.034164,-2.8816902 0.075921,-1.8591549 0.041756,1.0225352 0.041756,2.6957749 0,3.7183099 -0.041756,1.022535 -0.075921,0.185915 -0.075921,-1.859155 z m 9.0208453,1.070423 -0.66188,-0.732395 0.732394,0.66188 c 0.682695,0.616965 0.835978,0.802909 0.66188,0.802909 -0.03878,0 -0.36836,-0.329578 -0.732394,-0.732394 z M 7.7482601,7.9418477 7.0863804,7.2094534 7.8187748,7.871333 c 0.4028169,0.3640338 0.7323943,0.6936113 0.7323943,0.7323944 0,0.1740983 -0.1859443,0.020813 -0.802909,-0.6618797 z M 5.5928469,5.5756505 C 5.312538,5.2182294 5.3205087,5.2102587 5.6779297,5.4905677 c 0.2169014,0.1701057 0.3943662,0.3475705 0.3943662,0.3943662 0,0.1854725 -0.185056,0.066096 -0.479449,-0.3092834 z"
       id="path5872"
       inkscape:connector-curvature="0" />
    <path
       style="fill:#976f63;stroke-width:0.22535211"
       d="M 20.038159,62.026355 C 19.348025,61.677431 18.82364,61.173558 18.356607,60.410576 17.775705,59.461573 17.66663,59.035011 17.599498,57.449765 l -0.07843,-1.852074 0.865038,-0.957497 c 0.672776,-0.74468 1.666912,-1.346265 4.4728,-2.706634 1.984266,-0.962028 3.98419,-1.904683 4.444273,-2.09479 l 0.836518,-0.34565 0.08721,1.844084 c 0.04796,1.014244 0.0423,0.157354 -0.0126,-1.904199 -0.07105,-2.668543 -0.02548,-3.794215 0.158213,-3.907743 0.191761,-0.118515 0.24059,1.234666 0.190159,5.269618 -0.04397,3.518164 0.01147,5.426195 0.157496,5.420884 0.123944,-0.0045 0.478874,-0.153122 0.788733,-0.330254 0.757147,-0.432825 0.858046,-0.417814 0.942073,0.140151 0.06586,0.437346 0.567222,0.228624 5.87124,-2.444245 5.15214,-2.596334 5.831061,-2.882283 6.084507,-2.562684 0.411018,0.518294 0.892124,1.405471 0.807865,1.48973 -0.209667,0.20967 -17.562965,8.735525 -18.984876,9.327469 -1.993663,0.829962 -2.849706,0.868854 -4.191565,0.190424 z M 19.142718,31.13184 C 8.9013127,26.385954 8.2744113,26.076352 6.297648,24.788176 4.7301871,23.766725 4.006714,23.06203 3.0614872,21.636016 2.5527304,20.86848 2.4666621,20.496755 2.4666621,19.066992 v -1.67164 l 0.6367275,0.878976 c 1.440048,1.987928 2.8933717,2.981363 8.0346624,5.492176 2.729327,1.332901 7.721493,3.679603 11.093705,5.214893 l 6.131293,2.791437 0.0096,1.746479 c 0.0053,0.960563 -0.0665,1.744448 -0.159461,1.741967 -0.09296,-0.0025 -4.174648,-1.860728 -9.070422,-4.12944 z"
       id="path5870"
       inkscape:connector-curvature="0" />
    <path
       style="fill:#7329be;stroke-width:0.22535211"
       d="m 41.583917,44.279876 c -1.345717,-1.487324 -2.508888,-2.702672 -2.584825,-2.700775 -0.07593,0.0018 -0.28786,0.09818 -0.470945,0.213952 -0.227051,0.143578 -0.457021,0.09816 -0.723353,-0.142871 -0.358339,-0.324293 -0.618382,-0.251694 -3.160077,0.882228 -2.152762,0.960411 -2.78686,1.161794 -2.847076,0.904217 -0.04261,-0.182263 0.01719,-0.426053 0.132904,-0.54176 0.115704,-0.115705 2.094555,-1.054695 4.397442,-2.086641 l 4.187069,-1.876269 1.005816,1.040156 c 1.615288,1.670438 5.114804,5.707937 5.114804,5.901109 0,0.133559 -2.243761,1.11088 -2.550391,1.11088 -0.03003,0 -1.155651,-1.216902 -2.501368,-2.704226 z M 27.736255,27.20066 24.498806,25.70821 16.68362,17.36024 C 12.385269,12.768857 8.0871921,8.1616938 7.132338,7.1221003 L 5.3962396,5.2319302 V 3.1954943 1.1590582 l 0.5921305,0.5463243 c 0.3256718,0.3004784 2.7993466,2.9869531 5.4970549,5.969944 2.697708,2.9829905 5.259581,5.7210185 5.693048,6.0845075 1.234312,1.035043 14.22841,15.044917 13.867925,14.952011 -0.03998,-0.0103 -1.529546,-0.690337 -3.310143,-1.511185 z"
       id="path5868"
       inkscape:connector-curvature="0" />
    <path
       style="fill:#ec3700;stroke-width:0.22535211"
       d="m 28.973889,30.564728 c -0.288811,-0.319132 -0.373535,-0.734993 -0.322675,-1.583827 l 0.06897,-1.151064 1.307682,0.619384 1.307683,0.619388 -0.985006,0.964441 c -0.962098,0.94201 -0.994116,0.954378 -1.376653,0.531678 z m 1.042069,-3.424462 -1.408451,-1.545456 v -2.251601 -2.251603 l 0.84507,0.353 c 1.600012,0.668352 5.655207,2.765447 5.799703,2.999245 0.134875,0.218234 -3.418299,4.313578 -3.699759,4.264298 -0.07046,-0.01233 -0.761915,-0.717884 -1.536563,-1.567883 z"
       id="path5866"
       inkscape:connector-curvature="0" />
    <path
       style="fill:#9b5130;stroke-width:0.22535211"
       d="m 28.238042,51.265792 c 0,-1.177465 0.03798,-1.659155 0.0844,-1.070423 0.04642,0.588733 0.04642,1.552113 0,2.140845 -0.04642,0.588733 -0.0844,0.107043 -0.0844,-1.070422 z m 13.439887,-0.535788 c 0,-0.0468 0.177465,-0.224259 0.394367,-0.394366 0.357422,-0.280309 0.365392,-0.272339 0.08508,0.08508 -0.294394,0.375381 -0.479451,0.494757 -0.479451,0.309283 z M 29.48017,31.265792 c -0.280309,-0.357422 -0.272339,-0.365393 0.08508,-0.08508 0.216902,0.170107 0.394367,0.347572 0.394367,0.394366 0,0.185474 -0.185057,0.0661 -0.47945,-0.309282 z M 3.4593355,5.0122702 3.0300424,4.505228 3.5370847,4.934521 c 0.2788732,0.2361111 0.5070422,0.4642802 0.5070422,0.5070423 0,0.1803387 -0.181362,0.047202 -0.5847914,-0.4292931 z"
       id="path5864"
       inkscape:connector-curvature="0" />
    <path
       style="fill:#dd3b00;stroke-width:0.22535211"
       d="m 26.581272,28.056642 c -1.790754,-1.961534 -1.822029,-2.014537 -0.982132,-1.664453 0.477138,0.19888 1.349212,0.605269 1.937944,0.903088 1.061348,0.536897 1.070423,0.551008 1.070423,1.664453 0,0.617629 -0.03973,1.122963 -0.08829,1.122963 -0.04856,0 -0.920635,-0.911723 -1.937945,-2.026051 z m 4.25101,0.05422 c -0.280309,-0.357422 -0.272338,-0.365393 0.08508,-0.08508 0.37538,0.294393 0.494756,0.47945 0.309282,0.47945 -0.04679,0 -0.224259,-0.177465 -0.394366,-0.394366 z M 25.15253,21.938371 c -1.962211,-2.110759 -3.525715,-3.879681 -3.474458,-3.930938 0.05126,-0.05126 1.50459,0.523408 3.229627,1.277036 1.725034,0.753627 3.257016,1.421138 3.404403,1.483357 0.177357,0.07487 0.291664,0.94517 0.338028,2.57361 0.03853,1.353266 0.07005,2.454679 0.07005,2.44758 0,-0.0071 -1.605444,-1.739887 -3.567653,-3.850645 z"
       id="path5862"
       inkscape:connector-curvature="0" />
    <path
       style="fill:#900359;stroke-width:0.22535211"
       d="m 28.659822,50.808956 0.06036,-5.427847 1.014085,-0.541909 c 1.294438,-0.691723 3.912383,-1.873289 5.045694,-2.277289 0.482173,-0.171883 1.2262,-0.528532 1.653393,-0.792552 0.769363,-0.475491 0.780863,-0.475887 1.214974,-0.04178 0.43411,0.434112 0.402464,0.45413 -3.343535,2.114995 l -3.781794,1.676735 -0.06073,4.899067 -0.06073,4.899067 -0.901041,0.459678 -0.901041,0.459678 z M 19.339325,20.44889 c -0.280309,-0.357422 -0.272338,-0.365393 0.08508,-0.08508 0.216902,0.170107 0.394367,0.347572 0.394367,0.394366 0,0.185474 -0.185057,0.0661 -0.47945,-0.309282 z m -6.535211,-6.985915 c -0.280309,-0.357422 -0.272338,-0.365392 0.08508,-0.08508 0.216902,0.170105 0.394366,0.34757 0.394366,0.394366 0,0.185472 -0.185056,0.0661 -0.479449,-0.309283 z M 6.2689032,6.477059 C 5.9885943,6.1196379 5.996565,6.1116672 6.3539861,6.3919762 c 0.3753798,0.294393 0.4947558,0.479449 0.3092833,0.479449 -0.046796,0 -0.2242605,-0.1774648 -0.3943662,-0.3943662 z"
       id="path5860"
       inkscape:connector-curvature="0" />
    <path
       style="fill:#96241b;stroke-width:0.22535211"
       d="m 28.804113,30.589735 c -0.280309,-0.357422 -0.272338,-0.365392 0.08508,-0.08508 0.216902,0.170107 0.394366,0.347572 0.394366,0.394367 0,0.185473 -0.185057,0.0661 -0.47945,-0.309283 z m -2.917888,-3.154929 -0.546324,-0.619719 0.619719,0.546324 c 0.57922,0.510623 0.723062,0.693113 0.546323,0.693113 -0.04036,0 -0.319238,-0.278873 -0.619718,-0.619718 z m 1.685787,-2.816902 -0.429294,-0.507042 0.507043,0.429294 c 0.278873,0.23611 0.507042,0.464279 0.507042,0.507042 0,0.180338 -0.181361,0.0472 -0.584791,-0.429294 z m -3.15493,-3.380281 -0.429293,-0.507043 0.507042,0.429294 c 0.278873,0.23611 0.507042,0.464279 0.507042,0.507042 0,0.180338 -0.181361,0.0472 -0.584791,-0.429293 z m -3.020843,-3.211268 c -0.161701,-0.194838 -0.183603,-0.338028 -0.0517,-0.338028 0.125859,0 0.287204,0.152112 0.358549,0.338028 0.07134,0.185915 0.09461,0.338028 0.0517,0.338028 -0.04291,0 -0.204252,-0.152113 -0.358549,-0.338028 z M 4.305061,4.8432561 c 0,-0.3098591 0.051149,-0.4366197 0.1136645,-0.2816901 0.062515,0.1549296 0.062515,0.4084507 0,0.5633803 C 4.3562098,5.2798759 4.305061,5.1531153 4.305061,4.8432561 Z"
       id="path5858"
       inkscape:connector-curvature="0" />
    <path
       style="fill:#772a01;stroke-width:0.22535211"
       d="m 30.462545,50.898998 0.06046,-5.357526 3.943662,-1.776309 c 2.169014,-0.976969 4.104572,-1.826073 4.301239,-1.886896 0.539646,-0.166898 6.700068,6.653316 6.419588,7.10714 -0.07402,0.119765 -0.66578,0.390012 -1.315027,0.600547 -0.649246,0.210538 -1.68749,0.71298 -2.307209,1.116543 -1.18295,0.770342 -9.771513,5.119912 -10.652004,5.394574 L 30.40209,56.256523 Z M 28.269479,31.434806 c -0.0766,-0.123944 -0.08651,-0.225352 -0.02202,-0.225352 0.06449,0 -0.274341,-0.380282 -0.752951,-0.845071 C 27.01589,29.899594 23.148976,25.817904 18.901357,21.293961 14.653738,16.770017 9.6143849,11.423925 7.7027939,9.413756 4.5507915,6.0992095 4.2448805,5.7067333 4.4173407,5.1985986 4.5946804,4.6760863 5.3979182,5.4826648 16.325817,17.1566 c 6.44507,6.88507 12.107103,12.965714 12.582292,13.512545 0.814179,0.936924 0.82957,0.981154 0.267019,0.767274 -0.746841,-0.28395 -0.854949,-0.284205 -0.680297,-0.0016 0.0766,0.123943 0.08857,0.225352 0.0266,0.225352 -0.06197,0 -0.175348,-0.101409 -0.25195,-0.225352 z"
       id="path5856"
       inkscape:connector-curvature="0" />
    <path
       style="fill:#2d0011;stroke-width:0.22535211"
       d="M 20.945535,28.268491 C 11.359556,23.835394 6.6641639,21.487921 5.3047818,20.448856 4.6967336,19.984086 3.7840575,19.013888 3.2766128,18.292861 L 2.3539861,16.981903 2.2841896,10.768291 C 2.244117,7.2008431 2.3023327,4.4667405 2.4208893,4.3481839 2.6475667,4.1215065 6.3257188,7.8991415 19.578657,21.970017 c 7.259056,7.707065 9.059065,9.698837 8.755088,9.687811 -0.03535,-0.0013 -3.360041,-1.526484 -7.38821,-3.389337 z"
       id="path5854"
       inkscape:connector-curvature="0" />
  </g>
</svg>
