<?xml version="1.0" encoding="UTF-8" standalone="no"?>
<!-- Created with Inkscape (http://www.inkscape.org/) -->

<svg
   xmlns:dc="http://purl.org/dc/elements/1.1/"
   xmlns:cc="http://creativecommons.org/ns#"
   xmlns:rdf="http://www.w3.org/1999/02/22-rdf-syntax-ns#"
   xmlns:svg="http://www.w3.org/2000/svg"
   xmlns="http://www.w3.org/2000/svg"
   xmlns:sodipodi="http://sodipodi.sourceforge.net/DTD/sodipodi-0.dtd"
   xmlns:inkscape="http://www.inkscape.org/namespaces/inkscape"
   version="1.1"
   id="svg6712"
   width="300"
   height="300"
   viewBox="0 0 300 300"
   sodipodi:docname="twitter.svg"
   inkscape:version="0.92.4 (5da689c313, 2019-01-14)">
  <metadata
     id="metadata6718">
    <rdf:RDF>
      <cc:Work
         rdf:about="">
        <dc:format>image/svg+xml</dc:format>
        <dc:type
           rdf:resource="http://purl.org/dc/dcmitype/StillImage" />
        <dc:title></dc:title>
      </cc:Work>
    </rdf:RDF>
  </metadata>
  <defs
     id="defs6716" />
  <sodipodi:namedview
     pagecolor="#ffffff"
     bordercolor="#666666"
     borderopacity="1"
     objecttolerance="10"
     gridtolerance="10"
     guidetolerance="10"
     inkscape:pageopacity="0"
     inkscape:pageshadow="2"
     inkscape:window-width="1920"
     inkscape:window-height="1017"
     id="namedview6714"
     showgrid="false"
     inkscape:zoom="1.9421103"
     inkscape:cx="84.80254"
     inkscape:cy="155.40785"
     inkscape:window-x="-8"
     inkscape:window-y="-8"
     inkscape:window-maximized="1"
     inkscape:current-layer="svg6712"
     inkscape:pagecheckerboard="true" />
  <path
     style="fill:#fefefe;stroke-width:0.24291497"
     d="m 131.20206,299.53216 c -0.24762,-0.28076 -1.04891,-0.35514 -3.82591,-0.35514 -3.35075,0 -3.51269,-0.0224 -3.51269,-0.48583 0,-0.45498 -0.16194,-0.48583 -2.55061,-0.48583 -2.38866,0 -2.5506,-0.0308 -2.5506,-0.48583 0,-0.45498 -0.16195,-0.48583 -2.55061,-0.48583 -2.38866,0 -2.55061,-0.0308 -2.55061,-0.48583 0,-0.44772 -0.16194,-0.48583 -2.06478,-0.48583 -1.90283,0 -2.06477,-0.0381 -2.06477,-0.48583 0,-0.43186 -0.16195,-0.48583 -1.45749,-0.48583 -1.29555,0 -1.45749,-0.054 -1.45749,-0.48583 0,-0.43601 -0.16195,-0.48583 -1.57895,-0.48583 -1.52227,0 -1.57895,-0.0219 -1.57895,-0.60729 0,-0.5803 -0.0648,-0.60729 -1.45749,-0.60729 -1.29554,0 -1.45749,-0.054 -1.45749,-0.48583 0,-0.43601 -0.16194,-0.48583 -1.578947,-0.48583 -1.417,0 -1.57894,-0.0498 -1.57894,-0.48583 0,-0.43185 -0.16195,-0.48583 -1.45749,-0.48583 -1.29555,0 -1.45749,-0.054 -1.45749,-0.48583 0,-0.40486 -0.16195,-0.48583 -0.97166,-0.48583 -0.80972,0 -0.97166,-0.081 -0.97166,-0.48583 0,-0.43601 -0.16195,-0.48583 -1.57895,-0.48583 -1.417,0 -1.57895,-0.0498 -1.57895,-0.48583 0,-0.40486 -0.16194,-0.48583 -0.97166,-0.48583 -0.87449,0 -0.97166,-0.0607 -0.97166,-0.60729 0,-0.5578 -0.0891,-0.60728 -1.09312,-0.60728 -0.93117,0 -1.09311,-0.072 -1.09311,-0.48583 0,-0.40487 -0.16195,-0.48583 -0.97166,-0.48583 -0.80972,0 -0.97166,-0.081 -0.97166,-0.48583 0,-0.40487 -0.16195,-0.48583 -0.97166,-0.48583 -0.80972,0 -0.97166,-0.081 -0.97166,-0.48583 0,-0.41386 -0.16195,-0.48583 -1.09312,-0.48583 -0.93117,0 -1.09312,-0.072 -1.09312,-0.48583 0,-0.40487 -0.16194,-0.48583 -0.97166,-0.48583 -0.80971,0 -0.97166,-0.081 -0.97166,-0.48583 0,-0.40487 -0.16194,-0.48583 -0.97166,-0.48583 -0.87449,0 -0.97166,-0.0607 -0.97166,-0.60729 0,-0.55781 -0.0891,-0.60729 -1.09311,-0.60729 -0.93118,0 -1.09312,-0.072 -1.09312,-0.48583 0,-0.32388 -0.16195,-0.48583 -0.48583,-0.48583 -0.32389,0 -0.48583,-0.16195 -0.48583,-0.48583 0,-0.40486 -0.16195,-0.48583 -0.97166,-0.48583 -0.80972,0 -0.97166,-0.081 -0.97166,-0.48583 0,-0.40486 -0.16195,-0.48583 -0.97166,-0.48583 -0.80972,0 -0.97166,-0.081 -0.97166,-0.48583 0,-0.35628 -0.16195,-0.48583 -0.60729,-0.48583 -0.44534,0 -0.60729,-0.12954 -0.60729,-0.48583 0,-0.40486 -0.16194,-0.48583 -0.97166,-0.48583 -0.87449,0 -0.97166,-0.0607 -0.97166,-0.60728 0,-0.44534 -0.12955,-0.60729 -0.48583,-0.60729 -0.32388,0 -0.48583,-0.16195 -0.48583,-0.48583 0,-0.40487 -0.16194,-0.48583 -0.97166,-0.48583 -0.80971,0 -0.97166,-0.081 -0.97166,-0.48583 0,-0.35629 -0.16194,-0.48583 -0.60728,-0.48583 -0.44535,0 -0.60729,-0.12955 -0.60729,-0.48583 0,-0.32388 -0.16195,-0.48583 -0.48583,-0.48583 -0.32389,0 -0.48583,-0.16195 -0.48583,-0.48583 0,-0.40487 -0.16195,-0.48583 -0.97166,-0.48583 -0.80972,0 -0.97166,-0.081 -0.97166,-0.48583 0,-0.32388 -0.16194,-0.48583 -0.48583,-0.48583 -0.35628,0 -0.48583,-0.16195 -0.48583,-0.60729 0,-0.44534 -0.12955,-0.60729 -0.48583,-0.60729 -0.32389,0 -0.48583,-0.16195 -0.48583,-0.48583 0,-0.41385 -0.16194,-0.48583 -1.09312,-0.48583 -0.93117,0 -1.09312,-0.072 -1.09312,-0.48583 0,-0.32387 -0.16194,-0.48583 -0.48583,-0.48583 -0.32388,0 -0.48583,-0.16195 -0.48583,-0.48583 0,-0.32387 -0.16194,-0.48583 -0.48583,-0.48583 -0.32388,0 -0.48583,-0.16195 -0.48583,-0.48583 0,-0.32387 -0.16194,-0.48583 -0.48583,-0.48583 -0.32388,0 -0.48583,-0.16195 -0.48583,-0.48583 0,-0.32387 -0.16194,-0.48583 -0.48583,-0.48583 -0.35627,0 -0.48583,-0.16195 -0.48583,-0.60728 0,-0.55781 -0.0891,-0.60729 -1.09311,-0.60729 -0.93118,0 -1.09312,-0.072 -1.09312,-0.48583 0,-0.32388 -0.16195,-0.48583 -0.48583,-0.48583 -0.32389,0 -0.48583,-0.16195 -0.48583,-0.48583 0,-0.32388 -0.16195,-0.48583 -0.48583,-0.48583 -0.32389,0 -0.48583,-0.16195 -0.48583,-0.48583 0,-0.32388 -0.16195,-0.48583 -0.48583,-0.48583 -0.32389,0 -0.48583,-0.16195 -0.48583,-0.48583 0,-0.32388 -0.16195,-0.48583 -0.48583,-0.48583 -0.32389,0 -0.48583,-0.16195 -0.48583,-0.48583 0,-0.35628 -0.16195,-0.48583 -0.60729,-0.48583 -0.48583,0 -0.60729,-0.12146 -0.60729,-0.60729 0,-0.44533 -0.12955,-0.60729 -0.48583,-0.60729 -0.32388,0 -0.48583,-0.16195 -0.48583,-0.48583 0,-0.32387 -0.16194,-0.48583 -0.48583,-0.48583 -0.32388,0 -0.48583,-0.16195 -0.48583,-0.48583 0,-0.32387 -0.16194,-0.48583 -0.48583,-0.48583 -0.32388,0 -0.48583,-0.16195 -0.48583,-0.48583 0,-0.32387 -0.16194,-0.48583 -0.48583,-0.48583 -0.32388,0 -0.48583,-0.16195 -0.48583,-0.48583 0,-0.32387 -0.16194,-0.48583 -0.48583,-0.48583 -0.32388,0 -0.48583,-0.16195 -0.48583,-0.48583 0,-0.35628 -0.16194,-0.48583 -0.60728,-0.48583 -0.55781,0 -0.60729,-0.0891 -0.60729,-1.09311 0,-0.93117 -0.072,-1.09312 -0.48583,-1.09312 -0.32389,0 -0.48583,-0.16195 -0.48583,-0.48583 0,-0.32388 -0.16194,-0.48583 -0.48583,-0.48583 -0.32389,0 -0.48583,-0.16195 -0.48583,-0.48583 0,-0.32388 -0.16194,-0.48583 -0.48583,-0.48583 -0.32389,0 -0.48583,-0.16195 -0.48583,-0.48583 0,-0.32388 -0.16194,-0.48583 -0.48583,-0.48583 -0.32389,0 -0.48583,-0.16195 -0.48583,-0.48583 0,-0.32388 -0.16194,-0.48583 -0.48583,-0.48583 -0.41385,0 -0.48583,-0.16195 -0.48583,-1.09312 0,-1.00404 -0.0495,-1.09311 -0.60729,-1.09311 -0.44534,0 -0.60729,-0.12955 -0.60729,-0.48583 0,-0.32389 -0.16194,-0.48583 -0.48583,-0.48583 -0.32388,0 -0.48583,-0.16195 -0.48583,-0.48583 0,-0.32389 -0.16194,-0.48583 -0.48583,-0.48583 -0.40485,0 -0.48583,-0.16195 -0.48583,-0.97166 0,-0.80972 -0.081,-0.97166 -0.48583,-0.97166 -0.35627,0 -0.48583,-0.16195 -0.48583,-0.60729 0,-0.44534 -0.12955,-0.60729 -0.48583,-0.60729 -0.32388,0 -0.48583,-0.16194 -0.48583,-0.48583 0,-0.32388 -0.16194,-0.48583 -0.48583,-0.48583 -0.40485,0 -0.48583,-0.16194 -0.48583,-0.97166 0,-0.87449 -0.0607,-0.97166 -0.60728,-0.97166 -0.44535,0 -0.60729,-0.12955 -0.60729,-0.48583 0,-0.32388 -0.16194,-0.48583 -0.48583,-0.48583 -0.41386,0 -0.48583,-0.16194 -0.48583,-1.09312 0,-0.93117 -0.072,-1.09311 -0.48583,-1.09311 -0.32389,0 -0.48583,-0.16195 -0.48583,-0.48583 0,-0.32389 -0.16194,-0.48583 -0.48583,-0.48583 -0.40486,0 -0.48583,-0.16195 -0.48583,-0.97166 0,-0.80972 -0.081,-0.97166 -0.48583,-0.97166 -0.40486,0 -0.48583,-0.16195 -0.48583,-0.97166 0,-0.80972 -0.081,-0.97166 -0.48583,-0.97166 -0.35627,0 -0.48583,-0.16195 -0.48583,-0.60729 0,-0.48583 -0.12146,-0.60729 -0.60729,-0.60729 -0.54656,0 -0.60728,-0.0972 -0.60728,-0.97166 0,-0.80971 -0.081,-0.97166 -0.48583,-0.97166 -0.40486,0 -0.48583,-0.16194 -0.48583,-0.97166 0,-0.80971 -0.081,-0.97166 -0.48583,-0.97166 -0.41386,0 -0.48583,-0.16194 -0.48583,-1.09312 0,-0.93117 -0.072,-1.09311 -0.48583,-1.09311 -0.40486,0 -0.48583,-0.16195 -0.48583,-0.97166 0,-0.80972 -0.081,-0.97166 -0.48583,-0.97166 -0.40486,0 -0.48583,-0.16195 -0.48583,-0.97166 0,-0.80972 -0.081,-0.97166 -0.48583,-0.97166 -0.41386,0 -0.48583,-0.16195 -0.48583,-1.09312 0,-1.00405 -0.0495,-1.09312 -0.60729,-1.09312 -0.54656,0 -0.60729,-0.0972 -0.60729,-0.97166 0,-0.80971 -0.081,-0.97166 -0.48583,-0.97166 -0.40486,0 -0.48583,-0.16194 -0.48583,-0.97166 0,-0.80971 -0.081,-0.97166 -0.48583,-0.97166 -0.436,0 -0.48583,-0.16194 -0.48583,-1.57894 0,-1.41701 -0.0498,-1.57895 -0.4858299,-1.57895 -0.40486,0 -0.48583,-0.16195 -0.48583,-0.97166 0,-0.80972 -0.081,-0.97166 -0.48583,-0.97166 -0.436,0 -0.48583,-0.16195 -0.48583,-1.57895 0,-1.417 -0.0498,-1.57895 -0.48583,-1.57895 -0.43185,0 -0.48583,-0.16194 -0.48583,-1.45749 0,-1.39271 -0.027,-1.45749 -0.60729,-1.45749 -0.58548,0 -0.60728,-0.0567 -0.60728,-1.57894 0,-1.41701 -0.0498,-1.57895 -0.48583,-1.57895 -0.43185,0 -0.48583,-0.16194 -0.48583,-1.45749 0,-1.29555 -0.054,-1.45749 -0.48583,-1.45749 -0.436,0 -0.48583,-0.16194 -0.48583,-1.57895 0,-1.417 -0.0498,-1.57894 -0.48583,-1.57894 -0.44535,0 -0.48583,-0.16195 -0.48583,-1.94332 0,-1.78138 -0.0405,-1.94332 -0.48583,-1.94332 -0.45499,0 -0.48583,-0.16195 -0.48583,-2.55061 0,-2.38867 -0.0308,-2.55061 -0.48583,-2.55061 -0.45499,0 -0.48583,-0.16194 -0.48583,-2.55061 0,-2.54479 -0.001,-2.5506 -0.59511998,-2.5506 h -0.59511 l -0.14551,-3.70446 c -0.18899,-4.81159 -0.18899,-39.27747 0,-44.08907 l 0.14551,-3.70445 h 0.59511 c 0.59375998,0 0.59511998,-0.006 0.59511998,-2.55061 0,-2.38866 0.0308,-2.5506 0.48583,-2.5506 0.45498,0 0.48583,-0.16195 0.48583,-2.55061 0,-2.38866 0.0309,-2.55061 0.48583,-2.55061 0.44772,0 0.48583,-0.16194 0.48583,-2.06478 0,-1.90283 0.0381,-2.06477 0.48583,-2.06477 0.43185,0 0.48583,-0.16195 0.48583,-1.45749 0,-1.29555 0.054,-1.45749 0.48583,-1.45749 0.436,0 0.48583,-0.16195 0.48583,-1.57895 0,-1.417 0.0498,-1.57895 0.48583,-1.57895 0.43185,0 0.48583,-0.16194 0.48583,-1.45749 0,-1.39271 0.027,-1.45749 0.60728,-1.45749 0.58549,0 0.60729,-0.0567 0.60729,-1.578938 0,-1.417008 0.0498,-1.578952 0.48583,-1.578952 0.43185,0 0.48583,-0.161944 0.48583,-1.45749 0,-1.295546 0.054,-1.45749 0.48583,-1.45749 0.40486,0 0.48583,-0.161944 0.48583,-0.97166 0,-0.809716 0.081,-0.97166 0.48583,-0.97166 0.4359999,0 0.4858299,-0.161944 0.4858299,-1.578947 0,-1.417004 0.0498,-1.578948 0.48583,-1.578948 0.40486,0 0.48583,-0.161944 0.48583,-0.97166 0,-0.809715 0.081,-0.971659 0.48583,-0.971659 0.41386,0 0.48583,-0.161945 0.48583,-1.093118 0,-1.004048 0.0495,-1.093117 0.60729,-1.093117 0.54656,0 0.60729,-0.09717 0.60729,-0.97166 0,-0.809716 0.081,-0.97166 0.48583,-0.97166 0.40485,0 0.48583,-0.161944 0.48583,-0.97166 0,-0.809716 0.081,-0.97166 0.48583,-0.97166 0.41385,0 0.48583,-0.161944 0.48583,-1.093117 0,-0.931174 0.072,-1.093118 0.48583,-1.093118 0.40485,0 0.48583,-0.161944 0.48583,-0.97166 0,-0.809716 0.081,-0.97166 0.48583,-0.97166 0.40485,0 0.48583,-0.161944 0.48583,-0.97166 0,-0.809715 0.081,-0.971659 0.48583,-0.971659 0.41385,0 0.48583,-0.161945 0.48583,-1.093118 0,-1.004048 0.0495,-1.093117 0.60728,-1.093117 0.44535,0 0.60729,-0.129554 0.60729,-0.48583 0,-0.323886 0.16194,-0.48583 0.48583,-0.48583 0.40486,0 0.48583,-0.161944 0.48583,-0.97166 0,-0.809716 0.081,-0.97166 0.48583,-0.97166 0.40486,0 0.48583,-0.161944 0.48583,-0.97166 0,-0.809716 0.081,-0.97166 0.48583,-0.97166 0.35628,0 0.48583,-0.161944 0.48583,-0.607287 0,-0.445344 0.12955,-0.607288 0.48583,-0.607288 0.40486,0 0.48583,-0.161944 0.48583,-0.97166 0,-0.809715 0.081,-0.97166 0.48583,-0.97166 0.32389,0 0.48583,-0.161944 0.48583,-0.48583 0,-0.356276 0.16194,-0.48583 0.60729,-0.48583 0.54656,0 0.60728,-0.09717 0.60728,-0.971659 0,-0.809716 0.081,-0.97166 0.48583,-0.97166 0.35628,0 0.48583,-0.161945 0.48583,-0.607288 0,-0.445343 0.12956,-0.607287 0.48583,-0.607287 0.32389,0 0.48583,-0.161944 0.48583,-0.48583 0,-0.323886 0.16195,-0.48583 0.48583,-0.48583 0.40486,0 0.48583,-0.161944 0.48583,-0.97166 0,-0.809716 0.081,-0.97166 0.48583,-0.97166 0.32389,0 0.48583,-0.161944 0.48583,-0.48583 0,-0.323886 0.16195,-0.48583 0.48583,-0.48583 0.32389,0 0.48583,-0.161944 0.48583,-0.48583 0,-0.356276 0.16195,-0.48583 0.60729,-0.48583 0.55781,0 0.60729,-0.08907 0.60729,-1.093117 0,-0.931174 0.072,-1.093118 0.48583,-1.093118 0.32389,0 0.48583,-0.161944 0.48583,-0.48583 0,-0.323885 0.16194,-0.48583 0.48583,-0.48583 0.32389,0 0.48583,-0.161944 0.48583,-0.48583 0,-0.323885 0.16194,-0.48583 0.48583,-0.48583 0.32389,0 0.48583,-0.161944 0.48583,-0.485829 0,-0.323886 0.16194,-0.48583 0.48583,-0.48583 0.32389,0 0.48583,-0.161945 0.48583,-0.48583 0,-0.323886 0.16194,-0.48583 0.48583,-0.48583 0.41385,0 0.48583,-0.161945 0.48583,-1.093118 0,-1.004048 0.0495,-1.093117 0.60729,-1.093117 0.44534,0 0.60728,-0.129554 0.60728,-0.48583 0,-0.323886 0.16195,-0.48583 0.48583,-0.48583 0.32389,0 0.48583,-0.161944 0.48583,-0.48583 0,-0.323886 0.16195,-0.48583 0.48583,-0.48583 0.32389,0 0.48583,-0.161944 0.48583,-0.48583 0,-0.323886 0.16195,-0.48583 0.48583,-0.48583 0.32389,0 0.48583,-0.161944 0.48583,-0.48583 0,-0.323886 0.16195,-0.48583 0.48583,-0.48583 0.35628,0 0.48583,-0.161944 0.48583,-0.607287 0,-0.445344 0.12956,-0.607288 0.48583,-0.607288 0.32389,0 0.48583,-0.161944 0.48583,-0.48583 0,-0.356276 0.16195,-0.48583 0.60729,-0.48583 0.44534,0 0.60729,-0.129554 0.60729,-0.48583 0,-0.323885 0.16194,-0.48583 0.48583,-0.48583 0.32388,0 0.48583,-0.161944 0.48583,-0.48583 0,-0.323885 0.16194,-0.48583 0.48583,-0.48583 0.32388,0 0.48583,-0.161944 0.48583,-0.485829 0,-0.323886 0.16194,-0.48583 0.48583,-0.48583 0.32388,0 0.48583,-0.161945 0.48583,-0.48583 0,-0.323886 0.16194,-0.48583 0.48583,-0.48583 0.35627,0 0.48583,-0.161944 0.48583,-0.607288 0,-0.557805 0.0891,-0.607287 1.09312,-0.607287 0.93117,0 1.09311,-0.07198 1.09311,-0.48583 0,-0.323886 0.16195,-0.48583 0.48583,-0.48583 0.32389,0 0.48583,-0.161944 0.48583,-0.48583 0,-0.323886 0.16195,-0.48583 0.48583,-0.48583 0.32389,0 0.48583,-0.161944 0.48583,-0.48583 0,-0.323886 0.16195,-0.48583 0.48583,-0.48583 0.32389,0 0.48583,-0.161944 0.48583,-0.48583 0,-0.323886 0.16195,-0.48583 0.48583,-0.48583 0.32389,0 0.48583,-0.161944 0.48583,-0.48583 0,-0.413854 0.16195,-0.48583 1.09312,-0.48583 1.00405,0 1.09312,-0.04948 1.09312,-0.607287 0,-0.445344 0.12955,-0.607288 0.48583,-0.607288 0.32389,0 0.48583,-0.161944 0.48583,-0.48583 0,-0.323886 0.16194,-0.48583 0.48583,-0.48583 0.32389,0 0.48583,-0.161944 0.48583,-0.48583 0,-0.404859 0.16194,-0.48583 0.97166,-0.48583 0.80971,0 0.97166,-0.08097 0.97166,-0.48583 0,-0.323885 0.16194,-0.48583 0.48583,-0.48583 0.32388,0 0.48583,-0.161944 0.48583,-0.485829 0,-0.356277 0.16194,-0.48583 0.60729,-0.48583 0.44534,0 0.60728,-0.129554 0.60728,-0.48583 0,-0.404859 0.16195,-0.48583 0.97166,-0.48583 0.8745,0 0.97166,-0.06073 0.97166,-0.607288 0,-0.445343 0.12956,-0.607287 0.48583,-0.607287 0.32389,0 0.48583,-0.161944 0.48583,-0.48583 0,-0.404859 0.16195,-0.48583 0.97166,-0.48583 0.80972,0 0.97166,-0.08097 0.97166,-0.48583 0,-0.356276 0.16195,-0.48583 0.60729,-0.48583 0.44534,0 0.60729,-0.129555 0.60729,-0.48583 0,-0.404858 0.16194,-0.48583 0.97166,-0.48583 0.80971,0 0.97166,-0.08097 0.97166,-0.48583 0,-0.404858 0.16194,-0.48583 0.97166,-0.48583 0.80971,0 0.97166,-0.08097 0.97166,-0.48583 0,-0.323886 0.16194,-0.48583 0.48583,-0.48583 0.35627,0 0.48583,-0.161943 0.48583,-0.607287 0,-0.557805 0.0891,-0.607288 1.09312,-0.607288 0.93117,0 1.09311,-0.07197 1.09311,-0.48583 0,-0.404858 0.16195,-0.48583 0.97166,-0.48583 0.80972,0 0.97166,-0.08097 0.97166,-0.48583 0,-0.404858 0.16195,-0.48583 0.97166,-0.48583 0.80972,0 0.97166,-0.08097 0.97166,-0.48583 0,-0.413855 0.16195,-0.485829 1.09312,-0.485829 0.93117,0 1.09312,-0.07198 1.09312,-0.48583 0,-0.404859 0.16194,-0.48583 0.97166,-0.48583 0.80971,0 0.97166,-0.08097 0.97166,-0.48583 0,-0.404859 0.16194,-0.48583 0.97166,-0.48583 0.87449,0 0.97166,-0.06073 0.97166,-0.607288 0,-0.557804 0.0891,-0.607287 1.09311,-0.607287 0.93118,0 1.09312,-0.07198 1.09312,-0.48583 0,-0.404859 0.16195,-0.48583 0.97166,-0.48583 0.80972,0 0.97166,-0.08097 0.97166,-0.48583 0,-0.436001 0.16195,-0.48583 1.57895,-0.48583 1.417,0 1.57895,-0.04983 1.57895,-0.48583 0,-0.4048577 0.16194,-0.4858297 0.97166,-0.4858297 0.80971,0 0.97166,-0.08097 0.97166,-0.48583 0,-0.431849 0.16194,-0.48583 1.45749,-0.48583 1.29554,0 1.45749,-0.05398 1.45749,-0.48583 0,-0.436001 0.16194,-0.485829 1.57894,-0.485829 1.522267,0 1.578947,-0.0218 1.578947,-0.607288 0,-0.580297 0.0648,-0.607287 1.45749,-0.607287 1.29555,0 1.45749,-0.05398 1.45749,-0.48583 0,-0.436002 0.16195,-0.48583 1.57895,-0.48583 1.417,0 1.57895,-0.04983 1.57895,-0.48583 0,-0.431849 0.16194,-0.48583 1.45749,-0.48583 1.29554,0 1.45749,-0.05398 1.45749,-0.48583 0,-0.447726 0.16194,-0.48583 2.06477,-0.48583 1.90284,0 2.06478,-0.0381 2.06478,-0.48583 0,-0.454984 0.16195,-0.48583 2.55061,-0.48583 2.38866,0 2.55061,-0.03085 2.55061,-0.48583 0,-0.454984 0.16194,-0.48583 2.5506,-0.48583 2.54479,0 2.55061,-0.0014 2.55061,-0.595115 V 0.65884834 l 3.70445,-0.1455 c 4.8116,-0.18899 39.27748,-0.18899 44.08907,0 l 3.70446,0.1455 V 1.2539683 c 0,0.593758 0.006,0.595115 2.5506,0.595115 2.38867,0 2.55061,0.03085 2.55061,0.48583 0,0.454984 0.16194,0.48583 2.55061,0.48583 2.38866,0 2.55061,0.03085 2.55061,0.48583 0,0.445344 0.16194,0.48583 1.94331,0.48583 1.78138,0 1.94332,0.04049 1.94332,0.48583 0,0.436001 0.16195,0.48583 1.57895,0.48583 1.41701,0 1.57895,0.04983 1.57895,0.48583 0,0.431849 0.16194,0.48583 1.45749,0.48583 1.29555,0 1.45749,0.05398 1.45749,0.48583 0,0.436001 0.16194,0.48583 1.57895,0.48583 1.52226,0 1.57894,0.0218 1.57894,0.607287 0,0.580297 0.0648,0.607288 1.45749,0.607288 1.29555,0 1.45749,0.05398 1.45749,0.485829 0,0.436002 0.16195,0.48583 1.57895,0.48583 1.417,0 1.57895,0.04983 1.57895,0.48583 0,0.404858 0.16194,0.48583 0.97166,0.48583 0.80971,0 0.97166,0.08097 0.97166,0.4858297 0,0.436001 0.16194,0.48583 1.57895,0.48583 1.417,0 1.57894,0.04983 1.57894,0.48583 0,0.404858 0.16195,0.48583 0.97166,0.48583 0.80972,0 0.97166,0.08097 0.97166,0.48583 0,0.404858 0.16195,0.48583 0.97166,0.48583 0.8745,0 0.97166,0.06073 0.97166,0.607287 0,0.557805 0.0891,0.607288 1.09312,0.607288 0.93117,0 1.09312,0.07197 1.09312,0.48583 0,0.404858 0.16194,0.48583 0.97166,0.48583 0.80971,0 0.97166,0.08097 0.97166,0.48583 0,0.404858 0.16194,0.48583 0.97166,0.48583 0.80971,0 0.97166,0.08097 0.97166,0.485829 0,0.413856 0.16194,0.48583 1.09311,0.48583 0.93118,0 1.09312,0.07197 1.09312,0.48583 0,0.404859 0.16195,0.48583 0.97166,0.48583 0.80972,0 0.97166,0.08097 0.97166,0.48583 0,0.404859 0.16195,0.48583 0.97166,0.48583 0.8745,0 0.97166,0.06073 0.97166,0.607288 0,0.48583 0.12146,0.607287 0.60729,0.607287 0.44534,0 0.60729,0.129555 0.60729,0.48583 0,0.404858 0.16194,0.48583 0.97166,0.48583 0.80971,0 0.97166,0.08097 0.97166,0.48583 0,0.404858 0.16194,0.48583 0.97166,0.48583 0.80971,0 0.97166,0.08097 0.97166,0.48583 0,0.323887 0.16194,0.48583 0.48583,0.48583 0.32388,0 0.48583,0.161943 0.48583,0.48583 0,0.413855 0.16194,0.48583 1.09311,0.48583 0.93118,0 1.09312,0.07197 1.09312,0.48583 0,0.323886 0.16195,0.48583 0.48583,0.48583 0.35628,0 0.48583,0.161944 0.48583,0.607287 0,0.546559 0.0972,0.607288 0.97166,0.607288 0.80972,0 0.97166,0.08097 0.97166,0.48583 0,0.323885 0.16194,0.48583 0.48583,0.48583 0.32389,0 0.48583,0.161944 0.48583,0.48583 0,0.356276 0.16194,0.485829 0.60729,0.485829 0.44534,0 0.60729,0.129554 0.60729,0.48583 0,0.40486 0.16194,0.48583 0.97166,0.48583 0.80971,0 0.97166,0.08097 0.97166,0.48583 0,0.323886 0.16194,0.48583 0.48583,0.48583 0.32388,0 0.48583,0.161944 0.48583,0.48583 0,0.323886 0.16194,0.48583 0.48583,0.48583 0.35628,0 0.48583,0.161944 0.48583,0.607288 0,0.557805 0.0891,0.607287 1.09311,0.607287 0.93117,0 1.09312,0.07198 1.09312,0.48583 0,0.323886 0.16195,0.48583 0.48583,0.48583 0.32388,0 0.48583,0.161944 0.48583,0.48583 0,0.323886 0.16195,0.48583 0.48583,0.48583 0.32388,0 0.48583,0.161944 0.48583,0.48583 0,0.323886 0.16195,0.48583 0.48583,0.48583 0.32388,0 0.48583,0.161944 0.48583,0.48583 0,0.323886 0.16195,0.48583 0.48583,0.48583 0.32388,0 0.48583,0.161944 0.48583,0.48583 0,0.413854 0.16195,0.48583 1.09312,0.48583 1.00404,0 1.09311,0.04948 1.09311,0.607287 0,0.445344 0.12955,0.607288 0.48583,0.607288 0.32388,0 0.48583,0.161944 0.48583,0.48583 0,0.323885 0.16196,0.48583 0.48583,0.48583 0.32388,0 0.48583,0.161944 0.48583,0.48583 0,0.323885 0.16196,0.485829 0.48583,0.485829 0.32388,0 0.48583,0.161945 0.48583,0.48583 0,0.323886 0.16196,0.48583 0.48583,0.48583 0.32388,0 0.48583,0.161945 0.48583,0.48583 0,0.323886 0.16196,0.48583 0.48583,0.48583 0.32388,0 0.48583,0.161944 0.48583,0.48583 0,0.356276 0.16196,0.48583 0.60729,0.48583 0.48583,0 0.60729,0.121458 0.60729,0.607288 0,0.445343 0.12955,0.607287 0.48583,0.607287 0.32388,0 0.48583,0.161944 0.48583,0.48583 0,0.323886 0.16195,0.48583 0.48583,0.48583 0.32388,0 0.48583,0.161944 0.48583,0.48583 0,0.323886 0.16195,0.48583 0.48583,0.48583 0.32388,0 0.48583,0.161944 0.48583,0.48583 0,0.323886 0.16195,0.48583 0.48583,0.48583 0.32388,0 0.48583,0.161944 0.48583,0.48583 0,0.323886 0.16195,0.48583 0.48583,0.48583 0.41385,0 0.48583,0.161944 0.48583,1.093117 0,1.004048 0.0495,1.093118 0.60729,1.093118 0.44533,0 0.60728,0.129553 0.60728,0.48583 0,0.323885 0.16196,0.48583 0.48583,0.48583 0.32388,0 0.48583,0.161944 0.48583,0.48583 0,0.323885 0.16195,0.485829 0.48583,0.485829 0.32388,0 0.48583,0.161945 0.48583,0.48583 0,0.323886 0.16195,0.48583 0.48583,0.48583 0.32388,0 0.48583,0.161945 0.48583,0.48583 0,0.323886 0.16195,0.48583 0.48583,0.48583 0.41386,0 0.48583,0.161944 0.48583,1.093118 0,0.931173 0.072,1.093117 0.48583,1.093117 0.32388,0 0.48583,0.161944 0.48583,0.48583 0,0.356276 0.16195,0.48583 0.60729,0.48583 0.44534,0 0.60729,0.129554 0.60729,0.48583 0,0.323886 0.16195,0.48583 0.48583,0.48583 0.40486,0 0.48583,0.161944 0.48583,0.97166 0,0.809716 0.081,0.97166 0.48583,0.97166 0.32388,0 0.48583,0.161944 0.48583,0.48583 0,0.323886 0.16195,0.48583 0.48583,0.48583 0.35628,0 0.48583,0.161944 0.48583,0.607287 0,0.445343 0.12954,0.607288 0.48583,0.607288 0.40486,0 0.48583,0.161944 0.48583,0.97166 0,0.809715 0.081,0.971659 0.48583,0.971659 0.32388,0 0.48583,0.161945 0.48583,0.48583 0,0.356277 0.16195,0.48583 0.60729,0.48583 0.54655,0 0.60728,0.09717 0.60728,0.97166 0,0.809716 0.081,0.97166 0.48583,0.97166 0.35629,0 0.48583,0.161944 0.48583,0.607288 0,0.445343 0.12955,0.607287 0.48583,0.607287 0.40487,0 0.48583,0.161944 0.48583,0.97166 0,0.809716 0.081,0.97166 0.48583,0.97166 0.40487,0 0.48583,0.161944 0.48583,0.97166 0,0.809716 0.081,0.97166 0.48583,0.97166 0.32388,0 0.48583,0.161944 0.48583,0.48583 0,0.323886 0.16195,0.48583 0.48583,0.48583 0.41386,0 0.48583,0.161944 0.48583,1.093117 0,1.004048 0.0495,1.093118 0.60729,1.093118 0.54656,0 0.60729,0.09717 0.60729,0.971659 0,0.809716 0.081,0.97166 0.48583,0.97166 0.40486,0 0.48583,0.161944 0.48583,0.97166 0,0.809716 0.081,0.97166 0.48583,0.97166 0.41385,0 0.48583,0.161944 0.48583,1.093118 0,0.931173 0.072,1.093117 0.48583,1.093117 0.40486,0 0.48583,0.161944 0.48583,0.97166 0,0.809716 0.081,0.97166 0.48583,0.97166 0.40486,0 0.48583,0.161944 0.48583,0.97166 0,0.809716 0.081,0.97166 0.48583,0.97166 0.41385,0 0.48583,0.161944 0.48583,1.093117 0,1.004048 0.0495,1.093118 0.60728,1.093118 0.54656,0 0.60729,0.09717 0.60729,0.971659 0,0.809716 0.081,0.97166 0.48583,0.97166 0.43601,0 0.48583,0.161944 0.48583,1.578948 0,1.417003 0.0498,1.578947 0.48583,1.578947 0.40487,0 0.48583,0.161944 0.48583,0.97166 0,0.809716 0.081,0.97166 0.48583,0.97166 0.43186,0 0.48583,0.161944 0.48583,1.45749 0,1.295546 0.054,1.45749 0.48583,1.45749 0.43601,0 0.48583,0.161944 0.48583,1.578952 0,1.416998 0.0498,1.578938 0.48583,1.578938 0.43186,0 0.48583,0.16195 0.48583,1.45749 0,1.39271 0.027,1.45749 0.60729,1.45749 0.5855,0 0.60729,0.0567 0.60729,1.57895 0,1.417 0.0498,1.57895 0.48583,1.57895 0.43185,0 0.48583,0.16194 0.48583,1.45749 0,1.29554 0.054,1.45749 0.48583,1.45749 0.44771,0 0.48583,0.16194 0.48583,2.06477 0,1.90284 0.0381,2.06478 0.48583,2.06478 0.45498,0 0.48583,0.16195 0.48583,2.55061 0,2.38866 0.0308,2.55061 0.48583,2.55061 0.45498,0 0.48583,0.16194 0.48583,2.5506 0,2.38867 0.0308,2.55061 0.48583,2.55061 0.46338,0 0.48583,0.16194 0.48583,3.50492 0,2.79159 0.0742,3.57907 0.36437,3.86928 0.31734,0.31734 0.36437,2.68942 0.36437,18.37479 0,15.68537 -0.047,18.05745 -0.36437,18.37478 -0.29021,0.29022 -0.36437,1.0777 -0.36437,3.86929 0,3.34297 -0.0224,3.50492 -0.48583,3.50492 -0.45498,0 -0.48583,0.16194 -0.48583,2.5506 0,2.38867 -0.0308,2.55061 -0.48583,2.55061 -0.45498,0 -0.48583,0.16194 -0.48583,2.55061 0,2.38866 -0.0309,2.55061 -0.48583,2.55061 -0.44534,0 -0.48583,0.16194 -0.48583,1.94332 0,1.78137 -0.0405,1.94332 -0.48583,1.94332 -0.43601,0 -0.48583,0.16194 -0.48583,1.57894 0,1.41701 -0.0498,1.57895 -0.48583,1.57895 -0.43186,0 -0.48583,0.16194 -0.48583,1.45749 0,1.39271 -0.027,1.45749 -0.60729,1.45749 -0.5855,0 -0.60729,0.0567 -0.60729,1.57895 0,1.417 -0.0498,1.57894 -0.48583,1.57894 -0.43185,0 -0.48583,0.16195 -0.48583,1.45749 0,1.29555 -0.054,1.45749 -0.48583,1.45749 -0.43601,0 -0.48583,0.16195 -0.48583,1.57895 0,1.417 -0.0498,1.57895 -0.48583,1.57895 -0.40486,0 -0.48583,0.16194 -0.48583,0.97166 0,0.80971 -0.081,0.97166 -0.48583,0.97166 -0.43601,0 -0.48583,0.16194 -0.48583,1.57895 0,1.417 -0.0498,1.57894 -0.48583,1.57894 -0.40486,0 -0.48583,0.16195 -0.48583,0.97166 0,0.8745 -0.0607,0.97166 -0.60729,0.97166 -0.54655,0 -0.60728,0.0972 -0.60728,0.97166 0,0.80972 -0.081,0.97166 -0.48583,0.97166 -0.41386,0 -0.48583,0.16195 -0.48583,1.09312 0,0.93117 -0.072,1.09312 -0.48583,1.09312 -0.40487,0 -0.48583,0.16194 -0.48583,0.97166 0,0.80971 -0.081,0.97166 -0.48583,0.97166 -0.40487,0 -0.48583,0.16194 -0.48583,0.97166 0,0.80971 -0.081,0.97166 -0.48583,0.97166 -0.41386,0 -0.48583,0.16194 -0.48583,1.09311 0,0.93118 -0.072,1.09312 -0.48583,1.09312 -0.40487,0 -0.48583,0.16195 -0.48583,0.97166 0,0.8745 -0.0607,0.97166 -0.60729,0.97166 -0.54656,0 -0.60729,0.0972 -0.60729,0.97166 0,0.80972 -0.081,0.97166 -0.48583,0.97166 -0.35628,0 -0.48583,0.16195 -0.48583,0.60729 0,0.44534 -0.12954,0.60729 -0.48583,0.60729 -0.40486,0 -0.48583,0.16194 -0.48583,0.97166 0,0.80971 -0.081,0.97166 -0.48583,0.97166 -0.40486,0 -0.48583,0.16194 -0.48583,0.97166 0,0.80971 -0.081,0.97166 -0.48583,0.97166 -0.32388,0 -0.48583,0.16194 -0.48583,0.48583 0,0.32388 -0.16195,0.48583 -0.48583,0.48583 -0.41385,0 -0.48583,0.16194 -0.48583,1.09311 0,1.00405 -0.0495,1.09312 -0.60728,1.09312 -0.44534,0 -0.60729,0.12956 -0.60729,0.48583 0,0.32389 -0.16195,0.48583 -0.48583,0.48583 -0.40487,0 -0.48583,0.16195 -0.48583,0.97166 0,0.80972 -0.081,0.97166 -0.48583,0.97166 -0.32388,0 -0.48583,0.16195 -0.48583,0.48583 0,0.32389 -0.16195,0.48583 -0.48583,0.48583 -0.35629,0 -0.48583,0.16195 -0.48583,0.60729 0,0.44534 -0.12955,0.60729 -0.48583,0.60729 -0.40487,0 -0.48583,0.16194 -0.48583,0.97166 0,0.80971 -0.081,0.97166 -0.48583,0.97166 -0.32388,0 -0.48583,0.16194 -0.48583,0.48583 0,0.35627 -0.16195,0.48583 -0.60729,0.48583 -0.44534,0 -0.60729,0.12955 -0.60729,0.48583 0,0.32387 -0.16195,0.48583 -0.48583,0.48583 -0.41385,0 -0.48583,0.16195 -0.48583,1.09311 0,0.93117 -0.072,1.09312 -0.48583,1.09312 -0.32388,0 -0.48583,0.16195 -0.48583,0.48583 0,0.32388 -0.16195,0.48583 -0.48583,0.48583 -0.32388,0 -0.48583,0.16195 -0.48583,0.48583 0,0.32388 -0.16195,0.48583 -0.48583,0.48583 -0.32388,0 -0.48583,0.16195 -0.48583,0.48583 0,0.32388 -0.16195,0.48583 -0.48583,0.48583 -0.32387,0 -0.48583,0.16195 -0.48583,0.48583 0,0.35628 -0.16195,0.48583 -0.60728,0.48583 -0.55781,0 -0.60729,0.0891 -0.60729,1.09312 0,0.93116 -0.072,1.09311 -0.48583,1.09311 -0.32388,0 -0.48583,0.16196 -0.48583,0.48583 0,0.32388 -0.16195,0.48583 -0.48583,0.48583 -0.32388,0 -0.48583,0.16196 -0.48583,0.48583 0,0.32388 -0.16195,0.48583 -0.48583,0.48583 -0.32388,0 -0.48583,0.16196 -0.48583,0.48583 0,0.32388 -0.16195,0.48583 -0.48583,0.48583 -0.32388,0 -0.48583,0.16196 -0.48583,0.48583 0,0.32388 -0.16195,0.48583 -0.48583,0.48583 -0.32388,0 -0.48583,0.16196 -0.48583,0.48583 0,0.35629 -0.16195,0.48583 -0.60729,0.48583 -0.48583,0 -0.60729,0.12146 -0.60729,0.60729 0,0.44534 -0.12954,0.60729 -0.48583,0.60729 -0.32387,0 -0.48583,0.16195 -0.48583,0.48583 0,0.32388 -0.16195,0.48583 -0.48583,0.48583 -0.32387,0 -0.48583,0.16195 -0.48583,0.48583 0,0.32388 -0.16195,0.48583 -0.48583,0.48583 -0.32387,0 -0.48583,0.16195 -0.48583,0.48583 0,0.32388 -0.16195,0.48583 -0.48583,0.48583 -0.32387,0 -0.48583,0.16195 -0.48583,0.48583 0,0.32388 -0.16195,0.48583 -0.48583,0.48583 -0.32387,0 -0.48583,0.16195 -0.48583,0.48583 0,0.41385 -0.16195,0.48583 -1.09311,0.48583 -1.00404,0 -1.09312,0.0495 -1.09312,0.60729 0,0.44533 -0.12955,0.60728 -0.48583,0.60728 -0.32388,0 -0.48583,0.16196 -0.48583,0.48583 0,0.32388 -0.16195,0.48583 -0.48583,0.48583 -0.32388,0 -0.48583,0.16196 -0.48583,0.48583 0,0.32388 -0.16195,0.48583 -0.48583,0.48583 -0.32388,0 -0.48583,0.16196 -0.48583,0.48583 0,0.32388 -0.16195,0.48583 -0.48583,0.48583 -0.32388,0 -0.48583,0.16196 -0.48583,0.48583 0,0.41386 -0.16195,0.48583 -1.09312,0.48583 -0.93116,0 -1.09311,0.072 -1.09311,0.48583 0,0.32388 -0.16196,0.48583 -0.48583,0.48583 -0.35628,0 -0.48583,0.16195 -0.48583,0.60729 0,0.44534 -0.12956,0.60729 -0.48583,0.60729 -0.32389,0 -0.48583,0.16195 -0.48583,0.48583 0,0.40486 -0.16195,0.48583 -0.97166,0.48583 -0.80972,0 -0.97166,0.081 -0.97166,0.48583 0,0.35628 -0.16195,0.48583 -0.60729,0.48583 -0.44535,0 -0.60729,0.12954 -0.60729,0.48583 0,0.32388 -0.16194,0.48583 -0.48583,0.48583 -0.32389,0 -0.48583,0.16195 -0.48583,0.48583 0,0.40486 -0.16194,0.48583 -0.97166,0.48583 -0.80971,0 -0.97166,0.081 -0.97166,0.48583 0,0.32388 -0.16194,0.48583 -0.48583,0.48583 -0.35628,0 -0.48583,0.16195 -0.48583,0.60729 0,0.5578 -0.0891,0.60728 -1.09312,0.60728 -0.93117,0 -1.09311,0.072 -1.09311,0.48583 0,0.32388 -0.16195,0.48583 -0.48583,0.48583 -0.32389,0 -0.48583,0.16195 -0.48583,0.48583 0,0.40487 -0.16195,0.48583 -0.97166,0.48583 -0.80972,0 -0.97166,0.081 -0.97166,0.48583 0,0.40487 -0.16195,0.48583 -0.97166,0.48583 -0.80972,0 -0.97166,0.081 -0.97166,0.48583 0,0.35629 -0.16195,0.48583 -0.60729,0.48583 -0.44534,0 -0.60729,0.12955 -0.60729,0.48583 0,0.40487 -0.16194,0.48583 -0.97166,0.48583 -0.87449,0 -0.97166,0.0607 -0.97166,0.60729 0,0.54656 -0.0972,0.60729 -0.97166,0.60729 -0.80971,0 -0.97166,0.081 -0.97166,0.48583 0,0.41385 -0.16194,0.48583 -1.09312,0.48583 -0.93117,0 -1.09311,0.072 -1.09311,0.48583 0,0.40486 -0.16195,0.48583 -0.97166,0.48583 -0.80972,0 -0.97166,0.081 -0.97166,0.48583 0,0.40486 -0.16195,0.48583 -0.97166,0.48583 -0.80972,0 -0.97166,0.081 -0.97166,0.48583 0,0.41385 -0.16195,0.48583 -1.09312,0.48583 -0.93117,0 -1.09312,0.072 -1.09312,0.48583 0,0.40486 -0.16194,0.48583 -0.97166,0.48583 -0.87449,0 -0.97166,0.0607 -0.97166,0.60728 0,0.54656 -0.0972,0.60729 -0.97166,0.60729 -0.80971,0 -0.97166,0.081 -0.97166,0.48583 0,0.43601 -0.16194,0.48583 -1.57894,0.48583 -1.41701,0 -1.57895,0.0498 -1.57895,0.48583 0,0.40487 -0.16195,0.48583 -0.97166,0.48583 -0.80972,0 -0.97166,0.081 -0.97166,0.48583 0,0.43601 -0.16195,0.48583 -1.57895,0.48583 -1.417,0 -1.57895,0.0498 -1.57895,0.48583 0,0.43186 -0.16194,0.48583 -1.45749,0.48583 -1.29554,0 -1.45749,0.054 -1.45749,0.48583 0,0.43601 -0.16194,0.48583 -1.57894,0.48583 -1.52227,0 -1.57895,0.0219 -1.57895,0.60729 0,0.5803 -0.0648,0.60729 -1.45749,0.60729 -1.29555,0 -1.45749,0.054 -1.45749,0.48583 0,0.436 -0.16194,0.48583 -1.57895,0.48583 -1.417,0 -1.57895,0.0498 -1.57895,0.48583 0,0.44533 -0.16194,0.48583 -1.94332,0.48583 -1.78137,0 -1.94331,0.0405 -1.94331,0.48583 0,0.45498 -0.16195,0.48583 -2.55061,0.48583 -2.38867,0 -2.55061,0.0308 -2.55061,0.48583 0,0.45498 -0.16194,0.48583 -2.55061,0.48583 -2.38866,0 -2.5506,0.0309 -2.5506,0.48583 0,0.46338 -0.16195,0.48583 -3.50492,0.48583 -2.79159,0 -3.57907,0.0742 -3.86929,0.36437 -0.543,0.54299 -36.30603,0.53402 -36.78517,-0.009 z M 106.6165,173.83289 V 126.22155 H 91.920143 77.223783 v 47.61134 47.61133 h 14.69636 14.696357 z m 51.49797,17.24696 v -30.36437 h 0.60729 c 0.58549,0 0.60729,-0.0567 0.60729,-1.57895 0,-1.417 0.0498,-1.57895 0.48583,-1.57895 0.32388,0 0.48583,-0.16194 0.48583,-0.48583 0,-0.32388 0.16194,-0.48583 0.48583,-0.48583 0.40486,0 0.48583,-0.16194 0.48583,-0.97166 0,-0.80971 0.081,-0.97166 0.48583,-0.97166 0.32388,0 0.48583,-0.16194 0.48583,-0.48583 0,-0.32388 0.16194,-0.48583 0.48583,-0.48583 0.35627,0 0.48583,-0.16194 0.48583,-0.60728 0,-0.44535 0.12955,-0.60729 0.48583,-0.60729 0.32388,0 0.48583,-0.16195 0.48583,-0.48583 0,-0.35628 0.16194,-0.48583 0.60728,-0.48583 0.44535,0 0.60729,-0.12956 0.60729,-0.48583 0,-0.32389 0.16195,-0.48583 0.48583,-0.48583 0.32389,0 0.48583,-0.16195 0.48583,-0.48583 0,-0.40486 0.16195,-0.48583 0.97166,-0.48583 0.80972,0 0.97166,-0.081 0.97166,-0.48583 0,-0.436 0.16195,-0.48583 1.57895,-0.48583 1.417,0 1.57895,-0.0498 1.57895,-0.48583 0,-0.47144 0.16194,-0.48583 5.46558,-0.48583 5.30365,0 5.46559,0.0144 5.46559,0.48583 0,0.436 0.16194,0.48583 1.57895,0.48583 1.417,0 1.57895,0.0498 1.57895,0.48583 0,0.32388 0.16194,0.48583 0.48583,0.48583 0.32388,0 0.48583,0.16194 0.48583,0.48583 0,0.40486 0.16194,0.48583 0.97165,0.48583 h 0.97166 v 0.97166 c 0,0.80971 0.081,0.97166 0.48583,0.97166 0.35628,0 0.48583,0.16194 0.48583,0.60729 0,0.48583 0.12146,0.60728 0.60729,0.60728 0.44535,0 0.60729,0.12956 0.60729,0.48583 0,0.32389 0.16194,0.48583 0.48583,0.48583 0.40486,0 0.48583,0.16195 0.48583,0.97166 0,0.80972 0.081,0.97166 0.48583,0.97166 0.436,0 0.48583,0.16195 0.48583,1.57895 0,1.417 0.0498,1.57895 0.48583,1.57895 0.46349,0 0.48583,0.16194 0.48583,3.52226 0,3.36033 0.0223,3.52227 0.48583,3.52227 0.48295,0 0.48583,0.16195 0.48583,27.32794 v 27.32793 h 14.69636 14.69635 v -34.00809 c 0,-33.84616 -0.002,-34.0081 -0.48583,-34.0081 -0.44534,0 -0.48583,-0.16195 -0.48583,-1.94332 0,-1.78138 -0.0405,-1.94332 -0.48583,-1.94332 -0.436,0 -0.48583,-0.16195 -0.48583,-1.57895 0,-1.417 -0.0498,-1.57895 -0.48583,-1.57895 -0.43185,0 -0.48583,-0.16194 -0.48583,-1.45749 0,-1.29554 -0.054,-1.45749 -0.48583,-1.45749 -0.41385,0 -0.48583,-0.16194 -0.48583,-1.09311 0,-1.00405 -0.0495,-1.09312 -0.60729,-1.09312 -0.54655,0 -0.60728,-0.0972 -0.60728,-0.97166 0,-0.80972 -0.081,-0.97166 -0.48583,-0.97166 -0.32389,0 -0.48583,-0.16194 -0.48583,-0.48583 0,-0.32389 -0.16195,-0.48583 -0.48583,-0.48583 -0.40486,0 -0.48583,-0.16194 -0.48583,-0.97166 0,-0.80972 -0.081,-0.97166 -0.48583,-0.97166 -0.35628,0 -0.48583,-0.16194 -0.48583,-0.60729 0,-0.44534 -0.12956,-0.60729 -0.48583,-0.60729 -0.32389,0 -0.48583,-0.16194 -0.48583,-0.48583 0,-0.32388 -0.16195,-0.48583 -0.48583,-0.48583 -0.32389,0 -0.48583,-0.16194 -0.48583,-0.48583 0,-0.35627 -0.16195,-0.48583 -0.60729,-0.48583 -0.44534,0 -0.60729,-0.12955 -0.60729,-0.48583 0,-0.32388 -0.16194,-0.48583 -0.48583,-0.48583 -0.32388,0 -0.48583,-0.16194 -0.48583,-0.48583 0,-0.40485 -0.16194,-0.48583 -0.97166,-0.48583 -0.80971,0 -0.97166,-0.081 -0.97166,-0.48583 0,-0.32388 -0.16194,-0.48583 -0.48583,-0.48583 -0.35627,0 -0.48583,-0.16194 -0.48583,-0.60728 0,-0.44535 -0.12955,-0.60729 -0.48583,-0.60729 -0.32388,0 -0.48583,-0.16194 -0.48583,-0.48583 0,-0.41385 -0.16194,-0.48583 -1.09311,-0.48583 -0.93118,0 -1.09312,-0.072 -1.09312,-0.48583 0,-0.40486 -0.16195,-0.48583 -0.97166,-0.48583 -0.80972,0 -0.97166,-0.081 -0.97166,-0.48583 0,-0.436 -0.16195,-0.48583 -1.57895,-0.48583 -1.417,0 -1.57895,-0.0498 -1.57895,-0.48583 0,-0.43185 -0.16194,-0.48583 -1.45749,-0.48583 -1.29554,0 -1.45749,-0.054 -1.45749,-0.48583 0,-0.45992 -0.16194,-0.48583 -3.03643,-0.48583 h -3.03644 v -0.60729 -0.60728 h -3.52227 -3.52226 v 0.60728 0.60729 h -2.55061 c -2.38867,0 -2.55061,0.0309 -2.55061,0.48583 0,0.44773 -0.16194,0.48583 -2.06478,0.48583 -1.90283,0 -2.06477,0.0381 -2.06477,0.48583 0,0.40486 -0.16195,0.48583 -0.97166,0.48583 -0.80972,0 -0.97166,0.081 -0.97166,0.48583 0,0.41385 -0.16195,0.48583 -1.09312,0.48583 -0.93117,0 -1.09312,0.072 -1.09312,0.48583 0,0.40486 -0.16194,0.48583 -0.97166,0.48583 -0.80971,0 -0.97166,0.081 -0.97166,0.48583 0,0.32389 -0.16194,0.48583 -0.48583,0.48583 -0.35627,0 -0.48583,0.16194 -0.48583,0.60729 0,0.44534 -0.12955,0.60728 -0.48583,0.60728 -0.32388,0 -0.48583,0.16195 -0.48583,0.48583 0,0.32389 -0.16194,0.48583 -0.48583,0.48583 -0.32388,0 -0.48583,0.16195 -0.48583,0.48583 0,0.35628 -0.16194,0.48583 -0.60729,0.48583 -0.44534,0 -0.60728,0.12956 -0.60728,0.48583 0,0.32389 -0.16195,0.48583 -0.48583,0.48583 -0.32389,0 -0.48583,0.16195 -0.48583,0.48583 0,0.32389 -0.16195,0.48583 -0.48583,0.48583 -0.32389,0 -0.48583,0.16195 -0.48583,0.48583 0,0.32389 -0.16195,0.48583 -0.48583,0.48583 -0.35628,0 -0.48583,0.16195 -0.48583,0.60729 0,0.44535 -0.12956,0.60729 -0.48583,0.60729 -0.40486,0 -0.48583,0.16194 -0.48583,0.97166 0,0.80972 -0.081,0.97166 -0.48583,0.97166 -0.32389,0 -0.48583,0.16194 -0.48583,0.48583 0,0.436 -0.16195,0.48583 -1.57895,0.48583 h -1.57895 v -1.45749 c 0,-1.29555 0.054,-1.45749 0.48583,-1.45749 0.47041,0 0.48583,-0.16194 0.48583,-5.10122 v -5.10121 H 142.93229 127.7501 v 47.61134 47.61133 h 15.18219 15.18218 z M 97.385733,109.46042 c 0,-0.436 0.16194,-0.48583 1.57894,-0.48583 1.417007,0 1.578947,-0.0498 1.578947,-0.48583 0,-0.40486 0.16195,-0.48583 0.97166,-0.48583 0.80972,0 0.97166,-0.081 0.97166,-0.48583 0,-0.32389 0.16195,-0.48583 0.48583,-0.48583 0.32389,0 0.48583,-0.16195 0.48583,-0.48583 0,-0.35628 0.16195,-0.48583 0.60729,-0.48583 0.44534,0 0.60729,-0.12956 0.60729,-0.48583 0,-0.32389 0.16194,-0.48583 0.48583,-0.48583 0.35627,0 0.48583,-0.16195 0.48583,-0.60729 0,-0.44534 0.12955,-0.60729 0.48583,-0.60729 0.40486,0 0.48583,-0.16194 0.48583,-0.97166 0,-0.80971 0.081,-0.97166 0.48583,-0.97166 0.40486,0 0.48583,-0.16194 0.48583,-0.97166 0,-0.80971 0.081,-0.971658 0.48583,-0.971658 0.436,0 0.48583,-0.16194 0.48583,-1.578945 0,-1.417003 0.0498,-1.578947 0.48583,-1.578947 0.44772,0 0.48583,-0.161944 0.48583,-2.064778 0,-1.902833 -0.0381,-2.064777 -0.48583,-2.064777 -0.44535,0 -0.48583,-0.161944 -0.48583,-1.94332 0,-1.781375 -0.0405,-1.94332 -0.48583,-1.94332 -0.41386,0 -0.48583,-0.161944 -0.48583,-1.093117 0,-0.931173 -0.072,-1.093117 -0.48583,-1.093117 -0.40486,0 -0.48583,-0.161945 -0.48583,-0.97166 0,-0.809716 -0.081,-0.97166 -0.48583,-0.97166 -0.32389,0 -0.48583,-0.161944 -0.48583,-0.48583 0,-0.323886 -0.16195,-0.48583 -0.48583,-0.48583 -0.32389,0 -0.48583,-0.161944 -0.48583,-0.48583 0,-0.356276 -0.16195,-0.48583 -0.60729,-0.48583 -0.44534,0 -0.60729,-0.129554 -0.60729,-0.48583 0,-0.323886 -0.16194,-0.48583 -0.48583,-0.48583 -0.35627,0 -0.48583,-0.161944 -0.48583,-0.607287 0,-0.546559 -0.0972,-0.607288 -0.97166,-0.607288 -0.80971,0 -0.97166,-0.08097 -0.97166,-0.48583 0,-0.436001 -0.16194,-0.48583 -1.578947,-0.48583 -1.417,0 -1.57894,-0.04983 -1.57894,-0.48583 0,-0.471748 -0.16195,-0.48583 -5.58705,-0.48583 -5.4251,0 -5.58704,0.01409 -5.58704,0.48583 0,0.404859 -0.16195,0.48583 -0.97166,0.48583 -0.80972,0 -0.97166,0.08097 -0.97166,0.48583 0,0.404859 -0.16195,0.48583 -0.97166,0.48583 -0.8745,0 -0.97166,0.06073 -0.97166,0.607288 0,0.557805 -0.0891,0.607287 -1.09312,0.607287 -0.93117,0 -1.09312,0.07198 -1.09312,0.48583 0,0.323886 -0.16194,0.48583 -0.48583,0.48583 -0.32388,0 -0.48583,0.161944 -0.48583,0.48583 0,0.323886 -0.16194,0.48583 -0.48583,0.48583 -0.32388,0 -0.48583,0.161944 -0.48583,0.48583 0,0.323886 -0.16194,0.48583 -0.48583,0.48583 -0.40486,0 -0.48583,0.161944 -0.48583,0.97166 0,0.809715 -0.081,0.97166 -0.48583,0.97166 -0.41385,0 -0.48583,0.161944 -0.48583,1.093117 0,0.931173 -0.072,1.093117 -0.48583,1.093117 -0.47175,0 -0.48583,0.161945 -0.48583,5.587045 0,5.425102 0.0141,5.587042 0.48583,5.587042 0.40486,0 0.48583,0.161948 0.48583,0.971658 0,0.80972 0.081,0.97166 0.48583,0.97166 0.40486,0 0.48583,0.16195 0.48583,0.97166 0,0.80972 0.081,0.97166 0.48583,0.97166 0.35628,0 0.48583,0.16195 0.48583,0.60729 0,0.44534 0.12956,0.60729 0.48583,0.60729 0.32389,0 0.48583,0.16194 0.48583,0.48583 0,0.32388 0.16195,0.48583 0.48583,0.48583 0.32389,0 0.48583,0.16194 0.48583,0.48583 0,0.41385 0.16195,0.48583 1.09312,0.48583 0.93117,0 1.09312,0.072 1.09312,0.48583 0,0.40486 0.16194,0.48583 0.97166,0.48583 0.80971,0 0.97166,0.081 0.97166,0.48583 0,0.40486 0.16194,0.48583 0.97166,0.48583 0.80971,0 0.97166,0.081 0.97166,0.48583 0,0.47174 0.16194,0.48583 5.58704,0.48583 5.4251,0 5.58705,-0.0141 5.58705,-0.48583 z"
     id="path7868"
     inkscape:connector-curvature="0" />
  <path
     style="fill:#000000;stroke-width:0.24291497"
     d=""
     id="path7864"
     inkscape:connector-curvature="0" />
  <path
     style="fill:#000000"
     d=""
     id="path7265"
     inkscape:connector-curvature="0" />
</svg>
